<svg xmlns="http://www.w3.org/2000/svg" width="986.9" height="1149.3" viewBox="0 0 986.9 1149.3"><style type="text/css">.st0{fill:#004C72;} .st1{fill:#88CDD3;} .st2{fill:#0D7139;} .st3{fill:#4E3814;} .st4{fill:#11552B;} .st5{fill:#13512C;} .st6{fill:#10592E;} .st7{fill:#1A6333;} .st8{fill:#FFFFFF;} .st9{fill:#593A1C;} .st10{fill:#6D4D22;} .st11{fill:#4C3216;} .st12{fill:#583C15;} .st13{fill:#66481C;} .st14{fill:none;stroke:#583C15;stroke-width:3;stroke-miterlimit:10;} .st15{fill:none;stroke:#6D4D22;stroke-width:2;stroke-miterlimit:10;} .st16{fill:#66461E;} .st17{fill:none;stroke:#583C15;stroke-width:2;stroke-miterlimit:10;} .st18{fill:none;} .st19{fill:#F9ED21;}</style><path class="st0" d="M349 144.4c4.6 0 8.3-.9 11.4-2.7 3-1.8 5.4-4.1 7.3-7 1.8-2.9 3.1-6.2 3.9-9.9.8-3.7 1.2-7.5 1.2-11.4v-44h13.8v44c0 5.9-.7 11.5-2.1 16.8-1.4 5.3-3.6 9.9-6.6 13.8-3 4-6.9 7.1-11.7 9.3-4.8 2.3-10.5 3.4-17.2 3.4-6.9 0-12.8-1.2-17.5-3.6-4.8-2.4-8.6-5.6-11.5-9.7-2.9-4-5.1-8.7-6.4-13.9-1.3-5.2-2-10.6-2-16.2v-44h13.7v44c0 4 .4 7.8 1.2 11.5.8 3.7 2.1 7 3.9 9.9 1.8 2.9 4.3 5.2 7.3 7 3 1.8 6.8 2.7 11.3 2.7zm110.3 11.7h-13.4v-35.8c0-5.9-1.1-10.2-3.2-13-2.1-2.8-5.1-4.2-9-4.2-1.8 0-3.6.4-5.5 1.1-1.9.7-3.6 1.8-5.3 3.1-1.7 1.3-3.2 2.9-4.5 4.8-1.3 1.8-2.3 3.8-3 6v38h-13.4v-89.2h13.4v38.1c2.5-4.4 5.9-7.8 10.1-10.3 4.2-2.4 8.8-3.7 13.7-3.7 3.9 0 7.2.7 9.8 2.1 2.6 1.4 4.7 3.3 6.2 5.7 1.5 2.4 2.6 5.1 3.2 8.2.6 3.1.9 6.5.9 10v39.1zm82.7.6c-6.1 0-11.7-1.2-16.7-3.7s-9.3-5.8-12.9-9.9c-3.6-4.1-6.4-8.8-8.4-14.1-2-5.3-2.9-10.7-2.9-16.2 0-5.8 1-11.3 3.1-16.6 2.1-5.3 4.9-10 8.6-14 3.7-4.1 8-7.3 13.1-9.7 5-2.4 10.5-3.6 16.5-3.6 6.1 0 11.7 1.3 16.7 3.8 5 2.6 9.3 5.9 12.9 10.1 3.6 4.2 6.4 8.9 8.3 14.1 2 5.3 2.9 10.6 2.9 16.1 0 5.8-1 11.3-3.1 16.6-2.1 5.3-4.9 10-8.6 14-3.7 4-8 7.2-13 9.7-5.1 2.2-10.6 3.4-16.5 3.4zm-27-44c0 4.1.6 8 1.9 11.8 1.3 3.8 3.1 7.2 5.4 10.1 2.4 2.9 5.2 5.3 8.6 7 3.3 1.8 7.1 2.6 11.2 2.6 4.2 0 8-.9 11.4-2.7 3.4-1.8 6.2-4.3 8.6-7.3 2.3-3 4.1-6.4 5.3-10.1 1.2-3.7 1.8-7.6 1.8-11.5 0-4.2-.7-8.1-2-11.9-1.3-3.8-3.1-7.1-5.5-10-2.4-2.9-5.2-5.2-8.6-7-3.3-1.8-7-2.6-11.1-2.6-4.2 0-8 .9-11.4 2.7-3.4 1.8-6.2 4.2-8.6 7.1-2.3 2.9-4.1 6.3-5.3 10.1-1.1 4-1.7 7.8-1.7 11.7zm137.5 43.4h-13.4v-35.8c0-5.9-1.1-10.2-3.2-13-2.1-2.8-5.1-4.2-9-4.2-1.8 0-3.6.4-5.5 1.1-1.9.7-3.6 1.8-5.3 3.1-1.7 1.3-3.2 2.9-4.5 4.8-1.3 1.8-2.3 3.8-3 6v38h-13.4v-89.2h13.4v38.1c2.5-4.4 5.9-7.8 10.1-10.3 4.2-2.4 8.8-3.7 13.7-3.7 3.9 0 7.2.7 9.8 2.1 2.6 1.4 4.7 3.3 6.2 5.7 1.5 2.4 2.6 5.1 3.2 8.2.6 3.1.9 6.5.9 10v39.1zm14.7 0v-15.6h11.1v15.6h-11.1z"/><circle class="st1" cx="495.1" cy="472" r="244.5"/><ellipse class="st2" cx="497.7" cy="586.3" rx="285.8" ry="147.1"/><path class="st3" d="M498.4 457.8h22.1v32h-22.1z"/><path class="st4" d="M374 479.8h106.9l-26.7-65-.9-2.3h12.7l-19.3-46.9-6.1-14.7h9.9l-11.5-27.9-11.5-27.9-11.5 27.9-11.5 27.9h9.5l-6.1 14.7-19.3 46.9h12.8l-.9 2.3-26.5 65zm82-11.6h106.9l-26.7-63.8-.9-2.3h12.7l-19.3-46.1-6.1-14.5h9.9l-11.5-27.4-11.5-27.4-11.5 27.4-11.5 27.4h9.5l-6.1 14.5-19.3 46.1h12.8l-.9 2.3-26.5 63.8zm-155.5-21.4h106.9l-26.7-65-.9-2.3h12.8l-19.3-46.9-6.1-14.7h9.9l-11.5-27.9-11.5-27.9-11.5 27.9-11.5 27.9h9.5l-6.1 14.7-19.3 46.9h12.8l-.9 2.3-26.6 65zm82-11.6h106.9l-26.7-63.8-.9-2.3h12.8l-19.3-46.1-6.1-14.5h9.9l-11.5-27.4-11.5-27.4-11.5 27.4-11.5 27.4h9.5l-6.1 14.5-19.3 46.1h12.8l-.9 2.3-26.6 63.8z"/><path class="st5" d="M436.2 253.8l10.2 41.5h-10.2l20.6 62h-10.4l30.5 77.9h12.5l-27.7-66.1h12.9l-25.4-60.5h9.9zm-82.1 8.1l10.3 42.3h-10.3l20.7 63.2h-10.4l30.4 79.4h12.6l-27.7-67.3h12.8l-25.3-61.7h9.9z"/><path class="st3" d="M309.8 521.7h25.4v36.6h-25.4zm-37.5-17.6h25.4v36.6h-25.4z"/><path class="st6" d="M345.3 448.3h106.9l-26.7-59.4-.9-2.1h12.8l-19.3-42.9-6.1-13.5h9.9l-11.5-25.5-11.4-25.5-11.5 25.5-11.5 25.6h9.5l-6.1 13.5-19.3 42.9h12.9l-.9 2.1-26.8 59.3z"/><path class="st7" d="M399 279.4l10.2 36h-10.2l20.7 53.8h-10.5l30.5 67.6h12.5l-27.6-57.3h12.8l-25.4-52.5h9.9z"/><path class="st4" d="M422.3 455.2l-1.1-2.6h14.8l-22.1-53.8-6.9-16.9h10.9l-13.2-32-13.2-32-13.2 32-13.2 32h11.4l-6.9 16.9-22.1 53.8h14.7l-1.1 2.6-30.7 74.6h122.6l-30.7-74.6z"/><path class="st5" d="M391.5 317.8l-11.8 48.4h11.8l-23.8 72.5h12l-34.9 91h-14.4l31.7-77.2h-14.7l29.1-70.7h-11.4z"/><path class="st6" d="M370.9 463.4l-1.1-2.4h14.7l-22.1-49.2-6.9-15.4h10.9l-13.2-29.3-13.2-29.3-13.2 29.3-13.2 29.3h11.4l-6.9 15.4-22.1 49.2h14.7l-1.1 2.4-30.6 68.1h122.6l-30.7-68.1z"/><path class="st4" d="M528.2 401.6l-.9-2.3h12.8l-19.3-46.9-6.1-14.7h9.5l-11.5-27.9-11.5-27.9-11.5 27.9-11.5 27.9h9.9l-6.1 14.7-19.3 46.9h12.8l-.9 2.3-26.7 65h106.9l-26.6-65zm-82-10.4l-.9-2.3h12.7l-19.3-46.1-6.1-14.5h9.5l-11.4-27.3-11.5-27.4-11.5 27.4-11.5 27.4h9.9l-6.1 14.5-19.3 46.1h12.8l-.9 2.3-26.6 63.7h106.9l-26.7-63.8z"/><path class="st5" d="M419.2 273.6l-10.2 41.5h10.2l-20.7 62h10.5l-30.5 77.9h-12.5l27.6-66.1h-12.8l25.4-60.5h-9.9zm82 8.1l-10.2 42.3h10.2l-20.7 63.2h10.5l-30.5 79.4h-12.5l27.7-67.3h-12.9l25.4-61.7h-9.9z"/><path class="st6" d="M483.3 408.7l-.9-2.1h12.8l-19.3-42.9-6.1-13.5h9.5l-11.5-25.5-11.5-25.5-11.5 25.5-11.5 25.5h9.9l-6.1 13.5-19.1 42.9h12.8l-.9 2.1-26.7 59.4h106.9l-26.8-59.4z"/><path class="st7" d="M456.4 299.2l-10.2 36h10.2l-20.7 53.8h10.5l-30.5 67.6h-12.6l27.7-57.3h-12.8l25.4-52.5h-10z"/><path class="st4" d="M402.4 549.5h122.6l-30.7-74.5-1.1-2.6h14.7l-22.1-53.8-6.9-16.9h11.4l-13.2-32-13.2-32-13.2 32-13.2 32h10.9l-6.9 16.9-22.1 53.8h14.7l-1.1 2.6-30.6 74.5zm94-13.2h122.6l-30.7-73.2-1.1-2.6h14.8l-22.1-52.8-6.9-16.6h11.4l-13.2-31.4-13.2-31.4-13.2 31.4-13.2 31.4h10.9l-6.9 16.6-22.1 52.8h14.7l-1.1 2.6-30.7 73.2z"/><path class="st5" d="M558 328.3l11.7 47.5h-11.7l23.7 71.2h-12l34.9 89.3h14.4l-31.7-75.8h14.7l-29.1-69.4h11.4zm-94.1 9.3l11.7 48.4h-11.7l23.7 72.5h-12l35 91h14.4l-31.8-77.1h14.7l-29-70.8h11.4z"/><path class="st6" d="M453.8 551.3h122.6l-30.7-68.1-1.1-2.4h14.7l-22.1-49.2-6.9-15.4h11.4l-13.2-29.3-13.2-29.3-13.2 29.3-13.1 29.3h10.9l-6.9 15.4-22.1 49.2h14.7l-1.1 2.4-30.7 68.1z"/><path class="st7" d="M515.3 357.7l11.8 41.2h-11.8l23.8 61.7h-12l34.9 77.4h14.4l-31.7-65.6h14.7l-29.1-60.2h11.4z"/><path class="st4" d="M435.8 417.9h106.9l-26.7-65-.9-2.3h12.8l-19.3-46.9-6.1-14.7h9.9l-11.4-28.1-11.5-27.9-11.5 27.9-11.5 27.9h9.5l-6.1 14.7-19.3 46.9h12.8l-.9 2.3-26.7 65.2zm82-11.6h106.9l-26.7-63.8-.9-2.3h12.8l-19.3-46.1-6.1-14.5h9.9l-11.4-27.3-11.5-27.4-11.5 27.4-11.5 27.4h9.5l-6.1 14.5-19.3 46.1h12.8l-.9 2.3-26.7 63.7z"/><path class="st5" d="M571.5 224.9l10.2 41.4h-10.2l20.7 62.1h-10.5l30.5 77.9h12.6l-27.7-66.1h12.8l-25.4-60.5h10zm-82 8.1l10.2 42.3h-10.2l20.7 63.2h-10.5l30.5 79.4h12.6l-27.7-67.4h12.8l-25.4-61.7h10z"/><path class="st6" d="M480.7 419.4h106.9l-26.7-59.4-.9-2.1h12.8l-19.4-42.9-6.1-13.5h9.9l-11.4-25.5-11.5-25.5-11.4 25.5-11.5 25.5h9.5l-6.1 13.5-19.3 42.9h12.8l-.9 2.1-26.7 59.4z"/><path class="st7" d="M534.3 250.5l10.3 36h-10.3l20.7 53.8h-10.4l30.4 67.5h12.6l-27.7-57.3h12.8l-25.3-52.5h9.9z"/><path class="st4" d="M557.7 426.3l-1.1-2.6h14.7l-22.1-53.8-6.9-16.9h10.9l-13.2-32-13.2-32-13.2 32-13.2 32h11.4l-6.9 16.9-22.1 53.8h14.7l-1.1 2.6-30.7 74.6h122.6l-30.6-74.6z"/><path class="st5" d="M526.8 288.8l-11.7 48.5h11.7l-23.7 72.5h12l-35 91h-14.4l31.8-77.2h-14.7l29.1-70.7h-11.4z"/><path class="st6" d="M506.3 434.5l-1.1-2.4h14.7l-22.1-49.2-6.9-15.4h10.9l-13.2-29.3-13.2-29.3-13.2 29.3-13.2 29.3h11.4l-6.9 15.4-22.1 49.2h14.7l-1.1 2.4-30.7 68.1h122.6l-30.6-68.1z"/><path class="st4" d="M663.5 372.6l-.9-2.3h12.8l-19.3-46.9-6.1-14.7h9.5l-11.5-27.9-11.5-27.9-11.5 27.9-11.5 27.9h9.9l-6.1 14.7-19.3 46.9h13l-.9 2.3-26.7 65h106.9l-26.8-65zm-82-10.3l-.9-2.3h12.8l-19.3-46-6.1-14.5h9.5l-11.5-27.4-11.5-27.4-11.5 27.4-11.5 27.4h9.9l-6.1 14.5-19.1 46h12.8l-.9 2.3-26.7 63.8h106.9l-26.8-63.8z"/><path class="st5" d="M554.6 244.7l-10.2 41.4h10.2l-20.7 62.1h10.5l-30.5 77.9h-12.6l27.7-66.1h-12.8l25.3-60.5h-9.9zm82 8.1l-10.2 42.3h10.2l-20.7 63.2h10.5l-30.5 79.4h-12.6l27.7-67.4h-12.8l25.4-61.6h-10z"/><path class="st6" d="M618.7 379.8l-.9-2.1h12.8l-19.3-42.9-6.1-13.5h9.5l-11.5-25.5-11.5-25.5-11.5 25.5-11.5 25.5h9.9l-6.1 13.5-19.3 42.9h12.8l-.9 2.1-26.7 59.4h106.9l-26.6-59.4z"/><path class="st7" d="M591.7 270.3l-10.2 36h10.2l-20.6 53.8h10.4l-30.5 67.5h-12.5l27.7-57.3h-12.8l25.3-52.5h-9.9z"/><path class="st4" d="M537.7 520.6h122.6l-30.7-74.6-1.1-2.6h14.7l-22.1-53.8-6.9-16.9h11.4l-13.2-32-13.2-32-13.2 32-13.2 32h10.9l-6.9 16.9-22.1 53.8h14.7l-1.1 2.6-30.6 74.6z"/><path class="st3" d="M692.5 492.8h25.4v36.6h-25.4z"/><path class="st4" d="M631.8 507.3h122.6l-30.7-73.2-1.1-2.6h14.7l-22.1-52.8-6.9-16.6h11.4l-13.2-31.4-13.2-31.4-13.2 31.4-13.1 31.5h10.9l-6.9 16.6-22.1 52.8h14.7l-1.1 2.6-30.7 73.1z"/><path class="st5" d="M693.3 299.3l11.7 47.6h-11.7l23.7 71.1h-12l35 89.3h14.4l-31.8-75.7h14.7l-29-69.4h11.3zm-94 9.4l11.7 48.4h-11.7l23.7 72.5h-12l34.9 91h14.4l-31.7-77.2h14.7l-29.1-70.7h11.4z"/><path class="st6" d="M589.1 522.4h122.6l-30.7-68.1-1.1-2.4h14.7l-22.1-49.2-6.9-15.4h11.4l-13.1-29.3-13.2-29.3-13.2 29.3-13.2 29.3h10.9l-6.9 15.4-22.1 49.2h14.7l-1.1 2.4-30.7 68.1z"/><path class="st7" d="M650.7 328.7l11.7 41.3h-11.7l23.7 61.7h-12l35 77.4h14.4l-31.8-65.7h14.7l-29.1-60.2h11.4z"/><path class="st4" d="M463.7 414.4l-1.1-2.6h14.7l-22.2-52.8-6.9-16.6h10.9l-13.2-31.4-13.2-31.4-13.1 31.4-13.2 31.4h11.4l-6.9 16.6-22.1 52.8h14.7l-1.1 2.6-30.7 73.2h122.6l-30.6-73.2z"/><path class="st5" d="M432.8 279.5l-11.7 47.6h11.7l-23.7 71.1h12l-35 89.3h-14.4l31.7-75.7h-14.6l29-69.4h-11.4z"/><path class="st7" d="M475.4 308.9l-11.7 41.3h11.7l-23.7 61.7h12l-35 77.4h-14.4l31.8-65.7h-14.7l29-60.2h-11.3z"/><path class="st4" d="M328.3 443.3l-1.1-2.6h14.7l-22.1-52.8-6.9-16.6h10.9l-13.2-31.4-13.2-31.4-13.2 31.4-13.2 31.4h11.4l-6.9 16.6-22.1 52.8h14.7l-1.1 2.6-30.7 73.2h122.7l-30.7-73.2z"/><path class="st5" d="M297.4 308.5l-11.7 47.5h11.7l-23.7 71.1h12l-34.9 89.3h-14.4l31.7-75.7h-14.7l29.1-69.4h-11.4z"/><path class="st7" d="M340 337.8l-11.7 41.3h11.7l-23.7 61.7h12l-34.9 77.4h-14.4l31.7-65.7h-14.7l29.1-60.1h-11.4z"/><path class="st5" d="M509.6 286.8l10.3 41.4h-10.3l20.7 62.1h-10.4l30.5 77.9h12.5l-27.7-66.1h12.8l-25.3-60.5h9.9zm-82 8.1l10.3 42.3h-10.3l20.7 63.2h-10.4l30.4 79.4h12.6l-27.7-67.4h12.8l-25.3-61.6h9.9z"/><path class="st6" d="M418.8 481.3h106.9l-26.7-59.4-.9-2.1h12.8l-19.3-42.9-6.1-13.5h9.9l-11.4-25.5-11.5-25.5-11.5 25.5-11.5 25.5h9.5l-6.1 13.5-19.3 42.9h12.8l-.9 2.1-26.7 59.4z"/><path class="st3" d="M401.1 541.1h25.4v36.6h-25.4z"/><path class="st7" d="M472.5 312.4l10.2 36h-10.2l20.7 53.8h-10.5l30.5 67.5h12.5l-27.6-57.3h12.8l-25.4-52.5h9.9z"/><path class="st3" d="M358.5 537.5h25.4v36.6h-25.4z"/><path class="st4" d="M401.8 476.3l-1.1-2.6h14.7l-22.1-52.8-6.9-16.6h10.9l-13.2-31.4-13.2-31.4-13.2 31.4-13.2 31.4h11.5l-6.9 16.6-22.1 52.8h14.7l-1.1 2.6-30.7 73.2h122.6l-30.7-73.2zm94 11.9l-1.1-2.6h14.7l-22.1-53.8-6.9-16.9h10.9l-13.2-32-13.2-32-13.2 32-13.2 32h11.5l-6.9 16.9-22.1 53.8h14.7l-1.1 2.6-30.7 74.6h122.6l-30.7-74.6z"/><path class="st5" d="M465 350.8l-11.8 48.4h11.8l-23.8 72.5h12l-34.9 91h-14.4l31.7-77.2h-14.7l29.1-70.7h-11.4z"/><path class="st3" d="M517.4 556.2h25.4v36.6h-25.4z"/><path class="st6" d="M444.4 496.4l-1.1-2.4h14.7l-22.1-49.2-6.9-15.4h10.9l-13.2-29.3-13.2-29.3-13.2 29.3-13.2 29.3h11.4l-6.9 15.4-22.1 49.2h14.7l-1.1 2.4-30.7 68.1h122.6l-30.6-68.1z"/><path class="st8" d="M563.8 554v-13.8h-23.6v-4.5l22.7-32.4h7.4v31.6h7.1v5.4h-7.1v13.7h-6.5zm0-19.3v-17c0-2.7.1-5.3.2-8h-.2c-1.6 3-2.8 5.2-4.2 7.5l-12.4 17.3v.2h16.6zm52.6-6.7c0 17.3-6.4 26.8-17.7 26.8-9.9 0-16.7-9.3-16.8-26.1 0-17 7.3-26.4 17.7-26.4 10.7 0 16.8 9.5 16.8 25.7zm-27.6.8c0 13.2 4.1 20.7 10.3 20.7 7 0 10.4-8.2 10.4-21.2 0-12.5-3.2-20.7-10.3-20.7-6 0-10.4 7.4-10.4 21.2zm55.2 25.2v-13.8h-23.6v-4.5l22.7-32.4h7.4v31.6h7.1v5.4h-7.1v13.7h-6.5zm0-19.3v-17c0-2.7.1-5.3.2-8h-.2c-1.6 3-2.8 5.2-4.2 7.5l-12.4 17.3v.2h16.6z"/><path class="st4" d="M601.7 434.6l-.9-2.3h12.8l-19.3-46.9-6.1-14.7h9.5l-11.5-27.9-11.5-27.9-11.5 27.9-11.5 27.9h9.9l-6.1 14.7-19.3 46.9h12.8l-.9 2.3-26.7 65h106.9l-26.6-65zm-82-10.4l-.9-2.3h12.8l-19.3-46.1-6.1-14.5h9.5l-11.5-27.3-11.5-27.4-11.5 27.4-11.5 27.4h9.9l-6.1 14.5-19.3 46.1h12.8l-.9 2.3-26.6 63.7h106.9l-26.7-63.8z"/><path class="st5" d="M492.7 306.6l-10.2 41.5h10.2l-20.7 62h10.5l-30.5 77.9h-12.5l27.6-66.1h-12.8l25.4-60.5h-9.9zm82 8.1l-10.2 42.3h10.2l-20.7 63.2h10.5l-30.5 79.4h-12.5l27.7-67.3h-12.9l25.4-61.7h-9.9z"/><path class="st3" d="M625.9 559.4h25.4v36.6h-25.4z"/><path class="st6" d="M556.8 441.7l-.9-2.1h12.8l-19.3-42.9-6.1-13.5h9.5l-11.5-25.5-11.5-25.5-11.5 25.5-11.5 25.5h9.9l-6.1 13.5-19.3 42.9h12.8l-.9 2.1-26.7 59.4h106.9l-26.6-59.4z"/><path class="st7" d="M529.9 332.2l-10.2 36h10.2l-20.7 53.8h10.5l-30.5 67.6h-12.6l27.7-57.3h-12.8l25.4-52.5h-10z"/><path class="st4" d="M475.9 582.5h122.6l-30.7-74.5-1.1-2.6h14.7l-22.1-53.8-6.9-16.9h11.4l-13.2-32-13.2-32-13.2 32-13.2 32h11l-6.9 16.9-22.1 53.8h14.7l-1.1 2.6-30.7 74.5zm94-13.3h122.6l-30.7-73.2-1.1-2.6h14.7l-22.1-52.8-6.9-16.6h11.4l-13.2-31.4-13.2-31.4-13.2 31.4-13.2 31.4h11l-6.9 16.6-22.1 52.9h14.7l-1.1 2.6-30.7 73.1z"/><path class="st3" d="M568 571h25.4v36.6h-25.4z"/><path class="st5" d="M631.5 361.2l11.7 47.6h-11.7l23.7 71.1h-12l34.9 89.3h14.4l-31.7-75.7h14.7l-29.1-69.4h11.4zm-94.1 9.4l11.7 48.4h-11.7l23.7 72.5h-12l35 91h14.4l-31.8-77.2h14.7l-29-70.7h11.3z"/><path class="st6" d="M527.3 584.3h122.6l-30.7-68.1-1.1-2.4h14.7l-22.1-49.2-6.9-15.4h11.4l-13.2-29.3-13.2-29.3-13.2 29.3-13.2 29.3h10.9l-6.9 15.4-22.1 49.2h14.7l-1.1 2.4-30.6 68.1z"/><path class="st7" d="M588.8 390.6l11.7 41.3h-11.7l23.8 61.7h-12.1l35 77.4h14.4l-31.7-65.7h14.7l-29.1-60.2h11.4z"/><path class="st5" d="M370.9 341.4l-11.7 47.6h11.7l-23.7 71.1h12l-35 89.3h-14.4l31.8-75.7h-14.7l29.1-69.4h-11.4z"/><path class="st7" d="M413.5 370.8l-11.7 41.3h11.7l-23.7 61.7h12l-34.9 77.4h-14.4l31.7-65.7h-14.7l29.1-60.2h-11.4z"/><path class="st3" d="M415.6 527.6h38.6v55.8h-38.6z"/><path class="st9" d="M425.1 500.8l-5.4 8.9s-.8.3 2.7 0l-4.7 7.9h1.6l-10.2 23.3s-2.3 7.5 0 10.5c0 0-1 2.9.3 5.9 0 0 1.3 6.2-2.9 9.5l-2.9 9.2s.7 3.3-2 9.2c0 0-4.9 8.5 0 43.9 0 0-2.6 7.2 1 9.2l1 7.2s4.3 1 4.3 5.6c0 0 .6 6.6 4.4 10.9l2.5 9.5s10.8 10.8 35.1 12.1v1.6l2.6-1.3 1.3 2.9 1.6-2 1.3 2h2.9s7.5 8.5 22.6 0c0 0 7.2-2.6 13.1-10.8l40.9-.7s5.6 3.6 12.8 2.9c0 0 15.4 8.8 36-4.3 0 0 6.2-5.2 5.9-9.2 0 0 2.9-4.9-2-5.9l-1.3-3.6-2.3.7-.7-3.3s-9.8 1-15.1 5.9c0 0-1.6-6.6-6.6-6.6l-6.6-4.9v-4.3l-3.3.3-1.3-4.6h-2.6l-1.6-4.9-3.6-2.6-2.3-6.6-.3-5.2-.3-13.4-2.3-2 2-2.3-2-3.6v-6.2l-3.6-3.6-.3-4.3-5.9-8.2-1.3-4.6-2.3-3.3v-3.9l-2-2.9v-2.9l-3.6-4.9-1.3-4.6-4.6-5.9v-4.6l-4.3-4.6-.3-3.6-4.9-4.3v-2.3l-4.3-2.9 1.3-2.9-3.9-2.3 2.9-6.6-2-1.6 5.9-5.9h-3l1.3-3.6-2.4-4.1c.4-.1-69.8-5.4-75 7.6z"/><path class="st10" d="M446.3 438.6s18.1-9 36.1.3l14.5 14.3s5.6 8.9 4.8 17.8c0 0 .5 7.1-1.8 8.4 0 0 3.6 6.9 3.2 8.4l1.4 2.5-1.4 1v1.8h-2.7v2.5h-2.3s1.5 2.5 1.3 5.3c0 0-2-3.1-4.1-3.1 0 0 2.3 3.6 1.8 6.1 0 0-1.9-3.3-4.4-3.3v5.9s-.7-3.8-3-3.8c0 0-2.3 2.5-1.8 6.6 0 0-3.1-3.3-3.1-4.8 0 0-3.6 3.3-2.5 6.4 0 0-2.8-2.5-2.8-5.3 0 0-1.3 3.3-1 5.3 0 0-3.8-2-3.2-4.8 0 0-1.4 2-1.7 4.8 0 0-4.5-.5-3.9-3.6 0 0-2.7 2.8-2.7 3.6v-.8l-2.3-2.8s-2.6 2.2-2.4 3.8l-2.4-3.5-2 3.5-1-3.5-1.6 1.5-2.2-3.3-2 3.3-1.3-3.1-3.6 2.5-2.3-3.1-3.6 4.3-1-4.1-3.3 2.8s-1.8-3.8 0-4.8c0 0-3.3-1-3.8 1.8 0 0-.8-.8.5-2.8 0 0-2.8 0-4.3 3.1 0 0-1.3-2.3 0-6.1 0 0-5.7 1.3-5.3 2.8 0 0-2.7-2.3 0-4.1l-1.2-.8 2.7-2.3-2.7-.5 2.9-3.8s-1.3-3.3.3-6.4c0 0-.9-8.8 5.6-30.5"/><path class="st11" d="M459 454.7s3.8-1 8.1 0c0 0 6.1 4.8 0 9.7 0 0-4.1 4.3-8.1 0 0 0-8.1-4.4 0-9.7z"/><path class="st12" d="M461.3 451.9c-.8 0-1.6.1-2.3.2-.4.1-.8.2-1.1.3l-1.1.5-1 .6c-.3.2-.6.4-.9.7-.3.3-.6.5-.8.8l-.7.9-.5 1c-.2.3-.3.7-.4 1.1-.1.4-.3.7-.3 1.1l-.2 1.1c-.1.4-.1.8-.1 1.1 0 .4-.1.8-.1 1.1l.1 2.3v.1c0 .6.1 1.2.2 1.8.1.6.3 1.2.5 1.7s.5 1 .8 1.3c.2.2.3.3.5.4l.6.2h.7l.7-.1c.5-.1 1-.3 1.5-.6l1.5-.9c.2-.2.5-.3.8-.5l.7-.6.4-.3h.5c.4 0 .6 0 .8.1.3 0 .5.1.7.1.5.1.9.2 1.4.4.5.1.9.3 1.3.5s.8.4 1.3.7l1.2.8 1.1.9c.4.3.7.7 1 1 .3.3.6.7.9 1.1l-.2-.2h-.1l.1-.1.1-.2c.1-.1.2-.3.3-.5l.3-.6c.1-.2.2-.5.2-.7.2-.5.3-1 .4-1.5l.3-1.5c.1-.5.2-1 .2-1.6l.4-3.2v.1c-.1-.7-.2-1.5-.4-2.2-.2-.7-.4-1.4-.7-2.1-.1-.4-.3-.7-.5-1l-.5-1-.6-.9c-.2-.3-.4-.6-.7-.9l-.8-.8-.9-.7c-.3-.2-.7-.4-1-.5-.3-.2-.7-.3-1.1-.4-.4-.1-.7-.3-1.1-.3l-1.1-.1c-.4-.1-.8 0-1.2 0h-1.1zm0 0l1.2-.1c.4 0 .8-.1 1.2 0l1.2.1c.4 0 .8.2 1.1.3.4.1.8.2 1.1.4l1.1.5 1 .6.9.7.8.8.8.9c.2.3.5.6.7 1l.6 1c.4.7.7 1.4 1 2.2.3.8.5 1.5.7 2.3v.1l.1 3.3v1.7c-.1.6-.1 1.1-.1 1.7-.1.6-.1 1.1-.3 1.7l-.2.9-.3.9-.5.9c-.1.2-.2.3-.4.5l-.5.5c-.2.1-.5.3-.7.3-.3.1-.6.1-.9.1-.3 0-.6-.1-.8-.2-.3-.1-.4-.2-.8-.4l-.2-.2c-.5-.6-1-1.1-1.6-1.6l-.9-.7-.9-.6c-.6-.4-1.3-.7-2-.9l-1-.3c-.2 0-.4-.1-.5-.1-.2 0-.4 0-.4-.1l.9-.3c-.6.4-1.1.8-1.7 1.1-.6.4-1.2.7-1.9 1-.7.3-1.4.5-2.1.7-.4.1-.8.1-1.2.1-.4 0-.9-.1-1.3-.2s-.8-.3-1.2-.5c-.4-.3-.7-.6-1-.9-.5-.7-.8-1.4-1-2.1-.2-.7-.3-1.4-.3-2.1v-2.1.1l.2-2.4c.1-.4.2-.8.2-1.2.1-.4.1-.8.3-1.2l.4-1.1c.1-.4.3-.8.5-1.1l.5-1.1.7-1c.2-.3.5-.6.8-.9.2-.3.6-.5.9-.8.3-.3.6-.5 1-.7l1-.6c.3-.2.7-.3 1.1-.4.4-.1.8-.2 1.1-.3.1-.2.8-.2 1.6-.2z"/><path class="st13" d="M446.9 438.9s-12.8-12.7-21.2-4.8c0 0-8.1 7.5 5.1 20.2 0 0 .6-.6 3-1 0 0 2-3.9 3.4-6.2 0 0 1.3-4.9 3.8-4.2 0 0 2.5 1.1 3.3 0 0-.1.3-2.5 2.6-4zm35.6 0s5.9-11.7 17.3-5.3c0 0 9.4 4.3-2.8 19.6 0 0-9.7-7.2-14.5-14.3z"/><path class="st10" d="M463.9 685.2s-.9-3.4 4.8-6.5c0 0 1.9-7.3 9.2-10.4 0 0 2.4-3.1 4.3-.9 0 0 3.2-1.5 4.3.3 0 0 3.4-1.4 4.6 1.7 0 0 3.3-1.5 4.6.7 0 0 1.5 4.1-4.6 8 0 .1-18.8 17.7-27.2 7.1zm99.3-16.3s-12 .2-12.6 6.6c0 0 3.1 6.4 18 3.7 0 0 15.5-3.1 15.5-8.7 0 0-1.9-9.1-13-7.4 0 0-6.4.9-7.9 5.8z"/><path class="st13" d="M409.6 561.6l5-3.8.3-.2-.2.4-4.9 11.2-.5-.3c.8-.6 1.6-1.2 2.4-1.7.4-.3.9-.5 1.3-.7l.7-.3c.3-.1.5-.1.8-.1h.6l-.2.5c-.7 1.6-1.4 3.4-1.8 5.1-.2.9-.4 1.7-.5 2.6 0 .2-.1.4-.1.7v1.2l.1.6-.8-.3c.6-.6 1.2-1.1 1.8-1.6.3-.2.6-.5 1-.7.3-.2.7-.4 1.2-.6l.9-.3-.3 1-.3 1.2-.2 1.2c-.1.8-.1 1.7-.1 2.5s.1 1.7.2 2.5.3 1.6.5 2.4l-1.3-.1 3.2-7 1.6-3.5-.1 3.8c-.1 2.5-.1 5 0 7.5.1 1.2.2 2.5.4 3.7l.3 1.8.2.9.3.8-1.5-.2.7-1 .7-1.1c.4-.7.9-1.5 1.2-2.2.4-.8.7-1.6.9-2.3l.3-1.2.1-.6v-.6l.2-3.4 1.7 2.9 1.5 2.7-1.8.2 2-6.9.6-2.1 1.2 1.8 1.8 2.7h-1.8c.4-.6.8-1.3 1.2-2 .4-.7.7-1.4 1-2.1.3-.7.6-1.4.8-2.1.1-.2.1-.3.1-.5l.1-.5c.1-.3.1-.7.1-1h2.3v5.4l-1.9-1 4.2-2.9 1.4-.9.5 1.6 1.2 4-2.4.1 3-14.4 1.3-6.5 1.2 6.6.6 3c.2 1 .5 2 .8 3 .3 1 .6 1.9 1 2.8l.3.6.3.6.3.5.2.2.1.1-2 1.1c.1-2.2.2-4.3.4-6.4.2-2.1.5-4.3 1-6.5l.9-3.4 1.7 3.1c.2.4.4.8.7 1.2l.7 1.2c.5.8 1 1.5 1.6 2.2l.9 1 .9.9c.3.3.6.5 1 .7l.5.2c.1 0 .3 0 .4.1l-1.5 1.8c-.4-1.3-.7-2.5-1-3.8-.3-1.3-.5-2.6-.5-4.1l-.1-4 2.6 3 6.3 7.5-2.4 1.6c-.2-.3-.2-.5-.3-.7-.1-.2-.2-.4-.2-.6l-.3-1.3c-.1-.9-.2-1.7-.2-2.6 0-.8.1-1.7.3-2.5.1-.8.4-1.6.6-2.4l1.2-4.1 1.5 4.1 3 8.1-2.8.1.2-.7.2-.7.6-1.4c.2-.5.5-1 .8-1.4l.3-.4.3-.4.4-.4.6-.4 1-.5.7 1 .6.9c.2.3.4.6.5.9.4.6.7 1.2 1 1.9.2.3.3.7.4 1l.3 1.1.1.6.1.6v.7l-.1.7-2.2-1.6.3-.2.4-.3.7-.6c.5-.4.9-.8 1.3-1.2.4-.4.7-.9 1-1.4l.4-.7.3-.7.8-2.4 1.6 1.7c.2.2.3.3.4.5l.4.5c.2.3.5.6.7 1 .4.7.8 1.4 1 2.1.3.7.5 1.5.7 2.3l.2 1.2c0 .4 0 .8.1 1.2l-2.7-.8c.5-.9 1.1-1.8 1.5-2.7.2-.5.5-.9.6-1.4.1-.2.2-.4.2-.6 0-.1 0-.2.1-.3v-.1l1.5-3 1.2 2.3.6 1.2c.2.4.4.8.5 1.2.3.8.7 1.7.9 2.6.5 1.7 1 3.6 1 5.5l-.2-.7 3 4.8-2.5.6c.1-1 .2-2 .2-2.9v-2.2l.1.1 2.1-1.8c1.1 1 2.1 2.1 3.1 3.2l1.5 1.7c.2.3.5.6.7 1l.3.6c.1.1.1.2.2.4l.1.6-2.7-.1.3-4.7v-3c0 .1 0 .1.1.2.1.2.3.3.4.4l-.1-.1c.5-1.1-1.2 2.4 1.2-2.4h.1l.1.1.5.3.1.1.1.1c.3.2.4.4.6.6.2.2.3.4.5.5.3.4.6.7.8 1.1.5.8.9 1.6 1.3 2.4.2.4.4.8.5 1.3.2.4.3.9.4 1.3.2.9.4 1.8.5 2.6l-2.6.1c.1-.8.1-1.7.1-2.5v-2.6c0-1.7-.1-3.4-.3-5.1l-.3-2.5-.2-1.2-.3-1.2c-.2-.8-.4-1.6-.7-2.4-.1-.4-.3-.8-.4-1.1l-.5-1.1-4-9 6 7.7c1.3 1.6 2.5 3.2 3.6 4.9.6.8 1.1 1.7 1.7 2.6.3.4.5.9.8 1.4l.3.8.2.5.1.6-2.2-.1c.1-.9.1-1.9.1-2.9s0-1.9-.1-2.9c0-.5-.1-.9-.2-1.4l-.3-1.4c-.1-.5-.2-.9-.4-1.3l-.3-.6-.3-.5-2.2-3.2 3.4 1.6c.6.3 1.1.5 1.6.9.5.3 1 .6 1.6 1l.4.3c.1.1.3.2.4.4l.2.3.2.3c.1.2.2.8.1.8v.2h-1.9v-1.5.2c-.4-1.6-.8-3.1-1.3-4.7-.4-1.5-.9-3.1-1.5-4.5-.1-.3-.3-.7-.4-.8l.1.1c.1 0 .1.1.3.1h.3c.1 0 .1 0 .2-.1l.3-.3c.1-.1.1-.3.1-.3v-.3c.1.1.2.2.3.4l1.7 1.7 1.8 1.7c.3.3.6.6.9 1 .3.4.6.6.8 1.4l-1.6-.1c.4-1.5.8-3 1-4.5.1-.8.2-1.5.1-2.2 0-.4-.1-.7-.2-1l-.2-.3c0-.1-.1-.1-.1-.1l.6-1.3c1 .7 1.9 1.4 2.8 2.2.4.4.9.8 1.3 1.3.2.2.4.5.6.8.1.1.2.3.2.5l.2.6-1.2.2c-.3-1.8-.6-3.6-1.1-5.3-.2-.9-.5-1.7-.8-2.6l-.5-1.2c-.1-.2-.2-.4-.3-.5-.1-.2-.2-.2-.3-.3l-1.7-1.8 2 .9c1.1.5 2.2 1 3.2 1.5.5.3 1.1.5 1.6.9l.8.5c.1.1.2.2.4.3l.4.4-.7.4c-.6-1.2-1-2.4-1.4-3.7-.4-1.3-.7-2.5-.7-3.9v-.5l.5.3 9.9 6-.2.2-4.5-5.9 4.7 5.8.4.5-.6-.3-10.1-5.7.5-.3c0 1.2.3 2.5.7 3.7.4 1.2.9 2.4 1.4 3.5l.9 1.8-1.6-1.4c-.1-.1-.1-.2-.3-.2-.1-.1-.2-.2-.3-.2-.2-.2-.5-.3-.7-.4l-1.5-.8c-1-.5-2.1-1-3.2-1.4l.4-.9c.3.2.5.4.7.6.2.2.3.4.4.6.3.4.4.9.6 1.3.4.9.6 1.8.9 2.7.5 1.8.9 3.6 1.2 5.4l.8 4.6-2.1-4.4c0-.1 0-.2-.1-.3l-.2-.3c-.1-.2-.3-.4-.5-.6-.4-.4-.8-.8-1.2-1.1-.8-.7-1.8-1.4-2.7-2l-3.1-2.8 4.4 1.3c.3.1.7.3.9.5.2.2.4.5.5.7.2.5.3.9.3 1.4.1.9 0 1.7-.1 2.5-.2 1.6-.5 3.2-.9 4.8l-1.2 4.7-.3-4.7s-.2-.4-.5-.7c-.2-.3-.5-.6-.8-.8-.6-.6-1.1-1.1-1.7-1.6-.6-.5-1.2-1.1-1.8-1.7l-.5-.5-.2-.3v-.1c0-.1 0-.2-.1-.3v-.2s0-.2.1-.3c.1-.1.2-.3.3-.3l.2-.1c.4-.1.1 0 .2 0h.1c.2 0 .3.1.4.1.2.1.2.2.3.3.4.5.5.9.7 1.3.7 1.6 1.1 3.1 1.6 4.7s.9 3.1 1.3 4.7v1.7h-1.9v-.3l-.1-.1c0-.1-.1-.1-.2-.2l-.3-.2-1.3-.9c-.5-.3-1-.5-1.5-.7l1.2-1.6c.2.2.4.5.6.8l.4.8c.2.5.4 1 .5 1.6l.3 1.5c.1.5.2 1 .2 1.5.1 1 .2 2 .2 3.1v3.1l-.2 3.4-2-3.5v-.1l-.1-.2-.3-.6c-.2-.4-.4-.8-.7-1.2l-1.6-2.4c-1.1-1.6-2.4-3.2-3.6-4.7l2-1.3.6 1.3.5 1.3c.3.9.6 1.7.8 2.6l.3 1.3.3 1.3c.2.9.3 1.8.4 2.7.2 1.8.3 3.5.3 5.3v2.7l-.1 2.7-.8 10.6-1.7-10.6c-.1-.8-.3-1.6-.5-2.3-.1-.4-.2-.8-.4-1.1l-.4-1.1c-.3-.7-.7-1.4-1.1-2-.2-.3-.4-.6-.7-.9-.1-.1-.2-.3-.4-.4l-.3-.3.2.2-.5-.3-.1-.1h-.1c2.4-4.7.7-1.3 1.2-2.4l.1.1c.1.1.4.3.5.5l.2.3c.1.3.1.5.2.6 0 .2 0 .3.1.4 0 .2 0 .5.1.7v2.5c0 1.6-.1 3.2-.2 4.8l-2.7-.1v.1-.1c0-.1-.1-.2-.2-.3-.1-.2-.3-.5-.5-.8-.4-.5-.9-1-1.3-1.6-.9-1-1.9-2-2.9-3l2.1-1.8c.2.3.3.6.3.8.1.2.1.4.1.5l.1.9v1.6c0 1.1-.1 2.1-.2 3.1l-.4 3.9-2.1-3.3-3.1-4.8-.2-.3v-.4c0-.4 0-.8-.1-1.2 0-.4-.1-.8-.2-1.2l-.6-2.4c-.3-.8-.5-1.6-.9-2.3-.2-.4-.3-.8-.5-1.1-.2-.4-.4-.8-.5-1.1l2.7-.7c0 .2 0 .5-.1.7 0 .2-.1.4-.1.5l-.3.9c-.2.6-.5 1.1-.7 1.6-.5 1-1.1 2-1.6 2.9l-2.3 3.8-.3-4.6c0-.3 0-.6-.1-.9l-.1-.9c-.1-.6-.3-1.2-.5-1.8-.2-.6-.5-1.1-.8-1.7l-.5-.8-.3-.4-.3-.3 2.4-.7c-.1.4-.2.8-.4 1.2-.1.4-.3.7-.5 1.1-.4.7-.9 1.3-1.4 1.9-.5.6-1.1 1.1-1.6 1.5l-.9.7-.5.3-.5.3-2.3 1.4.1-3v-.9c0-.1 0-.2-.1-.4-.1-.5-.3-1.1-.6-1.6-.2-.5-.5-1.1-.8-1.6l-.5-.8-.5-.7 1.8.5-.1.1-.1.1-.1.2c-.2.3-.4.6-.6 1l-.5 1.2-.2.6-.2.6-1.3 4.2-1.5-4.1-3-8.1 2.8-.1c-.2.7-.4 1.4-.5 2.1-.1.7-.2 1.4-.2 2.1 0 .7 0 1.4.1 2l.2 1c0 .2.1.3.1.4 0 .1.1.3.1.3l4.5 9.8-6.9-8.2-6.3-7.5 2.5-.9c0 1.1.2 2.3.5 3.5.2 1.2.6 2.4.9 3.6l.6 2.1-2.1-.4-1-.2-.9-.4c-.5-.3-1-.6-1.4-1-.4-.3-.8-.7-1.2-1.1-.4-.4-.7-.8-1-1.2-.6-.8-1.2-1.6-1.8-2.5-.3-.4-.5-.8-.8-1.3-.3-.4-.5-.9-.7-1.3l2.5-.3c-.5 1.9-.8 4-1 6-.2 2.1-.3 4.2-.4 6.2l-.1 2.6-1.9-1.5c-.3-.2-.7-.5-.9-.8-.2-.3-.5-.5-.6-.8l-.5-.8-.4-.8c-.5-1-.8-2.1-1.1-3.1-.3-1-.6-2.1-.8-3.1l-.7-3.2h2.6l-3 14.4-1 5-1.4-4.8-1.2-4.1 1.9.7-4.2 2.8-1.9 1.3v-7.6h2.3c0 .5-.1 1-.2 1.4 0 .2-.1.4-.2.6l-.2.6c-.3.8-.6 1.6-.9 2.3-.4.8-.7 1.5-1.1 2.2-.4.7-.8 1.4-1.3 2.1l-.9 1.4-.9-1.4-1.8-2.7 1.9-.3-2.2 6.9-.7 2.2-1.1-2-1.5-2.7 1.8-.5v.7c0 .3-.1.5-.1.7l-.3 1.4c-.3.9-.6 1.8-1 2.6s-.9 1.6-1.4 2.4c-.2.4-.5.8-.8 1.1l-.8 1.1-1 1.2-.5-1.4-.3-1-.2-1-.3-1.9c-.2-1.3-.3-2.6-.3-3.9-.1-2.6-.1-5.1.1-7.7l1.5.4-3.4 6.9-.8 1.7-.5-1.8c-.2-.9-.4-1.8-.5-2.6-.1-.9-.1-1.8-.1-2.7 0-.9.1-1.8.2-2.6l.2-1.3.3-1.3.7.7c-.2.1-.6.2-.9.4l-.9.6c-.6.5-1.2 1-1.7 1.5l-.7.7-.1-.9-.1-.7v-.7c0-.2 0-.5.1-.7l.1-.7c.1-.9.4-1.8.6-2.7.5-1.8 1.2-3.5 2-5.2l.3.5c-.2 0-.4 0-.6.1l-.6.2c-.4.2-.8.4-1.3.6-.8.5-1.6 1-2.4 1.6l-1 .8.5-1.1 5.2-11 .2.1-5.5 3.8z"/><path class="st10" d="M514.1 542.4l4.6 5.8.1.2-.2-.1-10-5.8.2-.1c0 1.3.3 2.5.7 3.7.4 1.2.9 2.4 1.4 3.6l.5 1.1-.8-.9c-.3-.4-.9-.7-1.3-1-.5-.3-1-.6-1.5-.8-1-.5-2.1-1-3.2-1.4l.2-.4c.2.1.5.3.6.5.2.2.3.4.4.6.2.4.4.8.6 1.3l.9 2.6c.5 1.8.9 3.6 1.2 5.4l-.5.1-.3-.7c-.1-.2-.3-.4-.5-.7l-1.2-1.2-2.7-2.1-1.8-1.2 2.1.6c.2.1.5.2.7.4.2.2.3.4.4.6.2.4.2.8.3 1.3.1.8 0 1.6-.1 2.4-.2 1.6-.5 3.2-.9 4.7l-.4 1.4-.4-1.4c-.1-.2-.3-.6-.6-.9-.2-.3-.5-.6-.8-.9l-1.8-1.7c-.6-.5-1.2-1.1-1.8-1.7l-.4-.5-.1-.2s-.2-.4.2-.7c.1 0 .2-.1.3 0 0 0 .1 0 .2.1s.2.1.2.2c.3.4.5.8.6 1.2.6 1.5 1.1 3.1 1.6 4.7s.9 3.1 1.3 4.7v1.7h-1v-.6.1l-.1-.1c-.1-.2-.3-.4-.5-.5-.9-.7-1.9-1.2-2.9-1.7l.6-.8.5.7.4.7c.2.5.4 1 .5 1.5l.3 1.5.2 1.5c.2 2 .2 4 .1 6l-.2 3.7-.9-3.8c0-.2 0-.3-.1-.5l-.3-.6-.7-1.3-1.6-2.5-3.6-4.8 1-.7.6 1.2.5 1.2.8 2.5.3 1.3.3 1.3c.2.9.3 1.7.4 2.6.2 1.7.3 3.5.3 5.3 0 1.8 0 3.5-.1 5.3l-.4 5.6-.9-5.6c-.1-.8-.3-1.6-.5-2.4-.1-.4-.2-.8-.4-1.2-.1-.4-.3-.8-.4-1.1-.3-.7-.7-1.4-1.2-2.1l-.7-1c-.1-.2-.3-.3-.4-.4l-.4-.4.1.1-.5-.3-.1-.1h-.1c1.3-2.6.4-.7.6-1.3l.1.1.2.1.2.2.1.1v.4c0 .1 0 .2.1.3v3c0 1.6-.1 3.2-.2 4.8l-.1 1.6-1.4-1.7s0-.1-.1-.2c0-.1-.1-.2-.2-.4l-.6-.8c-.4-.5-.9-1.1-1.4-1.6-.9-1-2-2.1-3-3l1.2-1c.1.2.2.4.2.6l.1.5c0 .3.1.6.1.8v1.6c0 1-.1 2-.2 3.1l-.2 2.2-1.2-1.9-3.1-4.8-.1-.2v-.2c0-1.6-.4-3.3-.9-4.9l-.9-2.4c-.3-.8-.7-1.6-1.1-2.3l1.6-.4c0 .2 0 .4-.1.6l-.1.5c-.1.3-.2.6-.3.8l-.7 1.5c-.5 1-1 1.9-1.6 2.9l-1.4 2.3-.2-2.7c0-.3 0-.6-.1-1 0-.3-.1-.6-.1-1-.1-.6-.3-1.3-.6-1.9-.2-.6-.5-1.2-.9-1.7-.2-.3-.4-.5-.5-.8l-.3-.4-.3-.3 1.4-.4c-.1.4-.2.7-.4 1.1-.1.4-.3.7-.5 1-.4.6-.8 1.2-1.3 1.8-.5.5-1 1-1.6 1.5-.3.2-.6.4-.8.6l-.9.6-1.5.9.2-1.8v-1.2c0-.1 0-.3-.1-.4-.1-.6-.3-1.1-.6-1.7-.3-.6-.5-1.1-.9-1.7l-1-1.6 1 .3s-.1 0-.1.1l-.2.1-.3.4c-.2.3-.4.7-.6 1.1-.2.4-.4.8-.5 1.2-.2.4-.3.9-.4 1.3l-.8 2.6-.9-2.5-3-8.1h1.7c-.2.7-.4 1.4-.5 2.1-.1.7-.2 1.4-.2 2.1 0 .7 0 1.4.1 2.1l.2 1c0 .2.1.3.2.5l.2.4 3.6 7-5.1-6-6.3-7.5 1.6-.6c0 1.1.2 2.4.5 3.6l.9 3.6.4 1.4-1.4-.2-.9-.2-.8-.3c-.5-.3-.9-.6-1.3-.9-.4-.3-.8-.7-1.1-1.1-.4-.4-.7-.7-1-1.1l-1.8-2.4c-.5-.8-1-1.7-1.5-2.6l1.7-.2c-.5 2-.8 4-1 6.1-.2 2.1-.3 4.2-.4 6.3v1.9l-1.4-1.1c-.3-.2-.6-.5-.8-.7-.2-.2-.4-.5-.6-.8-.2-.3-.3-.5-.4-.8l-.4-.8c-.5-1-.8-2.1-1.1-3.1-.6-2.1-1.1-4.2-1.5-6.3h1.9l-3 14.4-.8 3.8-1.1-3.8-1.2-4.1 1.5.5-4.2 2.9-1.6 1.1v-7.3h2c0 .5-.1.9-.2 1.4l-.1.6c0 .2-.1.4-.2.6-.3.8-.6 1.6-.9 2.3-.3.7-.7 1.5-1.1 2.2-.4.7-.8 1.4-1.3 2.1l-.8 1.2-.8-1.2-1.8-2.7 1.8-.3-2.1 6.9-.7 2.2-1.1-2-1.5-2.7 1.8-.5v.7c0 .3-.1.5-.1.7l-.3 1.4c-.3.9-.6 1.8-1 2.6s-.9 1.6-1.4 2.4c-.2.4-.5.8-.8 1.1l-.8 1.1-1.1 1.3-.6-1.6-.4-1-.3-1c-.1-.7-.3-1.3-.3-1.9-.2-1.3-.3-2.6-.3-3.9-.1-2.6-.1-5.1 0-7.7l1.8.5-3.3 6.9-1.1 2.3-.6-2.4c-.2-.9-.4-1.8-.5-2.7-.1-.9-.2-1.8-.2-2.7 0-.9.1-1.8.2-2.7l.2-1.3.3-1.3 1.1 1.1-.3.1-.4.3-.9.6c-.6.5-1.2 1-1.7 1.5l-1.3 1.2-.2-1.7-.1-.8v-1.5l.1-.7c.1-1 .4-1.9.6-2.8l.9-2.7c.3-.9.7-1.7 1.1-2.6l.8 1.3h-.2l-.3.1-.6.2-1.2.6c-.4.2-.8.5-1.2.8-.4.3-.8.6-1.1.8l-3 2.4 1.6-3.5 5.1-11.1 1.3 1.1-5.1 3.7-1.3 2-.3-1.3c-.4-1.8-.8-3.6-1-5.4-.1-.9-.2-1.8-.2-2.8 0-.5 0-1 .2-1.5.1-.3.1-.6.3-.9.2-.3.5-.7 1-.8l-.2 1.6c-.4-.3-.5-.4-.7-.6-.2-.2-.3-.4-.4-.6-.1-.2-.2-.4-.2-.6l-.2-.6c-.2-.8-.2-1.7-.2-2.5s.1-1.6.2-2.4l.2-1.2.3-1.1.3-1.1.3-1.1c.2-.7.4-1.5.7-2.2l.8-2.2.8-2.1.9-2.1 1-2.1 1-2.1 1-2c.7-1.4 1.3-2.7 2.1-4.1l2.2-4 .2-.5.5.1c.3 0 .5.1.8.2l.7.2c.5.2.9.4 1.3.7l1.2.9c.2.2.4.3.5.5l.5.6c.3.4.6.8.8 1.2.1.2.3.4.3.7l.3.7c.2.4.3.9.4 1.4l.3 1.4-.5-.6h.8c.3 0 .6-.1.9-.2.6-.2 1.1-.5 1.5-.9l.4-.4.5.3.8.5.7.6c.4.4.8.9 1.1 1.4.2.3.3.5.4.8l.3.9.2.9c.1.3 0 .6 0 .9l-.7-.7c.2 0 .5 0 .8-.1.3 0 .6-.1.8-.1.5-.1 1.1-.3 1.6-.5.1 0 .2-.1.4-.2l.3-.2c.2-.1.4-.3.6-.5.1-.1.2-.2.2-.3l.2-.3.2-.3.1-.3.3-1 .7.6.6.5.5.6c.3.4.5.8.7 1.3.2.5.3 1 .3 1.5v.7l-.1.7-.4-.8.4.1.4.1h.8c.1 0 .2 0 .3-.1.1 0 .2-.1.2-.1.1-.1.1-.1.1-.2.1-.1.1-.2.1-.3l.6-1.3.6 1.1c.2.3.3.6.5 1l.4 1c.2.7.4 1.4.4 2.1v1.6c0 .2 0 .4-.1.5l-.3 1.1c-.1.4-.3.7-.5 1l-.2-.8h.1s.1 0 .1.1l.3.1h.7c.5-.1.9-.3 1.3-.6l.7-.5.2.8c.1.2.1.4.3.7.1.2.2.4.4.6.1.2.3.4.5.5l.3.2.3.2c.1.1.2.1.3.1l.3.1c.2 0 .4.1.7.1l.7-.1c.2-.1.5-.2.7-.2l.3-.1.2.2c.3.2.6.5.9.6.1.1.3.1.3.1h-.1c-.1 0-.1.1-.1.1l.3-.7.4.1c.6.2 1.1.4 1.6.6.5.2 1.1.5 1.6.9.3.2.5.3.7.5.2.2.5.4.7.7.1.1.2.2.3.4.1.1.2.3.2.4l.2.5.1.5-1.1-.1.2-.8.3-.7c.2-.5.5-.9 1-1.3.1-.1.2-.2.4-.3l.4-.2c.1-.1.3-.1.5-.1h.5c.3 0 .6.1.9.2.1 0 .3.1.4.2l.4.2-.4-.1c.8-.2 1.5-.3 2.3-.4.8-.1 1.6-.1 2.4-.1l.6.1.6.1c.2 0 .4.1.6.2l.6.3c.2.1.4.3.5.5l.4.6c.1.2.2.4.2.6l.1.7-.1-.3.6.6.3.2h.3l.1-.1.2-.3c.1-.1.1-.2.2-.4l.2-.4.1-.2.2-.1c.8-.2 1.5-.3 2.3-.3.2 0 .4 0 .6.1l.3.1c.1 0 .2.1.3.2l.3.2c.1.1.2.2.2.3.1.1.1.2.1.3l.1.3-.5-.4c.4-.1.9-.3 1.3-.6.4-.2.8-.5 1.1-.9l.4-.5c.1-.1.1-.2.1-.3l.1-.3c.1-.2.1-.4.1-.6 0-.2-.1-.4-.1-.7l-.1-1.4.8 1.1c.3.5.8.9 1.3 1.3.2.2.5.3.8.4.1.1.3.1.4.1l.4.1h.4c.1 0 .3 0 .4-.1l.4-.2c.1-.1.2-.2.3-.2l.6-.6c.2-.2.3-.5.5-.8l.2-.3.3.2c.7.6 1.5 1 2.4 1.2.2 0 .4.1.6 0 .1 0 .2 0 .3-.1l.3-.1.5-.4c.1-.1.2-.4.4-.5l.3-.6c.1-.2.2-.4.2-.7l.1-.7.1-.7.1-1.4v-1.7h.3c.7.1 1.4.1 2.1.3l1.1.3.5.3c.1.1.2.1.2.2l.2.3-.3-.2c.5-.3 1-.6 1.5-1l.6-.6c.2-.2.4-.5.5-.7.1-.3.3-.5.3-.8.1-.1.1-.3.1-.4 0-.1.1-.3 0-.4v-.4l-.1-.4c0-.3-.2-.6-.3-.8l-.1-.2h.2c.8-.1 1.6-.1 2.4 0 .4.1.8.2 1.1.5.2.1.3.3.4.5l.1.3.1.3h-.3c.5-.8.9-1.7 1.2-2.6.3-.9.6-1.8.6-2.8v-.3l.2.2 4.8 4.3.3 3.6 4.2 4.6-.5 5.1zm0 0v-4.6l-4.3-4.6-.3-3.6v.1l-4.9-4.2.2-.1c0 1-.3 2-.6 2.9-.3.9-.7 1.8-1.2 2.7l-.2.3-.1-.4-.1-.2-.1-.2c-.1-.1-.2-.3-.4-.4-.3-.2-.6-.3-1-.4-.7-.1-1.5-.1-2.3 0l.1-.3c.1.3.3.6.3.9l.1.5v1c0 .2 0 .3-.1.5-.1.3-.2.6-.4.9l-.6.8c-.2.2-.4.5-.7.7-.5.4-1 .8-1.6 1.1l-.1.1-.2-.2s0-.1-.1-.1l-.1-.1c-.1-.1-.3-.2-.4-.2-.3-.1-.6-.2-1-.3-.7-.1-1.4-.2-2-.3l.3-.3v2.8c0 .2 0 .5-.1.7l-.1.7c0 .2-.1.5-.2.7-.1.2-.1.5-.3.7-.1.2-.2.5-.4.7-.2.2-.4.4-.6.5l-.4.2-.4.1c-.3.1-.5 0-.8 0-.5-.1-1-.3-1.4-.5-.5-.2-.9-.5-1.3-.8l.5-.1c-.2.3-.4.6-.6.8-.2.2-.4.5-.7.7l-.4.3-.5.2c-.2.1-.4.1-.5.1-.2.1-.4 0-.5 0-.2 0-.4-.1-.5-.1-.2 0-.3-.1-.5-.2-.3-.1-.6-.3-.9-.5-.6-.4-1-.9-1.4-1.4l.7-.3.1.8c0 .3 0 .6-.1.8l-.1.4c0 .1-.1.3-.2.4-.1.3-.3.5-.5.7-.4.4-.8.7-1.3 1-.5.3-.9.5-1.5.7l-.4.1-.1-.5v-.2c0-.1 0-.1-.1-.2 0-.1-.1-.1-.1-.1l-.1-.1-.2-.1-.2-.1c-.1 0-.3-.1-.5-.1-.6 0-1.3.1-2 .3l.3-.3-.2.5c-.1.2-.2.3-.2.5-.1.2-.2.3-.4.5-.1.1-.2.2-.3.2-.1.1-.2.1-.4.1-.3.1-.5 0-.7 0l-.6-.3c-.3-.2-.6-.5-.8-.8l-.1-.1v-.2l-.1-.5c0-.2-.1-.3-.1-.4 0-.1-.1-.3-.2-.4l-.3-.3c-.1-.1-.2-.2-.4-.2-.1-.1-.3-.1-.5-.2l-.5-.1-.5-.1c-1.4-.1-2.9.1-4.3.5l-.2.1h-.2l-.3-.1-.3-.1c-.2-.1-.4-.1-.5-.1h-.3c-.1 0-.2 0-.2.1-.1 0-.2.1-.2.1-.1.1-.2.1-.2.2-.3.2-.5.6-.7 1-.2.4-.4.8-.5 1.2l-.7 2.8-.4-2.9v-.3l-.1-.3c0-.1-.1-.2-.2-.3 0-.1-.1-.2-.2-.3-.1-.2-.3-.4-.5-.5l-.6-.5c-.4-.3-.9-.5-1.4-.8l-1.5-.6.7-.5v.3l-.1.3c0 .1-.2.2-.3.3-.1.1-.3.1-.4.1-.4 0-.6-.1-.9-.3-.4-.2-.8-.5-1.1-.8l.6.1-.9.3-.9.1c-.3 0-.6 0-1-.1l-.5-.1c-.2 0-.3-.1-.5-.2l-.4-.3-.4-.3-.6-.7-.5-.8c-.1-.3-.2-.5-.3-.9l.9.3c-.5.4-1.1.7-1.8.8-.3.1-.7.1-1.1 0-.2 0-.4-.1-.5-.1l-.3-.1c-.1 0-.2-.1-.3-.2l-.4-.3.2-.5.4-.8c.1-.3.2-.6.2-.9 0-.1 0-.3.1-.4v-1.4c-.1-.6-.2-1.2-.4-1.8l-.3-.9c-.1-.3-.3-.6-.4-.8l1.2-.2-.2.6-.4.6c-.2.2-.4.3-.6.4l-.6.2c-.4.1-.8.1-1.1 0-.2 0-.4-.1-.5-.1l-.5-.1-.5-.2.1-.6c0-.2.1-.4.1-.5v-.5c0-.4-.1-.7-.2-1.1-.1-.3-.3-.7-.5-1-.1-.2-.2-.3-.4-.4l-.4-.4 1-.4-.2.5-.2.5c-.1.2-.2.3-.3.4-.1.1-.2.3-.4.4-.3.2-.5.5-.8.6-.1.1-.3.2-.4.2-.1.1-.3.2-.4.2-.6.3-1.2.4-1.8.6l-.9.2c-.3 0-.6.1-1 .1h-.6l-.1-.7v-.7l-.1-.7-.3-.7c-.1-.2-.2-.4-.4-.6-.3-.4-.6-.8-1-1.1l-.6-.5c-.2-.2-.4-.3-.6-.4l.9-.1c-.6.6-1.3 1-2.1 1.3-.4.1-.8.2-1.2.2h-.9c-.1 0-.2 0-.3-.1l-.4-.1-.1-.5c-.1-.4-.2-.8-.3-1.3-.1-.4-.2-.8-.4-1.2l-.2-.6-.3-.6c-.2-.4-.4-.7-.7-1l-.4-.5c-.1-.2-.3-.3-.4-.4-.3-.3-.6-.5-1-.7-.3-.2-.7-.4-1.1-.5l-.6-.2c-.2-.1-.4-.1-.5-.1l.7-.4-2.1 4c-.7 1.3-1.4 2.7-2 4l-1 2-1 2.2-.9 2.1-.8 2.1c-.3.7-.6 1.4-.8 2.1l-.7 2.1-.7 2.1-.3 1.1-.2 1.1-.2 1.1-.2 1.1c-.1.7-.2 1.4-.2 2.2 0 .7 0 1.4.2 2.1l.3.9.2.4.1.2-.2 1.6c.1 0 .1-.1 0 0 0 .1-.1.2-.1.4-.1.3-.1.7-.1 1.2 0 .8.1 1.7.2 2.6.2 1.7.6 3.5 1 5.2l-1.4-.5 5.1-3.7 2.7-1.9-1.4 3-5.1 11.1-1.4-1.1 1.2-.9c.4-.3.8-.6 1.3-.8.4-.3.9-.5 1.4-.7.2-.1.5-.2.8-.3l.4-.1h.5l1.5-.1-.6 1.4c-.4.8-.7 1.6-1 2.5-.3.8-.6 1.7-.8 2.5l-.6 2.5-.1.6v1.2l.1.6-1.5-.5c.6-.6 1.2-1.1 1.8-1.6l1-.7c.4-.2.7-.5 1.3-.6l1.5-.4-.4 1.6-.3 1.2-.2 1.2c-.1.8-.2 1.6-.2 2.5 0 .8 0 1.6.1 2.5.1.8.3 1.6.5 2.4l-1.7-.1 3.3-6.9 2-4.2-.2 4.6c-.1 2.5-.1 5 0 7.5l.3 3.7.3 1.8.2.9.3.8-1.6-.2c.2-.3.5-.7.8-1 .2-.3.5-.7.7-1.1.5-.7.9-1.5 1.2-2.2.4-.8.7-1.5.9-2.3l.3-1.2.1-.6v-.6l.2-3.4 1.6 2.9 1.5 2.7-1.8.2 2.1-6.9.6-2 1.2 1.7 1.8 2.7h-1.6c.4-.6.8-1.3 1.2-2 .4-.7.7-1.4 1-2.1.3-.7.6-1.4.8-2.1.1-.2.1-.4.1-.5 0-.2.1-.4.1-.5.1-.3.1-.7.1-1h2v5.4l-1.6-.8 4.2-2.8 1.1-.8.4 1.3 1.2 4.1-1.9-.6 3-14.4 1-4.8.9 4.9c.4 2 .8 4.1 1.4 6.1.3 1 .6 2 1 2.9.1.2.2.4.3.7l.3.6c.1.2.3.4.4.5.1.2.3.2.4.3l-1.4.8c.1-2.2.2-4.3.4-6.4.2-2.1.5-4.3 1-6.4l.6-2.3 1.1 2.1c.4.8.9 1.6 1.4 2.4l1.6 2.3c.3.4.6.7.9 1 .3.3.6.6 1 .9.3.3.7.5 1 .7l.5.2.5.1-1 1.2c-.4-1.3-.7-2.5-1-3.8-.3-1.3-.5-2.6-.5-4v-2.6l1.7 2 6.3 7.5-1.5 1-.3-.7-.2-.6-.3-1.2c-.1-.8-.2-1.6-.2-2.5 0-.8.1-1.6.3-2.4.1-.8.3-1.6.6-2.3l.8-2.6.9 2.5 3 8.1-1.7.1c.1-.5.3-.9.5-1.4l.6-1.4c.2-.5.5-.9.8-1.3.2-.2.3-.4.5-.7.1-.1.2-.2.4-.3.1-.1.3-.2.5-.3l.6-.3.4.6c.4.6.8 1.1 1.1 1.7.3.6.7 1.2.9 1.8.3.6.5 1.3.7 2 0 .2.1.4.1.5l.1.6v.6l-.1.6-1.3-.9c.2-.1.5-.3.8-.5l.8-.6c.5-.4 1-.8 1.4-1.3.4-.5.8-1 1.1-1.5l.4-.8.3-.8.5-1.4 1 1c.2.2.3.3.4.5l.4.4.6.9c.4.6.7 1.3 1 2 .3.7.5 1.4.6 2.2l.2 1.1c0 .4 0 .8.1 1.1l-1.6-.5c.5-.9 1.1-1.8 1.6-2.8l.7-1.4c.1-.2.2-.5.2-.7l.1-.3v-.2l.6-2.3 1 1.9c.4.8.8 1.6 1.1 2.4l.9 2.5c.5 1.7.9 3.5 1 5.3l-.1-.4 3 4.8-1.5.3c.1-1 .2-2 .2-3v-2.6l.7-1.4.5.4c1.1 1 2.1 2 3 3.1.5.5 1 1.1 1.4 1.7.2.3.4.6.7 1 .1.2.2.3.3.6.1.2.2.5.2.8l-1.5-.1.3-4.7v-3.1.1l.1.1s.3.2.1.1l-.1-.1c.3-.6-.6 1.3.6-1.3h.1l.1.1.5.3h.2c.2.2.4.3.5.5.2.2.3.3.4.5.3.3.5.7.8 1.1.5.7.9 1.5 1.3 2.3l.5 1.2c.2.4.3.8.4 1.3.2.8.4 1.7.5 2.6h-1.3c.1-1.7.2-3.4.2-5.1 0-1.7-.1-3.4-.3-5.1-.1-.8-.2-1.7-.4-2.5-.1-.4-.1-.8-.2-1.3l-.3-1.2c-.2-.8-.4-1.6-.7-2.4l-.5-1.2-.5-1.1-2.1-4.6 3.1 3.9c1.3 1.6 2.5 3.2 3.6 4.9.6.8 1.1 1.7 1.7 2.6.3.4.5.9.8 1.4l.3.7c.1.2.2.6.2.9h-1.1c.1-1.9.1-3.9-.1-5.9 0-.5-.1-1-.2-1.4-.1-.5-.2-1-.3-1.4-.1-.5-.3-.9-.4-1.3l-.3-.6-.4-.5-1.2-1.7 1.8.9c1.1.5 2.1 1.1 3.1 1.8.2.2.5.4.7.7l.2.2.2.3.1.2v.5h-1v-1.5.1c-.4-1.6-.8-3.1-1.3-4.7s-.9-3.1-1.5-4.6c-.1-.3-.3-.7-.5-1h.3c.3-.2.1-.5.2-.4v.1c.1.1.2.3.4.4l1.8 1.7 1.8 1.7c.3.3.6.6.8.9.3.3.5.6.7 1.2h-.7c.4-1.5.8-3.1 1-4.6.1-.8.2-1.6.1-2.3 0-.7-.3-1.6-.8-1.7l.3-.6c1 .7 1.9 1.4 2.8 2.1.4.4.9.8 1.2 1.3.4.5.8.9.9 1.6l-.5.1c-.3-1.8-.6-3.6-1.1-5.3-.2-.9-.5-1.8-.8-2.6-.2-.4-.3-.8-.6-1.2-.1-.2-.2-.4-.4-.5-.1-.2-.3-.3-.4-.4l-1-.9 1.2.5c1.1.5 2.2.9 3.2 1.5.5.3 1 .5 1.6.8.3.2.5.3.7.5.1.1.2.2.4.3l.3.3-.3.2c-.6-1.2-1-2.4-1.4-3.6-.4-1.2-.7-2.5-.7-3.8v-.2l.2.1 10 5.9-.1.1-4.8-5.9z"/><path class="st14" d="M469.9 473.5c-9.2 10.1-14.5-2-14.5-2"/><path class="st12" d="M447.4 442.4c1.1-.4 2.3-.6 3.6-.7h.9c.2 0 .3 0 .5.1.2 0 .3 0 .5.1.3.1.7.2 1 .4.2.1.4.2.5.4l.5.5-1.8.1.1-.3.1-.2.3-.5c.1-.2.3-.3.5-.5.2-.1.5-.3.9-.3s.8.1 1 .2c.1.1.3.2.4.2l.3.3.4.5.3.5-2.3-.1c.2-.3.3-.4.4-.6.1-.2.3-.3.5-.5s.4-.3.6-.4l.7-.3c.5-.1 1-.1 1.5 0l.7.2.6.3c.2.1.4.2.5.3.2.1.4.2.5.3.3.2.6.5.8.7l.7.8.7.8-2.5.3.3-.5.3-.5c.2-.3.4-.6.7-.9.3-.3.6-.6 1-.9l.3-.2c.1-.1.2-.1.4-.2.3-.1.6-.2 1-.2l-.5.1.4-.1.3-.1c.2 0 .4-.1.7-.1h1.5c.3 0 .5.1.8.2.3.1.5.3.8.5.1.1.2.2.4.3l.3.4c.2.3.2.6.3.9l-1.6-.6c.3-.2.6-.3.9-.4l.9-.3c.6-.2 1.3-.3 1.9-.4.3 0 .6-.1 1-.1h1c.3.1.6.1 1 .2l.9.3c-.3 0-.6 0-.9.1-.3 0-.6.1-.9.2-.6.2-1.1.3-1.7.6-.5.2-1.1.5-1.6.8-.3.1-.5.3-.7.5l-.7.5-.5.4-1.1-1.1c-.1-.1-.1-.1-.1-.2h-.7c-.2 0-.5 0-.8.1l-.4.1-.2.1-.2.1-.5.1h.1-.1l-.4.4-.4.6-.2.3-.2.3-1 2.1-1.5-1.8-.6-.6-.6-.6-.6-.5-.3-.2-.3-.2-.3-.1c-.1 0-.2 0-.2-.1h-.6c-.1 0-.1 0-.2.1l-.2.1c-.1 0-.1.1-.1.1l-2.3-.1-.1-.2-.1-.2h.2c.1 0 .1-.1.1-.1h-.1c-.1 0-.1.1-.2.2l-.1.1-.1.1-1.6.3-.2-.3s-.1-.1-.1-.2l-.2-.2c-.2-.1-.3-.3-.6-.4l-.3-.2c-.1-.1-.2-.1-.4-.1-.3-.1-.5-.2-.8-.2-.4-.4-1.6-.6-2.8-.7z"/><path class="st15" d="M463.9 673.8s2.9-4.9 6.5-4.5c0 0 3-3.7 6.4-3.7 0 0 4.5-4.2 7-2.3 0 0 1.7-1.2 4.1 1.1 0 0 2.2-1.1 4.3 1 0 0 5-1.6 2.8 7.3"/><path class="st10" d="M460.4 574.7l4 8.6.2.5h-.5l-1.8.1.3-.6c3.1 4.5 6.2 9.1 9.2 13.6l9.1 13.7 1.1 1.7h-3.9l.8-2 8.4 8 .2.2.1.2c.1.3.2.5.3.7.1.2.1.4.2.7.1.5.2.9.2 1.4 0 .5 0 1-.1 1.6-.1.3-.1.6-.3.8-.1.3-.3.5-.5.8l-.3-1.9c.2.1.3.2.4.4l.4.4c.3.2.5.5.8.8.5.5 1 1.1 1.4 1.8l.3.5.3.5c.2.4.3.8.4 1.2.1.2.1.4.1.7v.7c0 .2 0 .5-.1.7l-.2.7.1-.4c-.1.5-.1.9-.3 1.4-.1.4-.2.9-.4 1.3l-.5 1.2c-.2.4-.4.8-.7 1.2-.3.4-.5.8-.8 1.1l-.9 1-1.1.9-1.2.7c-.4.2-.8.4-1.3.6-.4.2-.9.3-1.3.4-.4.1-.9.3-1.3.3l-1.2.1c-.4.1-.9 0-1.3 0h-1.3l-2.5-.3h-.2l-.3-.2-13.4-8.1 2-.6-1.3 2.3-1.1 2-1.3-1.9-3.2-4.5 2.1.2-2.8 2.5-1 1-.9-1-2.5-2.8 1.9.1-2.4 1.9-1.3 1-.8-1.4-3.6-6.8-.4-.9-.2-.4-.2-.4-.9-1.7-1.9-3.4 1.6.4-1.7 1-1 .6-.6-1-4.6-8.2h1.7l-.9 1.5-.8 1.3-.8-1.2-5-7.1 1.4-.4-.1 2.4-.1 2.4-1.2-2-4.7-8.1.7.1-1.3 1.5-.5.5-.1-.7c-.7-3.2-1.3-6.4-1.9-9.6l2.6 9.5-.6-.1 1.2-1.5.3-.4.3.5 5.1 7.8-1.3.4-.1-2.4-.1-2.3 1.4 1.9 5.3 6.9-1.6.1.8-1.5.8-1.5.9 1.5 4.8 8-1.6-.4 1.7-1.1 1-.6.6 1 2 3.3 1 1.6.5.9.5.8 3.7 6.7-2-.4 2.3-1.9 1-.8.9.9 2.6 2.7-2-.1 2.8-2.6 1.2-1.1 1 1.3 3.2 4.5-2.5.1 1.3-2.3.7-1.3 1.3.8 13.5 8.1-.5-.2 2.2.3h2.2l1.1-.1c.4 0 .7-.2 1-.2l1-.3.9-.4.9-.5.8-.6c.3-.2.5-.5.7-.7l.6-.8.5-.9c.1-.3.3-.6.4-1l.3-1c.1-.3.2-.7.2-1l.1-.4c0-.1 0-.2.1-.3v-.9l-.1-.3-.1-.3c0-.1-.1-.2-.2-.3l-.2-.3c-.3-.5-.6-.9-1-1.3l-.6-.6-.3-.3-.3-.3-.9-.7.6-1.2c0-.1.1-.1.1-.3.1-.1.1-.2.1-.3.1-.2.1-.5.1-.9 0-.3-.1-.6-.1-1l-.1-.5c0-.2-.1-.3-.2-.5l.3.4c-2.8-2.7-5.5-5.5-8.2-8.2l-2-2h4.6l-1 1.7-8.6-14c-2.9-4.7-5.6-9.4-8.4-14.1l-.4-.6h.7l1.8.1-.3.5c-1-3.1-2.1-6.1-3.2-9zm35.3 10.8l3.5 11.4h-2.8l2.8 4.4h-1.7l4.3 5.9h-1.9l4.6 4.8h-2.1l3 4.1 1.5 2.1 6.6 8.3h8.1l-6.8-8.3-.4 3.6-2-1.7-.4 1.9-3.3-2.7v-6.6l-1.6 2.3"/><path class="st10" d="M522.7 629.9l7.2 3.9c1.5 1 3 1.8 4.6 2.5 1.6.7 3.2 1.3 4.9 1.4.4 0 .8.1 1.2 0 .2 0 .4 0 .6-.1.2 0 .4-.1.5-.1.2 0 .3-.1.5-.2l.5-.3c.2-.1.3-.2.4-.3.1-.1.3-.2.4-.4l.6-.9.4-1.1c.1-.4.2-.8.2-1.2.1-.4.1-.8.1-1.2l.4.9-1.7-1.2-.3-.2-.1-.3-2.4-6.5-.1-.2v-.2l-.5-9.3-.4-9.3.5 1-2.3-2-1.1-.9 1-1.1 2-2.3.4 2.2-5.7-3.2h-.1l-.1-.1-6-4.5.9.3h-1.8l-.4-.3-5.3-4.3 2.3-.9-1.1 6.6-1.3-1.6h4.1l-1.3 2-1.7 2.8-.4.7-.8-.1-3-.3 1.3-1.1-1 7.4v-.1c0 2.7-.1 5.3-.2 8l-.9-.9 2.1.1h.5l.2.4 1.6 2.5-1.4.2.9-2.4 1.3-3.4.1 3.6.1 8.2v.1l-1.5 4.2v-.1l1.1 3.6zm0 0l-1.2-3.4v-.1l1.1-4.3v.1l-.7-8.2 1.4.2-.8 2.5-.5 1.5-.9-1.3-1.8-2.4.7.4-2.1.1h-.9v-.9l-.2-8v-.1l.7-7.5.1-1.2 1.2.1 3 .2-1.2.6 1.7-2.8 1.1 2h-3.3l.2-1.6 1-6.6.4-2.4 2 1.5 5.3 4.2-.9-.3h1.8l.4.3 6 4.5-.2-.1 5.6 3.2 1.6.9-1.2 1.3-2 2.3-.2-2.1 2.3 2 .5.4v.6c.1 3.1.2 6.2.2 9.3l.2 9.3-.1-.4 2.2 6.6-.4-.5 1.7 1.3.5.4-.1.6-.2 1.4c-.1.5-.2.9-.4 1.4-.1.5-.4.9-.6 1.4-.3.4-.5.9-.9 1.3l-.6.6c-.2.2-.4.3-.7.5l-.7.4c-.2.1-.5.2-.7.2-.3.1-.5.1-.8.1l-.8.1c-.5 0-1 0-1.5-.1-1-.1-1.9-.4-2.7-.7-.9-.3-1.7-.7-2.5-1.1-1.6-.9-3.1-1.8-4.5-3-2.1-1.6-4.4-3.1-6.6-4.7zm-57.5-53.7v4.2l2.9-1 1.5 3h2.9l2.3 3.1h3.1v10.1l-.4 7.7h1.6v3.9l3 1.4v6.6l4.3 4.1v-5.3l-1.7-2 .3-1.9-2.1-6 .3-5.3-.6-6.3.9-4.8-1.4-2.2 3.1-1.5-6.1-11.2-1.2 4.4v4.7l-2.1-1.5v2.2l-5.1-4.9-.6 2.3zm-50 46.1s18.8 1.1 23.2-3c0 0-4.9 6.2-23.2 3z"/><path class="st16" d="M446.3 535.6l3.6 4.1h-.4l1.6-1.4.2-.2.2.2 2.8 2.3-.3-.1 2.7-.1h.3l.2.2 4.5 5.5-1.2.8c-.2-.3-.3-.6-.4-.9l-.3-.9c-.2-.6-.4-1.3-.4-2v-1c0-.4.1-.7.2-1.1 0-.2.1-.4.2-.5.1-.2.1-.4.2-.5.1-.2.2-.4.3-.5l.4-.5.8-1 .6 1.2 1.7 3.6-1.6-.2 2.7-3.7 1.1-1.6.6 1.9.9 3-1.4-.6 2.7-1.4.5-.3.5.4c.2.1.3.2.4.3l.3.3.6.7c.3.5.6 1.1.8 1.6.1.3.2.6.2.9l.1.9c0 .3 0 .6-.1.9 0 .3-.1.6-.2.9l-1.4-1.1c.1 0 .2-.1.3-.2l.3-.3.6-.6c.4-.4.7-.9.9-1.5l.3-.8.2-.9c.1-.6.1-1.2.1-1.8v-3.1l1.8 2.5 3.5 5-1.2-.2c.2-.1.4-.2.6-.4l.6-.4c.4-.3.7-.6 1-1 .1-.2.3-.4.4-.5.1-.2.2-.4.2-.5 0-.1 0-.2.1-.3v-.6l-.1-.3-.5-2.3 1.7 1.5 3.6 3.1-.9.1 2.4-2.9.3-.3.4.1c1.3.5 2.6 1 3.8 1.6l-.5.2c.7-1.3 1.4-2.8 1.7-4.3.1-.4.1-.8.1-1.1v-.6c0-.2 0-.4-.1-.6 0-.2-.1-.4-.2-.5-.1-.2-.1-.4-.3-.5-.1-.1-.2-.3-.4-.4l-.5-.4.5.3c.2.1.3.3.4.4.2.1.2.3.4.5l.3.6.2.6.1.6v1.2c-.1.8-.3 1.6-.5 2.4-.2.8-.5 1.5-.9 2.3l-.1.3-.4-.1c-1.3-.4-2.6-.8-3.9-1.3l.6-.2-2.3 3.1-.4.5-.5-.4-3.8-2.9 1.2-.9.1.5.1.5v.5c0 .2 0 .3-.1.5l-.3.9c-.1.3-.3.5-.5.8-.3.5-.7.9-1.1 1.3-.2.2-.4.4-.6.5-.2.2-.4.3-.7.5l-.7.4-.5-.7-3.6-4.9 1.7-.6c0 .7 0 1.5-.1 2.2l-.2 1.1c-.1.4-.2.7-.4 1.1-.3.7-.7 1.4-1.2 1.9-.2.3-.5.6-.8.8l-.5.4c-.2.1-.3.2-.6.3l-1.8 1 .4-2.1.1-.6c0-.2.1-.4 0-.6v-.6l-.1-.6c-.1-.4-.3-.8-.5-1.1-.1-.2-.2-.3-.4-.5-.1-.1-.1-.2-.2-.2-.1-.1-.2-.1-.2-.2l1 .1-2.7 1.4-1 .5-.3-1.1-.9-3 1.7.3-2.7 3.6-.9 1.3-.6-1.4-1.7-3.7 1.4.3-.2.3-.2.3-.2.3-.1.3c-.1.2-.1.5-.1.8v.8c0 .6.1 1.1.3 1.7.1.3.2.6.3.8.1.3.2.6.3.8l3.1 6.6-4.3-5.8-4.2-5.7.4.2-2.7-.1h-.2l-.1-.1-2.6-2.5h.4l-1.7 1.2-.2.1-.1-.2c-1.7-1.5-2.7-3-3.8-4.5z"/><path class="st11" d="M446.3 453.2s0-.2.1-.6c.1-.4.3-.9.6-1.5s.8-1.2 1.5-1.7c.3-.3.7-.5 1.1-.8.4-.2.9-.4 1.4-.5.5-.1 1-.2 1.5-.1.3 0 .5 0 .8.1l.7.2c.5.1.8.4 1.2.7.4.2.6.5.8.8.2.3.4.5.5.8l.3.7c.1.4.2.6.2.6s-.2-.1-.6-.2l-.6-.2c-.2-.1-.5-.1-.8-.2-.3-.1-.5-.2-.8-.2-.3 0-.6-.1-.8-.1h-.8c-.3 0-.6.1-.8.1-1.1.3-2.4.9-3.5 1.3-.6.3-1 .5-1.4.6-.4.1-.6.2-.6.2zm23-.8v-.7c0-.4.1-1 .4-1.7.2-.3.3-.7.6-1.1.2-.4.6-.7.9-1.1.2-.2.4-.3.7-.5l.4-.2.4-.2c.3-.1.6-.2.9-.2h.9c.3 0 .6.1.9.2.3.1.6.2.8.3.5.2 1 .5 1.3.9.3.3.7.6.9 1l.6 1c.2.3.3.6.4.9.1.3.2.5.2.7.1.4.1.6.1.6l-.6-.3c-.2-.1-.4-.2-.6-.4-.2-.1-.5-.3-.8-.5-.3-.2-.6-.3-.8-.5l-.9-.5-.9-.4c-.1-.1-.3-.1-.4-.1l-.4-.1c-.2 0-.5 0-.7.1-.1 0-.3 0-.4.1-.1.1-.3.1-.4.1-.3.1-.6.3-.8.4l-.8.5-.7.5c-.2.2-.4.3-.6.4-.4.7-.6.8-.6.8zm-19.4 1.8s2.6-3.5 4.5-1.1c0 .1-2.8-.1-4.5 1.1zm20.5-1s3.3-3.3 6.6.1c0 0-3.5-.8-6.6-.1z"/><path class="st12" d="M470.4 455.1s4.3 1.8 8.4 0c0 0-5 2.5-8.4 0zm-21.9.6s2.3 1.7 5 0c0 0-3.3.5-5 0z"/><path class="st17" d="M436.6 462.8l.6 3.5s1.3-.6 1.3-1.7c0 0 1.2 3.7.7 5.4 0 0 3.1-1.2 3.1-2.7 0 0 1.1 1.7.6 2.7 0 0 1.8-1.1 1.8-1.9 0 0 .7 3.7 1.5 4.9 0 0 1.4 1.2 1.1 3 0 0 1.7-1.3 1.7-2.2 0 0 1.5 2.8.7 6.3 0 0 2.7-.9 2.7-2.5 0 0 1.4 3.1.9 5.1 0 0 1.8-2.2 2-3 0 0 2.7 3.5 1.7 5.7 0 0 2.9-4.2 4.6.7 0 0 .9 3.1 3.2 3.1 0 0-1.8-4.2 1.3-5.3 0 0 1.9.6 1.9 1.4 0 0 .3-3 1.8-3.5 0 0 1.6-1.2 1.6-2.8 0 0 3 .1 2.9 1.7 0 0-.2-2.7 1.5-3.1 0 0 1.7-3.1.4-3.8 0 0 0-4.6 1.4-2.9 0 0-1.2-3 0-3.5 0 0 .6-2.9 2.4-1.9 0 0 1.6-.1 1.6 1.4 0 0 1.9-2.9.7-3.4 0 0 1.8-.1 1.8.5 0 0 1.2-1.2.8-2.4"/><path class="st11" d="M433.9 450.3s-3.3-5.1-.1-7.5c0 0-.7-2.5 2.3-4.1 0 0 4.4-.8 8.2 4.1l-9.5 8.4-.9-.9zm51.8-7.8s11.1-10.9 7.4 7.2c0 0-7.4-4.7-7.4-7.2z"/><path class="st17" d="M431.4 482.1s2.5 1.1 2.5 2.9c0 0 1.4 1.6 2.2.7 0 0 2.2 2.1 1.9 3.4 0 0 2.7 1.3 3.3 0 0 0 3 2.7 2.1 4.3 0 0 1.8 1.7 3.5.9 0 0 3 .6 1.3 3.1 0 0 5.2-.2 5.3-1.7 0 0 1.8-.6 1.9 1.2 0 0 2.4 0 2.4-1.2 0 0 3 .1 3.1 1.7 0 0 2.4-.1 2.4-1.2m0 2.5s4.7 0 4.7 2.9c0 0 4.3-3.1 7.2-1.4 0 0 .8-3.6 2.8-3.6 0 0 1.4-3.6 4.1-2.1 0 0-.5-4.4 1.3-3.3 0 0 1.6-3.1 3.4-1.4 0 0 1.4-3 3.8-3 0 0 2.9-2.1 2.9-3.7 0 0 3-3 2.1-4.5"/><path class="st13" d="M408.2 652.6s4.3 1.8 10.8-1.4c0 0-5.5 5.1-10.8 1.4z"/><path class="st10" d="M416.7 632.3s4.6 2.5 13.1 0c0 0-6.9 1.8-13.1 0z"/><path class="st14" d="M487.9 662.9l-1.5-3.7 1.5-2.3-.7-4.3 3.8-1.4-1.2-5.3v-8.8l-1.1-3.4"/><path class="st10" d="M533.1 652.6s8.2 6.2 2.3 18.9c0-.1 10-11.2-2.3-18.9z"/><path class="st13" d="M549.1 672.1s5.7-1.5 7.1-3.5c0 0 6.9.7 5.7-5.6 0 0-.2 5.4-6.3 4.4 0-.1-.8 1.7-6.5 4.7z"/><path class="st10" d="M449 642.2s2.8-4.6 6.6-4.4c0 0-3.4-3.1-6.6 4.4zm-40.8-67.9s-.7 4.2.6 6.2c0 0-.5-3.8.7-4.1 0 0 2.3-2 1-3.6 0 0-1.4-.4-2.3 1.5zm18.5-58.5c.5.2 1 .5 1.5.8.5.3.9.7 1.3 1.2.2.2.3.5.5.8l.2.4c.1.1.1.3.1.5.1.3.1.6.1.9l-.1.9-.2-.6c.1.1.3.2.4.2l.4.2c.3.1.6.2.8.2h.3c.1 0 .2-.1.2-.1.1 0 .1-.1.2-.2l.2-.3.5-.7.6.3c.3.1.4.2.6.3.2.1.4.3.5.4.3.3.7.6.9 1.1l.3.7.1.4v.4c0 .3 0 .5-.1.8-.1.3-.2.5-.2.7l-1.4-1.2c.2-.1.5-.3.7-.5l.7-.6.6-.6.2-.3v-.1l.8-1 .6.2c.9.4 1.7.7 2.5 1.2l1.2.7.3.2.3.3.4.4.2.3c.1.2.1.4.1.5l-1.1-.9c.4-.1.7-.1 1-.1h1c.7 0 1.4.1 2.1.4.2 0 .3.1.5.2l.5.3c.2.1.3.2.4.4l.4.4.3.5.2.5c.2.3.2.7.3 1h-1l.2-.6c.1-.2.2-.4.3-.5.2-.4.5-.7.8-1l.5-.4.6-.3c.2-.1.4-.1.6-.1h.6c-.2 0-.4.1-.5.1l-.5.2c-.2.1-.3.2-.4.3l-.3.4c-.2.3-.4.6-.5.9-.1.2-.1.3-.1.5s-.1.4-.1.5l-.1 1.7-.8-1.7-.3-.7-.2-.3-.3-.3c-.1-.1-.2-.2-.3-.2l-.3-.2-.3-.2c-.1 0-.2-.1-.4-.1-.5-.1-1.1-.2-1.6-.1-.3 0-.6 0-.8.1-.3 0-.6.1-.8.2l-1.1-.9v.2l-.1-.1s-.1-.1-.2-.1c-.1-.1-.2-.1-.2-.2-.3-.2-.7-.4-1.1-.6l-2.4-1.1 1.3-.8-.1.4-.2.4c-.1.2-.2.4-.4.6-.3.3-.5.6-.8.8l-.9.7-.9.6-2.1 1.2.7-2.4.1-.3c0-.1.1-.2 0-.3 0-.2 0-.4-.1-.6-.1-.2-.3-.4-.5-.6l-.3-.3c-.1-.1-.3-.2-.3-.2l1.1-.4c-.1.2-.2.4-.4.6-.2.2-.4.4-.6.5-.3.1-.5.2-.8.2h-.8c-.5-.1-.9-.3-1.2-.5l-.5-.3c-.2-.1-.3-.2-.5-.4l-.3-.3.1-.4c0-.2.1-.5.2-.7 0-.2.1-.5 0-.7v-.4c0-.1 0-.2-.1-.4s-.1-.5-.3-.7c-.5-.7-1.3-1.6-2.2-2.2zm45.1 2c.6-.1 1.3-.2 1.9-.2.3 0 .7.1 1 .2.2.1.3.2.5.4.1.2.2.4.2.7h-.8c0-.2 0-.4.1-.6l.1-.6c.1-.4.3-.8.5-1.1.2-.3.5-.7.9-.9l.6-.3c.2-.1.4-.2.6-.2h.1c.2 0 .4 0 .6-.1h.6c.4 0 .8.1 1.1.2.4.1.8.4 1.1.7.3.3.5.7.7 1.2l-1.1-.6 1.3-.6c.4-.2.8-.4 1.2-.7.4-.2.8-.5 1-.7l.2-.2.1-.1v.1l.8-1.3c.3 0 .5 0 .8-.1h.8c.5 0 1 .1 1.5.2l.8.3c.3.1.5.3.8.5.2.2.5.4.7.7.1.2.2.3.2.5.1.2.1.3.1.5l-1.6-.5.9-.9.8-1 .3-.5.3-.5.2-.5v-.4l.1-1.5 1 .7.9.6.8.7c.2.3.5.6.6.9.1.2.2.4.2.6.1.2.1.4.1.6l-.9-.3c.2-.3.5-.6.7-1 .2-.3.4-.7.5-1.1.3-.7.5-1.5.4-2.4.1.4.2.8.2 1.3 0 .4 0 .9-.1 1.3s-.2.8-.3 1.3c-.1.2-.2.4-.2.6l-.3.6-.7 1.2-.2-1.5c-.1-.4-.4-.8-.8-1.2-.2-.2-.5-.4-.7-.5-.2-.2-.5-.3-.7-.4l1.1-.9.1.5v.5c0 .3-.1.6-.2.8-.2.5-.4 1-.6 1.4l-.8 1.2-.9 1.1-.9.9-.7-1.4c0-.1 0-.1-.1-.2 0-.1-.1-.1-.1-.1 0-.1-.1-.2-.2-.3-.1-.1-.2-.1-.4-.2l-.5-.2c-.4-.1-.7-.1-1.1-.1h-1.2l.8-1.3c0 .3.1.6 0 .8l-.2.7c-.1.2-.2.4-.3.5l-.3.4c-.5.4-.9.7-1.4 1-.5.3-1 .5-1.4.7-.5.2-1 .4-1.5.5l-.9.3-.2-.9c-.1-.4-.3-.6-.7-.8-.2-.1-.4-.2-.7-.2h-.8.1c-.6.1-1.1.3-1.5.8-.2.2-.4.5-.5.8l-.2.4c-.1.1-.1.3-.1.4l-.9 4 .1-4.1v-.2c0-.1-.1-.2-.2-.2-.2-.1-.5-.3-.8-.3-1.1-.3-1.8-.4-2.4-.4z"/><path class="st13" d="M426 490.1c.4.2.6.6.8 1 .2.4.3.9.3 1.3 0 .5 0 .9-.1 1.4-.1.4-.2.9-.4 1.3l-.9-1.1c.3-.1.7-.3 1.1-.4l1-.5c.3-.2.6-.4.8-.6l.3-.3.1-.1v-.1l.5-.9.9.3.4.1.3.1.6.3c.4.3.8.6 1.1 1.2.3.5.4 1.3.3 1.8-.1.6-.3 1-.6 1.4l-1.4-2.2h.2l.2-.1c.1 0 .3-.1.4-.2.3-.1.5-.3.7-.4.5-.3.8-.7 1-1.2l1.3-2.6 1.4 2.5.2.3.1.3.2.6c.1.4.2.8.2 1.2 0 .4 0 .9-.2 1.3-.1.5-.4.9-.6 1.3l-.2-1.9s.1.1.2.1l.2.2.5.3c.3.2.7.3 1 .3.6.1 1.3-.1 2-.7l1.4-1.1.5 1.5c.1.2.1.3.1.4 0 .1 0 .3.1.4 0 .3.1.5 0 .8 0 .5-.2 1.1-.5 1.7l-.6-1.2c.2.1.4.1.6.1l.7.1c.5.1.9.1 1.4 0 .5 0 .9-.1 1.4-.2l.7-.2c.2-.1.4-.2.7-.3-.3.4-.7.7-1.2 1l-.7.4-.7.3c-.5.2-1 .3-1.5.4l-.8.1h-.8l-.9-.1.3-1.2c.1-.2.1-.5 0-.8l-.1-.5c0-.1-.1-.2-.1-.2 0-.1-.1-.2-.1-.2l1.8.4c-.4.5-.9.9-1.6 1.3-.6.3-1.4.5-2.1.5-.7 0-1.4-.2-2-.4l-.9-.4-.4-.3c-.1-.1-.2-.2-.4-.3l-.9-.8.7-1.2c.1-.2.2-.4.2-.7 0-.2 0-.3-.1-.5l-.1-.3-.1-.1v-.1l2.7-.1c-.5.9-1.2 1.7-2 2.3-.4.3-.8.5-1.3.7-.2.1-.5.2-.7.2-.1 0-.2.1-.4.1-.1 0-.2.1-.4.1l-3.5.6 2.1-2.8c.1-.2.2-.3.2-.4v-.1s-.1-.2-.2-.3c-.1-.1-.2-.1-.2-.2l-.1-.1-.1-.1 1.5-.6-.3.4-.3.3c-.2.2-.4.4-.6.5-.4.3-.9.5-1.3.6-.4.2-.9.3-1.3.4-.4.1-.8.2-1.3.2l-1.7.2.8-1.3c.2-.3.4-.6.6-1 .2-.3.3-.7.4-1 .1-.4.1-.7.1-1.1-.3-.4-.4-.8-.6-1.1zm47.8 12.6c.6-.2 1.2-.3 1.9-.4.6-.1 1.3-.1 1.9-.1.7 0 1.3 0 2 .2.4.1.8.3 1.1.6.2.2.4.4.5.8.1.3.1.6.1.9l-1.8-.8.5-1.1.5-1.1c.1-.4.3-.7.3-1 .1-.2.1-.3.1-.5v-1.2l.9-.3.3-.1.3-.1c.2-.1.4-.1.5-.1.4-.1.8-.1 1.2-.1.4 0 1 .2 1.5.5l.6.6c.2.2.3.5.4.7l-2.5-.5.4-.5.4-.5c.2-.3.5-.7.6-1 .2-.3.4-.7.5-1 .1-.2.1-.3.1-.4 0-.1 0-.3.1-.4l.2-1.2 1-.2c.2 0 .2 0 .3-.1h.9c.4 0 .9.2 1.3.4.5.3.9.7 1.1 1.2.1.2.2.5.2.7l.1.6-2.6-.6c.1-.1.1-.2.2-.4l.2-.4c.1-.3.3-.6.4-.8.2-.5.3-1.1.3-1.4v-1.2l.8-.2 1.4-.3c.5-.1 1-.2 1.4-.2.5 0 1-.1 1.6 0 .1 0 .3.1.5.1s.4.1.6.3c.2.2.4.5.5.7.1.3 0 .5-.1.7l-1.2-.7.4-.3c.1-.1.3-.2.4-.4.2-.3.5-.6.6-.9.1-.2.2-.3.2-.5.1-.2.1-.3.1-.5v-.6l-.1-.6.4.5c.1.2.2.4.2.6 0 .2.1.4.1.7 0 .2 0 .4-.1.7-.1.4-.3.9-.5 1.2l-.3.6c-.1.2-.2.4-.4.6l-.7.8-.5-1.5c0 .1.1.2.1.2h-.2c-.3 0-.7.1-1.1.2-.4.1-.8.2-1.2.4-.4.1-.8.3-1.2.5l.8-1.4c.3 1.1.1 1.9-.1 2.7-.1.4-.2.8-.4 1.2l-.2.6c-.1.2-.2.3-.3.6l-1.3 2.5-1.3-3.1v-.1h-.5l1.2-1.5c0 .3 0 .7-.1 1-.1.3-.1.6-.2.8-.2.5-.4 1-.7 1.4l-.8 1.3-.5.6-.5.6-2.5-.5h-1l.8-1.2-.1.9c-.1.3-.2.5-.2.7-.2.5-.4.9-.6 1.3-.2.4-.5.8-.7 1.1l-.8 1.1-3.8 4.6 2-5.4h.1c0-.1-.2-.2-.4-.3-.4-.2-1-.4-1.6-.6-1.5-.3-2.8-.5-4-.7zm-8.6-45s2.4-1.1 4.1 1.3c0 0 .4.7 0 1.6 0 0-.9-1.2-2.1-.8 0 0-.9.1-1.8-.3-.4-.2-.7-.6-.8-1-.1-.2.4-.7.6-.8zm-7.8 4.7s-1.3-3 2.3-4.7c0 0 2-.8 2 1.2 0 0 0 1.4-2.6 1.1 0 0-1.4-.4-1.7 2.4z"/><path class="st12" d="M492.8 462.4c.2.5.4.8.5 1.2.2.3.3.5.5.7l.2.2.2.2.2.2c.1.1.2.1.2.2l-.4 2.6h-.2c-.1 0-.1-.1-.3-.1 0 0-.1 0-.2.1l-.2.3c-.1.1-.1.2-.1.4 0 .1-.1.3-.1.5-.4-.1-.7-.3-1-.5-.3-.3-.5-.7-.5-1.2 0-.3 0-.5.1-.8.1-.2.2-.5.4-.7l.5-.5.3-.2c.1-.1.2-.1.4-.2l-.4 2.6c-.2-.1-.4-.3-.6-.5-.2-.2-.4-.4-.5-.6-.3-.5-.5-1-.5-1.6 0-.5.1-1.1.4-1.5.3-.3.6-.6 1.1-.8z"/><circle class="st18" cx="494.5" cy="471.5" r="244.5"/><path class="st0" d="M240.7 922.6v-27.3h-51.3v-9.2l54.5-70.6h7.2v70.3h13.5v9.5h-13.5v27.3h-10.4zm-40.2-36.8h41.1v-53.9l-41.1 53.9zm154.7-27.6c0 6.8-1 13-2.9 18.7-1.9 5.7-4.6 10.6-8.1 14.7-3.4 4.1-7.5 7.4-12.2 9.7-4.7 2.3-9.8 3.5-15.4 3.5s-10.6-1.2-15.4-3.5c-4.7-2.3-8.8-5.5-12.2-9.7-3.4-4.1-6.1-9.1-8.1-14.7-1.9-5.7-2.9-11.9-2.9-18.7s1-13 2.9-18.7c1.9-5.7 4.6-10.6 8.1-14.7 3.4-4.1 7.5-7.4 12.2-9.8 4.7-2.4 9.8-3.5 15.4-3.5s10.6 1.2 15.4 3.5c4.7 2.4 8.8 5.6 12.2 9.8 3.4 4.1 6.1 9.1 8.1 14.7 1.9 5.7 2.9 11.9 2.9 18.7zm-10.6 0c0-5.5-.7-10.5-2.1-15-1.4-4.5-3.3-8.4-5.8-11.6s-5.4-5.7-8.8-7.5c-3.4-1.8-7.2-2.7-11.3-2.7-4.2 0-8 .9-11.4 2.7-3.4 1.8-6.4 4.3-8.8 7.5s-4.4 7.1-5.8 11.6c-1.4 4.5-2.1 9.5-2.1 15s.7 10.5 2.1 15c1.4 4.5 3.3 8.4 5.8 11.6 2.5 3.2 5.4 5.7 8.8 7.4 3.4 1.7 7.2 2.6 11.4 2.6 4.1 0 7.9-.9 11.3-2.6 3.4-1.7 6.4-4.2 8.8-7.4 2.5-3.2 4.4-7.1 5.8-11.6 1.4-4.5 2.1-9.5 2.1-15zm73.7 64.4v-27.3h-51.3v-9.2l54.5-70.6h7.2v70.3h13.5v9.5h-13.5v27.3h-10.4zm-40.2-36.8h41.1v-53.9l-41.1 53.9zm195.3 7.8v9.5h-73.2v-109h71.8v9.5h-61.3v39.4h53.4v9.1h-53.4v41.6h62.7zm58.2-61.2c-7.1.2-13.2 2.1-18.4 5.8-5.2 3.7-8.9 8.8-11.1 15.2v49.7h-10.4v-80h9.8v19.2c2.8-5.6 6.4-10.3 10.9-14 4.5-3.7 9.4-5.6 14.6-5.6h2.6c.8 0 1.5.1 2 .2v9.5zm53.9 0c-7.1.2-13.2 2.1-18.4 5.8-5.2 3.7-8.9 8.8-11.1 15.2v49.7h-10.4v-80h9.8v19.2c2.8-5.6 6.4-10.3 10.9-14 4.5-3.7 9.4-5.6 14.6-5.6h2.6c.8 0 1.5.1 2 .2v9.5zm44.8 72.3c-5.8 0-11.2-1.1-16-3.3-4.9-2.2-9.1-5.2-12.6-9s-6.3-8.2-8.2-13.2c-1.9-5-2.9-10.3-2.9-15.8 0-5.6 1-11 3-16s4.8-9.4 8.3-13.2c3.5-3.8 7.7-6.8 12.6-9.1 4.9-2.2 10.2-3.4 15.9-3.4 5.7 0 11 1.1 15.9 3.4s9.1 5.3 12.6 9.1 6.3 8.2 8.3 13.2c2 5 3 10.3 3 16 0 5.5-1 10.8-3 15.8s-4.8 9.4-8.3 13.2c-3.5 3.8-7.7 6.8-12.6 9-5 2.2-10.3 3.3-16 3.3zm-29-41.2c0 4.5.7 8.7 2.2 12.5 1.5 3.8 3.5 7.2 6.1 10.1 2.6 2.9 5.7 5.2 9.2 6.8 3.5 1.6 7.3 2.5 11.3 2.5 4 0 7.8-.8 11.3-2.5 3.5-1.7 6.6-4 9.3-6.9 2.7-2.9 4.8-6.3 6.3-10.2 1.5-3.9 2.3-8.1 2.3-12.6 0-4.4-.8-8.6-2.3-12.5-1.5-3.9-3.6-7.4-6.3-10.3-2.7-2.9-5.7-5.2-9.2-6.9-3.5-1.7-7.2-2.5-11.2-2.5s-7.8.8-11.3 2.5c-3.5 1.7-6.6 4-9.2 7-2.6 3-4.7 6.4-6.2 10.4-1.5 3.9-2.3 8.1-2.3 12.6zm125.7-31.1c-7.1.2-13.2 2.1-18.4 5.8-5.2 3.7-8.9 8.8-11.1 15.2v49.7h-10.4v-80h9.8v19.2c2.8-5.6 6.4-10.3 10.9-14 4.5-3.7 9.4-5.6 14.6-5.6h2.6c.8 0 1.5.1 2 .2v9.5zm-611.3 159.5v-26.9h2.6v26.9h-2.6zm28.3.4c-1.5 0-3-.4-4.3-1.2-1.3-.8-2.3-1.8-3.1-3v3.8h-2.3v-27.7h2.6v12.1c.9-1.3 2-2.4 3.2-3.2 1.2-.8 2.7-1.2 4.4-1.2 1.4 0 2.6.3 3.7.9 1.1.6 2.1 1.4 2.8 2.3.8 1 1.4 2.1 1.8 3.3.4 1.2.6 2.5.6 3.8 0 1.4-.2 2.7-.7 4-.5 1.2-1.1 2.3-2 3.2-.8.9-1.8 1.7-3 2.2-1.2.4-2.4.7-3.7.7zm-.6-2.3c1.1 0 2.1-.2 3-.7.9-.4 1.7-1 2.3-1.8s1.2-1.6 1.5-2.5c.4-.9.6-1.9.6-2.9s-.2-2-.5-3-.8-1.8-1.4-2.6c-.6-.7-1.4-1.3-2.2-1.8-.9-.4-1.8-.7-2.8-.7-.8 0-1.5.1-2.2.4s-1.3.6-1.9 1.1c-.6.5-1.1 1-1.6 1.6-.5.6-.9 1.2-1.2 1.9v6.2c.1.7.4 1.3.8 1.9.4.6 1 1.1 1.6 1.5.6.4 1.3.8 2 1 .6.3 1.3.4 2 .4zm23 2.3c-1.4 0-2.8-.3-4-.8-1.2-.5-2.3-1.3-3.2-2.2-.9-1-1.6-2-2.1-3.3-.5-1.2-.7-2.6-.7-4s.2-2.7.7-3.9c.5-1.2 1.2-2.3 2.1-3.2.9-.9 1.9-1.7 3.1-2.2 1.2-.5 2.5-.8 4-.8 1.4 0 2.8.3 4 .8 1.2.5 2.2 1.3 3.1 2.2s1.5 2 2 3.2c.5 1.2.7 2.5.7 3.9v.6c0 .2 0 .3-.1.4h-16.9c.1 1.1.3 2 .7 2.9.4.9 1 1.7 1.6 2.3.6.7 1.4 1.2 2.2 1.5.8.4 1.8.6 2.7.6.7 0 1.3-.1 1.9-.3.6-.2 1.2-.4 1.7-.7.5-.3 1-.7 1.4-1.1.4-.4.7-.9 1-1.5l2.2.6c-.3.7-.7 1.4-1.3 2-.6.6-1.2 1.1-1.9 1.6-.7.4-1.5.8-2.4 1-.7.3-1.6.4-2.5.4zm7.2-11.3c-.1-1.1-.3-2-.7-2.9s-1-1.6-1.6-2.3c-.6-.6-1.4-1.1-2.3-1.5-.9-.4-1.8-.5-2.7-.5-1 0-1.9.2-2.7.5-.9.4-1.6.8-2.3 1.5-.6.6-1.2 1.4-1.6 2.3-.4.9-.6 1.8-.7 2.9h14.6zm6.5-16.8h2.6v23.3c0 .7.2 1.3.6 1.7.4.4 1 .6 1.7.6.3 0 .6 0 1-.1l1.1-.3.5 2.1c-.5.2-1.1.4-1.8.5-.7.1-1.3.2-1.8.2-1.2 0-2.1-.3-2.8-1-.7-.7-1-1.6-1-2.8v-24.2zm9.9 3.8v-3.8h2.6v3.8h-2.6zm0 23.9v-19.8h2.6v19.8h-2.6zm16.8.4c-1.4 0-2.8-.3-4-.8-1.2-.5-2.3-1.3-3.2-2.2-.9-1-1.6-2-2.1-3.3-.5-1.2-.7-2.6-.7-4s.2-2.7.7-3.9c.5-1.2 1.2-2.3 2.1-3.2.9-.9 1.9-1.7 3.1-2.2 1.2-.5 2.5-.8 4-.8 1.4 0 2.8.3 4 .8 1.2.5 2.2 1.3 3.1 2.2s1.5 2 2 3.2c.5 1.2.7 2.5.7 3.9v.6c0 .2 0 .3-.1.4h-16.9c.1 1.1.3 2 .7 2.9.4.9 1 1.7 1.6 2.3.6.7 1.4 1.2 2.2 1.5.8.4 1.8.6 2.7.6.7 0 1.3-.1 1.9-.3.6-.2 1.2-.4 1.7-.7.5-.3 1-.7 1.4-1.1.4-.4.7-.9 1-1.5l2.2.6c-.3.7-.7 1.4-1.3 2-.6.6-1.2 1.1-1.9 1.6-.7.4-1.5.8-2.4 1-.6.3-1.5.4-2.5.4zm7.3-11.3c-.1-1.1-.3-2-.7-2.9s-1-1.6-1.6-2.3c-.6-.6-1.4-1.1-2.3-1.5-.9-.4-1.8-.5-2.7-.5-1 0-1.9.2-2.7.5-.9.4-1.6.8-2.3 1.5-.6.6-1.2 1.4-1.6 2.3-.4.9-.6 1.8-.7 2.9h14.6zm11.8 10.9l-8.1-19.8h2.7l6.8 17.4 6.8-17.4h2.5l-8.1 19.8h-2.6zm22.8.4c-1.4 0-2.8-.3-4-.8-1.2-.5-2.3-1.3-3.2-2.2-.9-1-1.6-2-2.1-3.3-.5-1.2-.7-2.6-.7-4s.2-2.7.7-3.9c.5-1.2 1.2-2.3 2.1-3.2.9-.9 1.9-1.7 3.1-2.2 1.2-.5 2.5-.8 4-.8 1.4 0 2.8.3 4 .8 1.2.5 2.2 1.3 3.1 2.2s1.5 2 2 3.2c.5 1.2.7 2.5.7 3.9v.6c0 .2 0 .3-.1.4h-16.9c.1 1.1.3 2 .7 2.9.4.9 1 1.7 1.6 2.3.6.7 1.4 1.2 2.2 1.5.8.4 1.8.6 2.7.6.7 0 1.3-.1 1.9-.3.6-.2 1.2-.4 1.7-.7.5-.3 1-.7 1.4-1.1.4-.4.7-.9 1-1.5l2.2.6c-.3.7-.7 1.4-1.3 2-.6.6-1.2 1.1-1.9 1.6-.7.4-1.5.8-2.4 1-.6.3-1.5.4-2.5.4zm7.3-11.3c-.1-1.1-.3-2-.7-2.9s-1-1.6-1.6-2.3c-.6-.6-1.4-1.1-2.3-1.5-.9-.4-1.8-.5-2.7-.5-1 0-1.9.2-2.7.5-.9.4-1.6.8-2.3 1.5-.6.6-1.2 1.4-1.6 2.3-.4.9-.6 1.8-.7 2.9h14.6zm16.2 17.1c.1 0 .3 0 .4.1h.4c.3 0 .5 0 .8-.1.3-.1.5-.1.6-.2l.4-.3c.1-.2.3-.5.5-.9s.5-1 .8-1.7c.3-.7.7-1.8 1.3-3l-8.6-19.8h2.7l7.3 17.4 6.8-17.4h2.5l-10.3 25.5c-.4.9-.9 1.6-1.5 2.1s-1.6.7-2.7.7c-.5 0-.9 0-1.3-.1v-2.3zm27.3-5.8c-1.4 0-2.8-.3-4-.8-1.2-.5-2.2-1.3-3.1-2.2-.9-.9-1.6-2-2-3.3-.5-1.2-.7-2.5-.7-3.9s.2-2.7.7-4c.5-1.2 1.2-2.3 2.1-3.3s1.9-1.7 3.1-2.2c1.2-.6 2.5-.8 3.9-.8s2.7.3 3.9.8 2.2 1.3 3.1 2.2 1.6 2 2.1 3.3c.5 1.2.7 2.6.7 4s-.2 2.7-.7 3.9c-.5 1.2-1.2 2.3-2.1 3.3-.9.9-1.9 1.7-3.1 2.2-1.2.5-2.5.8-3.9.8zm-7.2-10.2c0 1.1.2 2.1.6 3.1s.9 1.8 1.5 2.5 1.4 1.3 2.3 1.7 1.8.6 2.8.6c1 0 1.9-.2 2.8-.6s1.6-1 2.3-1.7c.7-.7 1.2-1.6 1.6-2.5s.6-2 .6-3.1-.2-2.1-.6-3.1c-.4-1-.9-1.8-1.6-2.5-.7-.7-1.4-1.3-2.3-1.7-.9-.4-1.8-.6-2.8-.6-1 0-1.9.2-2.8.6-.9.4-1.6 1-2.3 1.7-.6.7-1.2 1.6-1.5 2.6-.4.9-.6 1.9-.6 3zm27.3 10.2c-2.1 0-3.6-.7-4.7-2.1-1.1-1.4-1.6-3.6-1.6-6.4v-11.6h2.6v11.2c0 4.5 1.5 6.7 4.6 6.7.8 0 1.5-.1 2.2-.4.7-.3 1.4-.6 2-1.1.6-.5 1.2-1.1 1.7-1.7.5-.7.9-1.4 1.2-2.2v-12.5h2.6v16.5c0 .7.3 1.1.9 1.1v2.3c-.5.1-.9.1-1.1.1-.6 0-1.1-.2-1.5-.5-.4-.4-.6-.8-.6-1.3v-2.7c-.9 1.5-2.1 2.7-3.5 3.6s-3 1-4.8 1zm15.6-28.1c.4 0 .7 0 1.1.1.4.1.7.2.9.4.3.2.5.4.7.8.2.3.3.7.3 1.1v4.6h-2.2v-4.2c0-.3-.1-.5-.3-.6-.2-.1-.4-.2-.5-.2v-2zm18.1 10.2c-1.7.1-3.3.5-4.6 1.4-1.3.9-2.2 2.2-2.7 3.8v12.3h-2.6v-19.8h2.4v4.8c.7-1.4 1.6-2.6 2.7-3.5 1.1-.9 2.3-1.4 3.6-1.4h1.1v2.4zm12.2 17.9c-1.4 0-2.8-.3-4-.8-1.2-.5-2.3-1.3-3.2-2.2-.9-1-1.6-2-2.1-3.3-.5-1.2-.7-2.6-.7-4s.2-2.7.7-3.9c.5-1.2 1.2-2.3 2.1-3.2.9-.9 1.9-1.7 3.1-2.2 1.2-.5 2.5-.8 4-.8 1.4 0 2.8.3 4 .8 1.2.5 2.2 1.3 3.1 2.2s1.5 2 2 3.2c.5 1.2.7 2.5.7 3.9v.6c0 .2 0 .3-.1.4h-16.9c.1 1.1.3 2 .7 2.9.4.9 1 1.7 1.6 2.3.6.7 1.4 1.2 2.2 1.5.8.4 1.8.6 2.7.6.7 0 1.3-.1 1.9-.3.6-.2 1.2-.4 1.7-.7.5-.3 1-.7 1.4-1.1.4-.4.7-.9 1-1.5l2.2.6c-.3.7-.7 1.4-1.3 2-.6.6-1.2 1.1-1.9 1.6-.7.4-1.5.8-2.4 1-.7.3-1.6.4-2.5.4zm7.3-11.3c-.1-1.1-.3-2-.7-2.9s-1-1.6-1.6-2.3c-.6-.6-1.4-1.1-2.3-1.5-.9-.4-1.8-.5-2.7-.5-1 0-1.9.2-2.7.5-.9.4-1.6.8-2.3 1.5-.6.6-1.2 1.4-1.6 2.3-.4.9-.6 1.8-.7 2.9h14.6zm16.2-16.8h2.6v23.3c0 .7.2 1.3.6 1.7.4.4 1 .6 1.7.6.3 0 .6 0 1-.1l1.1-.3.5 2.1c-.5.2-1.1.4-1.8.5-.7.1-1.3.2-1.8.2-1.2 0-2.1-.3-2.8-1-.7-.7-1-1.6-1-2.8v-24.2zm18.4 28.1c-1.4 0-2.8-.3-4-.8-1.2-.5-2.2-1.3-3.1-2.2-.9-.9-1.6-2-2-3.3-.5-1.2-.7-2.5-.7-3.9s.2-2.7.7-4c.5-1.2 1.2-2.3 2.1-3.3s1.9-1.7 3.1-2.2c1.2-.6 2.5-.8 3.9-.8s2.7.3 3.9.8 2.2 1.3 3.1 2.2 1.6 2 2.1 3.3c.5 1.2.7 2.6.7 4s-.2 2.7-.7 3.9c-.5 1.2-1.2 2.3-2.1 3.3-.9.9-1.9 1.7-3.1 2.2-1.2.5-2.5.8-3.9.8zm-7.2-10.2c0 1.1.2 2.1.6 3.1s.9 1.8 1.5 2.5 1.4 1.3 2.3 1.7 1.8.6 2.8.6c1 0 1.9-.2 2.8-.6s1.6-1 2.3-1.7c.7-.7 1.2-1.6 1.6-2.5s.6-2 .6-3.1-.2-2.1-.6-3.1c-.4-1-.9-1.8-1.6-2.5-.7-.7-1.4-1.3-2.3-1.7-.9-.4-1.8-.6-2.8-.6-1 0-1.9.2-2.8.6-.9.4-1.6 1-2.3 1.7-.6.7-1.2 1.6-1.5 2.6-.4.9-.6 1.9-.6 3zm27.9 10.2c-1.5 0-3.1-.3-4.5-.8s-2.7-1.2-3.8-2.2l1.2-1.7c1.1.9 2.2 1.6 3.4 2.1 1.2.5 2.4.7 3.7.7 1.6 0 2.9-.3 3.8-1 .9-.6 1.4-1.6 1.4-2.8 0-.6-.1-1-.4-1.4-.3-.4-.6-.7-1.1-1-.5-.3-1.1-.5-1.9-.7-.7-.2-1.6-.4-2.6-.7-1.1-.3-2.1-.6-3-.8-.8-.3-1.5-.6-2.1-1-.5-.4-.9-.8-1.2-1.3s-.4-1.2-.4-2c0-1 .2-1.9.6-2.6.4-.8.9-1.4 1.6-1.9.7-.5 1.5-.9 2.4-1.1.9-.3 1.9-.4 2.9-.4 1.5 0 2.9.2 4.1.7 1.2.5 2.2 1.1 3 2l-1.3 1.5c-.7-.8-1.6-1.3-2.7-1.7s-2.1-.6-3.3-.6c-.7 0-1.3.1-1.9.2-.6.1-1.1.4-1.5.7-.4.3-.8.7-1 1.2-.3.5-.4 1-.4 1.7 0 .5.1 1 .3 1.3.2.3.5.6.9.9.4.2.9.5 1.5.6.6.2 1.4.4 2.3.6 1.3.3 2.4.6 3.3.9 1 .3 1.8.7 2.4 1.1.6.4 1.1.9 1.5 1.5.3.6.5 1.3.5 2.1 0 1.8-.7 3.3-2.1 4.3-1.4 1.1-3.3 1.6-5.6 1.6zm21.3-1.3c-.2.1-.4.2-.7.3-.3.1-.6.3-1 .4-.4.1-.8.2-1.3.3-.5.1-1 .2-1.5.2-.6 0-1.1-.1-1.6-.2-.5-.2-1-.4-1.3-.7-.4-.3-.7-.7-.9-1.2-.2-.5-.3-1-.3-1.7v-14.2h-2.8v-2.1h2.7v-6.7h2.6v6.7h4.6v2.1h-4.6v13.5c.1.7.3 1.3.8 1.6.5.3 1 .5 1.6.5.7 0 1.4-.1 1.9-.4.6-.2.9-.4 1.1-.5l.7 2.1zm2.4 1.5c.2 0 .4-.1.5-.2.2-.1.3-.3.3-.6v-3.5h2.2v3.9c0 .4-.1.8-.3 1.1-.2.3-.4.6-.7.7-.3.2-.6.3-1 .4-.4.1-.7.1-1.1.1v-1.9zm18.3 5.6c.1 0 .3 0 .4.1h.4c.3 0 .5 0 .8-.1.3-.1.5-.1.6-.2l.4-.3c.1-.2.3-.5.5-.9s.5-1 .8-1.7c.3-.7.7-1.8 1.3-3l-8.6-19.8h2.7l7.3 17.4 6.8-17.4h2.5l-10.3 25.5c-.4.9-.9 1.6-1.5 2.1s-1.6.7-2.7.7c-.5 0-.9 0-1.3-.1v-2.3zm27.3-5.8c-1.4 0-2.8-.3-4-.8-1.2-.5-2.2-1.3-3.1-2.2-.9-.9-1.6-2-2-3.3-.5-1.2-.7-2.5-.7-3.9s.2-2.7.7-4c.5-1.2 1.2-2.3 2.1-3.3s1.9-1.7 3.1-2.2c1.2-.6 2.5-.8 3.9-.8s2.7.3 3.9.8 2.2 1.3 3.1 2.2 1.6 2 2.1 3.3c.5 1.2.7 2.6.7 4s-.2 2.7-.7 3.9c-.5 1.2-1.2 2.3-2.1 3.3-.9.9-1.9 1.7-3.1 2.2-1.2.5-2.5.8-3.9.8zm-7.2-10.2c0 1.1.2 2.1.6 3.1s.9 1.8 1.5 2.5 1.4 1.3 2.3 1.7 1.8.6 2.8.6c1 0 1.9-.2 2.8-.6s1.6-1 2.3-1.7c.7-.7 1.2-1.6 1.6-2.5s.6-2 .6-3.1-.2-2.1-.6-3.1c-.4-1-.9-1.8-1.6-2.5-.7-.7-1.4-1.3-2.3-1.7-.9-.4-1.8-.6-2.8-.6-1 0-1.9.2-2.8.6-.9.4-1.6 1-2.3 1.7-.6.7-1.2 1.6-1.5 2.6-.4.9-.6 1.9-.6 3zm27.3 10.2c-2.1 0-3.6-.7-4.7-2.1-1.1-1.4-1.6-3.6-1.6-6.4v-11.6h2.6v11.2c0 4.5 1.5 6.7 4.6 6.7.8 0 1.5-.1 2.2-.4.7-.3 1.4-.6 2-1.1.6-.5 1.2-1.1 1.7-1.7.5-.7.9-1.4 1.2-2.2v-12.5h2.6v16.5c0 .7.3 1.1.9 1.1v2.3c-.5.1-.9.1-1.1.1-.6 0-1.1-.2-1.5-.5-.4-.4-.6-.8-.6-1.3v-2.7c-.9 1.5-2.1 2.7-3.5 3.6s-3 1-4.8 1zm50.2-20.2h2.5l-8.5 19.8h-2.2l-4.2-10.1-4.2 10.1h-2.1l-8.5-19.8h2.5l7.2 17.1 3.8-9-3.4-8.1h2.2l2.6 6.5 2.5-6.5h2.2l-3.3 8.1 3.8 9 7.1-17.1zm13.7 20.2c-1.4 0-2.8-.3-4-.8-1.2-.5-2.2-1.3-3.1-2.2-.9-.9-1.6-2-2-3.3-.5-1.2-.7-2.5-.7-3.9s.2-2.7.7-4c.5-1.2 1.2-2.3 2.1-3.3s1.9-1.7 3.1-2.2c1.2-.6 2.5-.8 3.9-.8s2.7.3 3.9.8 2.2 1.3 3.1 2.2c.9.9 1.6 2 2.1 3.3s.7 2.6.7 4-.2 2.7-.7 3.9-1.2 2.3-2.1 3.3c-.9.9-1.9 1.7-3.1 2.2-1.1.5-2.5.8-3.9.8zm-7.2-10.2c0 1.1.2 2.1.6 3.1s.9 1.8 1.5 2.5 1.4 1.3 2.3 1.7 1.8.6 2.8.6c1 0 1.9-.2 2.8-.6.9-.4 1.6-1 2.3-1.7.7-.7 1.2-1.6 1.6-2.5.4-1 .6-2 .6-3.1s-.2-2.1-.6-3.1c-.4-1-.9-1.8-1.6-2.5-.7-.7-1.4-1.3-2.3-1.7s-1.8-.6-2.8-.6-1.9.2-2.8.6c-.9.4-1.6 1-2.3 1.7-.6.7-1.2 1.6-1.5 2.6-.4.9-.6 1.9-.6 3zm27.4 10.2c-2.1 0-3.6-.7-4.7-2.1-1.1-1.4-1.6-3.6-1.6-6.4v-11.6h2.6v11.2c0 4.5 1.5 6.7 4.6 6.7.8 0 1.5-.1 2.2-.4.7-.3 1.4-.6 2-1.1.6-.5 1.2-1.1 1.7-1.7.5-.7.9-1.4 1.2-2.2v-12.5h2.6v16.5c0 .7.3 1.1 1 1.1v2.3c-.5.1-.9.1-1.1.1-.6 0-1.1-.2-1.5-.5-.4-.4-.6-.8-.6-1.3v-2.7c-.9 1.5-2.1 2.7-3.5 3.6-1.5.6-3.2 1-4.9 1zm16.6-28.1h2.6v23.3c0 .7.2 1.3.6 1.7s1 .6 1.7.6c.3 0 .6 0 1-.1s.7-.2 1.1-.3l.5 2.1c-.5.2-1.1.4-1.8.5-.7.1-1.3.2-1.8.2-1.2 0-2.1-.3-2.8-1-.7-.7-1-1.6-1-2.8v-24.2zm18.1 28.1c-1.4 0-2.6-.3-3.8-.9-1.2-.6-2.2-1.3-3-2.3-.8-.9-1.5-2-2-3.2-.5-1.2-.7-2.5-.7-3.9s.2-2.7.7-4c.5-1.3 1.1-2.3 1.9-3.3s1.7-1.7 2.9-2.2c1.1-.5 2.3-.8 3.6-.8 1.7 0 3.2.4 4.4 1.3s2.3 1.9 3.1 3.2v-12.1h2.6v24.4c0 .7.3 1.1.9 1.1v2.3c-.4.1-.8.1-1 .1-.6 0-1.2-.2-1.6-.6s-.6-.8-.6-1.3v-2.1c-.8 1.3-1.9 2.3-3.2 3.1-1.4.8-2.8 1.2-4.2 1.2zm.5-2.3c.7 0 1.3-.1 2.1-.4.7-.3 1.4-.6 2-1 .6-.4 1.2-1 1.6-1.6.5-.6.7-1.2.8-1.9v-6.1c-.3-.7-.6-1.3-1.1-1.9-.5-.6-1.1-1.1-1.7-1.6s-1.3-.8-2-1.1c-.7-.3-1.4-.4-2.1-.4-1.1 0-2 .2-2.9.7s-1.6 1.1-2.2 1.8c-.6.7-1.1 1.6-1.4 2.6s-.5 2-.5 3c0 1.1.2 2.1.6 3s.9 1.8 1.6 2.5c.7.7 1.4 1.3 2.3 1.7.9.5 1.8.7 2.9.7zm31.6 1.9h-2.6v-11.1c0-2.4-.3-4.1-1-5.1-.7-1.1-1.7-1.6-3.2-1.6-.8 0-1.5.1-2.3.4-.8.3-1.5.7-2.1 1.2-.7.5-1.2 1.1-1.7 1.8s-.9 1.5-1.1 2.3v12.1h-2.6v-19.8h2.4v4.5c.4-.7.9-1.4 1.5-2 .6-.6 1.3-1.1 2-1.5.7-.4 1.5-.8 2.3-1 .8-.2 1.7-.3 2.6-.3 1.1 0 2 .2 2.8.6.7.4 1.3 1 1.8 1.7s.8 1.6 1 2.7c.2 1.1.3 2.2.3 3.5v11.6zm4-27.7c.4 0 .7 0 1.1.1.4.1.7.2 1 .4.3.2.5.4.7.8.2.3.3.7.3 1.1v4.6h-2.2v-4.2c0-.3-.1-.5-.3-.6-.2-.1-.4-.2-.5-.2v-2zm17.9 26.8c-.2.1-.4.2-.7.3-.3.1-.6.3-1 .4s-.8.2-1.3.3c-.5.1-1 .2-1.5.2-.6 0-1.1-.1-1.6-.2s-.9-.4-1.3-.7c-.4-.3-.7-.7-.9-1.2-.2-.5-.3-1-.3-1.7v-14.2h-2.7v-2.1h2.7v-6.7h2.6v6.7h4.6v2.1h-4.6v13.5c.1.7.3 1.3.8 1.6.5.3 1 .5 1.6.5.7 0 1.4-.1 1.9-.4.6-.2.9-.4 1.1-.5l.6 2.1zm-517.3 26.7h2.5l-8.5 19.8h-2.2l-4.2-10.1-4.2 10.1h-2.2l-8.5-19.8h2.5l7.2 17.1 3.8-9-3.4-8.1h2.2l2.6 6.5 2.5-6.5h2.2l-3.3 8.1 3.8 9 7.2-17.1zm10.6 20.2c-1 0-1.9-.2-2.8-.5s-1.6-.8-2.1-1.3c-.6-.6-1.1-1.2-1.4-1.9-.3-.7-.5-1.5-.5-2.3 0-.9.2-1.7.6-2.5.4-.7 1-1.4 1.7-1.9s1.6-.9 2.6-1.2c1-.3 2.2-.4 3.4-.4 1 0 2 .1 3 .3 1 .2 2 .4 2.8.8v-1.8c0-1.7-.5-3.1-1.5-4.2-1-1-2.4-1.5-4-1.5-1.1 0-2.1.2-3.2.6-1.1.4-2.1 1-3.2 1.7l-.9-1.7c1.3-.9 2.5-1.5 3.8-1.9 1.2-.4 2.5-.6 3.8-.6 2.4 0 4.3.7 5.7 2.1 1.4 1.4 2.1 3.3 2.1 5.8v8.9c0 .7.3 1.1.9 1.1v2.3c-.2 0-.4 0-.6.1h-.5c-.5 0-1-.2-1.4-.5s-.7-.8-.7-1.4l-.1-1.6c-.9 1.2-2 2.1-3.4 2.7-1.2.5-2.7.8-4.1.8zm.7-2c1.1 0 2.3-.2 3.4-.7 1.1-.5 2-1.2 2.7-2l.5-.7c.1-.3.2-.5.2-.7v-3.2c-.9-.3-1.8-.6-2.7-.8-.9-.2-1.8-.3-2.7-.3-1.8 0-3.4.4-4.5 1.1-1.2.7-1.7 1.8-1.7 3.1 0 .5.1 1.1.3 1.6.2.5.5 1 .9 1.4s.9.7 1.5 1 1.2.2 2.1.2zm31.5 1.6h-2.6v-11.1c0-2.4-.3-4.1-1-5.1-.7-1.1-1.7-1.6-3.2-1.6-.8 0-1.5.1-2.3.4-.8.3-1.5.7-2.1 1.2-.7.5-1.2 1.1-1.7 1.8s-.9 1.5-1.1 2.3v12.1h-2.6v-19.8h2.4v4.5c.4-.7.9-1.4 1.5-2 .6-.6 1.3-1.1 2-1.5.7-.4 1.5-.8 2.3-1 .8-.2 1.7-.3 2.6-.3 1.1 0 2 .2 2.8.6.7.4 1.3 1 1.8 1.7s.8 1.6 1 2.7.3 2.2.3 3.5v11.6zm14.8-.9c-.2.1-.4.2-.7.3-.3.1-.6.3-1 .4-.4.1-.8.2-1.3.3-.5.1-1 .2-1.5.2-.6 0-1.1-.1-1.6-.2-.5-.2-1-.4-1.3-.7-.4-.3-.7-.7-.9-1.2-.2-.5-.3-1-.3-1.7v-14.2h-2.7v-2.1h2.7v-6.7h2.6v6.7h4.6v2.1h-4.6v13.5c.1.7.3 1.3.8 1.6.5.3 1 .5 1.6.5.7 0 1.4-.1 1.9-.4.6-.2.9-.4 1.1-.5l.6 2.1zm22.4 0c-.2.1-.4.2-.7.3-.3.1-.6.3-1 .4-.4.1-.8.2-1.3.3-.5.1-1 .2-1.5.2-.6 0-1.1-.1-1.6-.2-.5-.2-1-.4-1.3-.7-.4-.3-.7-.7-.9-1.2-.2-.5-.3-1-.3-1.7v-14.2h-2.7v-2.1h2.7v-6.7h2.6v6.7h4.6v2.1h-4.6v13.5c.1.7.3 1.3.8 1.6.5.3 1 .5 1.6.5.7 0 1.4-.1 1.9-.4.6-.2.9-.4 1.1-.5l.6 2.1zm11.1 1.3c-1.4 0-2.8-.3-4-.8-1.2-.5-2.2-1.3-3.1-2.2-.9-.9-1.6-2-2-3.3-.5-1.2-.7-2.5-.7-3.9s.2-2.7.7-4c.5-1.2 1.2-2.3 2.1-3.3s1.9-1.7 3.1-2.2c1.2-.6 2.5-.8 3.9-.8s2.7.3 3.9.8 2.2 1.3 3.1 2.2 1.6 2 2.1 3.3c.5 1.2.7 2.6.7 4s-.2 2.7-.7 3.9c-.5 1.2-1.2 2.3-2.1 3.3-.9.9-1.9 1.7-3.1 2.2-1.1.5-2.5.8-3.9.8zm-7.2-10.2c0 1.1.2 2.1.6 3.1s.9 1.8 1.5 2.5 1.4 1.3 2.3 1.7 1.8.6 2.8.6c1 0 1.9-.2 2.8-.6s1.6-1 2.3-1.7c.7-.7 1.2-1.6 1.6-2.5s.6-2 .6-3.1-.2-2.1-.6-3.1c-.4-1-.9-1.8-1.6-2.5-.7-.7-1.4-1.3-2.3-1.7-.9-.4-1.8-.6-2.8-.6-1 0-1.9.2-2.8.6-.9.4-1.6 1-2.3 1.7-.6.7-1.2 1.6-1.5 2.6-.4.9-.6 1.9-.6 3zm37.7 10.2c-1.5 0-3.1-.3-4.5-.8s-2.7-1.2-3.8-2.2l1.2-1.7c1.1.9 2.2 1.6 3.4 2.1 1.2.5 2.4.7 3.7.7 1.6 0 2.9-.3 3.8-1 .9-.6 1.4-1.6 1.4-2.8 0-.6-.1-1-.4-1.4-.3-.4-.6-.7-1.1-1-.5-.3-1.1-.5-1.9-.7-.7-.2-1.6-.4-2.6-.7-1.1-.3-2.1-.6-3-.8-.8-.3-1.5-.6-2.1-1-.5-.4-.9-.8-1.2-1.3s-.4-1.2-.4-2c0-1 .2-1.9.6-2.6.4-.8.9-1.4 1.6-1.9.7-.5 1.5-.9 2.4-1.1.9-.3 1.9-.4 2.9-.4 1.5 0 2.9.2 4.1.7 1.2.5 2.2 1.1 3 2l-1.3 1.5c-.7-.8-1.6-1.3-2.7-1.7s-2.1-.6-3.3-.6c-.7 0-1.3.1-1.9.2-.6.1-1.1.4-1.5.7-.4.3-.8.7-1 1.2-.3.5-.4 1-.4 1.7 0 .5.1 1 .3 1.3.2.3.5.6.9.9.4.2.9.5 1.5.6.6.2 1.4.4 2.3.6 1.3.3 2.4.6 3.3.9 1 .3 1.8.7 2.4 1.1.6.4 1.1.9 1.5 1.5.3.6.5 1.3.5 2.1 0 1.8-.7 3.3-2.1 4.3-1.4 1.1-3.3 1.6-5.6 1.6zm21.4-1.3c-.2.1-.4.2-.7.3-.3.1-.6.3-1 .4-.4.1-.8.2-1.3.3-.5.1-1 .2-1.5.2-.6 0-1.1-.1-1.6-.2-.5-.2-1-.4-1.3-.7-.4-.3-.7-.7-.9-1.2-.2-.5-.3-1-.3-1.7v-14.2h-2.7v-2.1h2.7v-6.7h2.6v6.7h4.6v2.1h-4.6v13.5c.1.7.3 1.3.8 1.6.5.3 1 .5 1.6.5.7 0 1.4-.1 1.9-.4.6-.2.9-.4 1.1-.5l.6 2.1zm8.2 1.3c-1 0-1.9-.2-2.8-.5s-1.6-.8-2.1-1.3c-.6-.6-1.1-1.2-1.4-1.9-.3-.7-.5-1.5-.5-2.3 0-.9.2-1.7.6-2.5.4-.7 1-1.4 1.7-1.9s1.6-.9 2.6-1.2c1-.3 2.2-.4 3.4-.4 1 0 2 .1 3 .3 1 .2 2 .4 2.8.8v-1.8c0-1.7-.5-3.1-1.5-4.2-1-1-2.4-1.5-4-1.5-1.1 0-2.1.2-3.2.6-1.1.4-2.1 1-3.2 1.7l-.9-1.7c1.3-.9 2.5-1.5 3.8-1.9 1.2-.4 2.5-.6 3.8-.6 2.4 0 4.3.7 5.7 2.1 1.4 1.4 2.1 3.3 2.1 5.8v8.9c0 .7.3 1.1.9 1.1v2.3c-.2 0-.4 0-.6.1h-.5c-.5 0-1-.2-1.4-.5s-.7-.8-.7-1.4l-.1-1.6c-.9 1.2-2 2.1-3.4 2.7-1.2.5-2.6.8-4.1.8zm.7-2c1.1 0 2.3-.2 3.4-.7 1.1-.5 2-1.2 2.7-2l.5-.7c.1-.3.2-.5.2-.7v-3.2c-.9-.3-1.8-.6-2.7-.8-.9-.2-1.8-.3-2.7-.3-1.8 0-3.4.4-4.5 1.1-1.2.7-1.7 1.8-1.7 3.1 0 .5.1 1.1.3 1.6.2.5.5 1 .9 1.4s.9.7 1.5 1 1.3.2 2.1.2zm15.4 7.8c.1 0 .3 0 .4.1h.4c.3 0 .5 0 .8-.1.3-.1.5-.1.6-.2l.4-.3c.1-.2.3-.5.5-.9s.5-1 .8-1.7c.3-.7.7-1.8 1.3-3l-8.6-19.8h2.7l7.3 17.4 6.8-17.4h2.5l-10.3 25.5c-.4.9-.9 1.6-1.5 2.1s-1.6.7-2.7.7c-.5 0-.9 0-1.3-.1v-2.3zm44.8-6.2h-2.6v-11.1c0-2.3-.4-3.9-1.2-5.1-.8-1.1-1.9-1.7-3.4-1.7-.7 0-1.5.1-2.2.4-.7.3-1.4.7-2 1.2-.6.5-1.2 1.1-1.7 1.8s-.8 1.4-1 2.2v12.1h-2.6v-27.7h2.6v12.4c.8-1.5 1.9-2.7 3.3-3.5 1.4-.9 2.9-1.3 4.5-1.3 1.1 0 2.1.2 2.9.6.8.4 1.4 1 1.9 1.7s.9 1.6 1.1 2.7c.2 1.1.3 2.2.3 3.5v11.8zm14 .4c-1.4 0-2.8-.3-4-.8-1.2-.5-2.3-1.3-3.2-2.2-.9-1-1.6-2-2.1-3.3-.5-1.2-.7-2.6-.7-4s.2-2.7.7-3.9c.5-1.2 1.2-2.3 2.1-3.2.9-.9 1.9-1.7 3.1-2.2 1.2-.5 2.5-.8 4-.8 1.4 0 2.8.3 4 .8 1.2.5 2.2 1.3 3.1 2.2s1.5 2 2 3.2c.5 1.2.7 2.5.7 3.9v.6c0 .2 0 .3-.1.4h-16.9c.1 1.1.3 2 .7 2.9.4.9 1 1.7 1.6 2.3.6.7 1.4 1.2 2.2 1.5.8.4 1.8.6 2.7.6.7 0 1.3-.1 1.9-.3.6-.2 1.2-.4 1.7-.7.5-.3 1-.7 1.4-1.1.4-.4.7-.9 1-1.5l2.2.6c-.3.7-.7 1.4-1.3 2-.6.6-1.2 1.1-1.9 1.6-.7.4-1.5.8-2.4 1-.6.3-1.5.4-2.5.4zm7.3-11.3c-.1-1.1-.3-2-.7-2.9-.4-.9-1-1.6-1.6-2.3-.6-.6-1.4-1.1-2.3-1.5-.9-.4-1.8-.5-2.7-.5-1 0-1.9.2-2.7.5-.9.4-1.6.8-2.3 1.5-.6.6-1.2 1.4-1.6 2.3-.4.9-.6 1.8-.7 2.9h14.6zm16.3-6.6c-1.7.1-3.3.5-4.6 1.4-1.3.9-2.2 2.2-2.7 3.8v12.3h-2.6v-19.8h2.4v4.8c.7-1.4 1.6-2.6 2.7-3.5 1.1-.9 2.3-1.4 3.6-1.4h1.1v2.4zm12.1 17.9c-1.4 0-2.8-.3-4-.8-1.2-.5-2.3-1.3-3.2-2.2-.9-1-1.6-2-2.1-3.3-.5-1.2-.7-2.6-.7-4s.2-2.7.7-3.9c.5-1.2 1.2-2.3 2.1-3.2.9-.9 1.9-1.7 3.1-2.2 1.2-.5 2.5-.8 4-.8 1.4 0 2.8.3 4 .8 1.2.5 2.2 1.3 3.1 2.2s1.5 2 2 3.2c.5 1.2.7 2.5.7 3.9v.6c0 .2 0 .3-.1.4h-16.9c.1 1.1.3 2 .7 2.9.4.9 1 1.7 1.6 2.3.6.7 1.4 1.2 2.2 1.5.8.4 1.8.6 2.7.6.7 0 1.3-.1 1.9-.3.6-.2 1.2-.4 1.7-.7.5-.3 1-.7 1.4-1.1.4-.4.7-.9 1-1.5l2.2.6c-.3.7-.7 1.4-1.3 2-.6.6-1.2 1.1-1.9 1.6-.7.4-1.5.8-2.4 1-.7.3-1.6.4-2.5.4zm7.3-11.3c-.1-1.1-.3-2-.7-2.9-.4-.9-1-1.6-1.6-2.3-.6-.6-1.4-1.1-2.3-1.5-.9-.4-1.8-.5-2.7-.5-1 0-1.9.2-2.7.5-.9.4-1.6.8-2.3 1.5-.6.6-1.2 1.4-1.6 2.3-.4.9-.6 1.8-.7 2.9h14.6zm17.1 10.9v-15.4h-2.7v-2.1h2.7v-2.8c0-2.4.5-4.3 1.6-5.7 1-1.4 2.5-2.1 4.3-2.1.8 0 1.5.1 2.2.3.7.2 1.4.5 1.9.9l-.8 1.9c-.4-.3-.8-.5-1.3-.6-.5-.2-1-.2-1.5-.2-1.2 0-2.1.5-2.8 1.4s-1 2.3-1 4.1v2.9h5.5v2.1h-5.5v15.4h-2.6zm20.3.4c-1.4 0-2.8-.3-4-.8-1.2-.5-2.2-1.3-3.1-2.2-.9-.9-1.6-2-2-3.3-.5-1.2-.7-2.5-.7-3.9s.2-2.7.7-4c.5-1.2 1.2-2.3 2.1-3.3s1.9-1.7 3.1-2.2c1.2-.6 2.5-.8 3.9-.8s2.7.3 3.9.8 2.2 1.3 3.1 2.2 1.6 2 2.1 3.3c.5 1.2.7 2.6.7 4s-.2 2.7-.7 3.9c-.5 1.2-1.2 2.3-2.1 3.3-.9.9-1.9 1.7-3.1 2.2-1.1.5-2.4.8-3.9.8zm-7.1-10.2c0 1.1.2 2.1.6 3.1s.9 1.8 1.5 2.5 1.4 1.3 2.3 1.7 1.8.6 2.8.6c1 0 1.9-.2 2.8-.6s1.6-1 2.3-1.7c.7-.7 1.2-1.6 1.6-2.5s.6-2 .6-3.1-.2-2.1-.6-3.1c-.4-1-.9-1.8-1.6-2.5-.7-.7-1.4-1.3-2.3-1.7-.9-.4-1.8-.6-2.8-.6-1 0-1.9.2-2.8.6-.9.4-1.6 1-2.3 1.7-.6.7-1.2 1.6-1.5 2.6-.4.9-.6 1.9-.6 3zm31.1-7.7c-1.7.1-3.3.5-4.6 1.4-1.3.9-2.2 2.2-2.7 3.8v12.3h-2.6v-19.8h2.4v4.8c.7-1.4 1.6-2.6 2.7-3.5 1.1-.9 2.3-1.4 3.6-1.4h1.1v2.4zm21.9 16.6c-.2.1-.4.2-.7.3-.3.1-.6.3-1 .4-.4.1-.8.2-1.3.3-.5.1-1 .2-1.5.2-.6 0-1.1-.1-1.6-.2-.5-.2-1-.4-1.3-.7-.4-.3-.7-.7-.9-1.2-.2-.5-.3-1-.3-1.7v-14.2h-2.8v-2.1h2.7v-6.7h2.6v6.7h4.6v2.1h-4.6v13.5c.1.7.3 1.3.8 1.6.5.3 1 .5 1.6.5.7 0 1.4-.1 1.9-.4.6-.2.9-.4 1.1-.5l.7 2.1zm11.2 1.3c-1.4 0-2.8-.3-4-.8-1.2-.5-2.2-1.3-3.1-2.2-.9-.9-1.6-2-2-3.3-.5-1.2-.7-2.5-.7-3.9s.2-2.7.7-4c.5-1.2 1.2-2.3 2.1-3.3s1.9-1.7 3.1-2.2c1.2-.6 2.5-.8 3.9-.8s2.7.3 3.9.8 2.2 1.3 3.1 2.2 1.6 2 2.1 3.3c.5 1.2.7 2.6.7 4s-.2 2.7-.7 3.9c-.5 1.2-1.2 2.3-2.1 3.3-.9.9-1.9 1.7-3.1 2.2-1.2.5-2.5.8-3.9.8zm-7.2-10.2c0 1.1.2 2.1.6 3.1s.9 1.8 1.5 2.5 1.4 1.3 2.3 1.7 1.8.6 2.8.6c1 0 1.9-.2 2.8-.6s1.6-1 2.3-1.7c.7-.7 1.2-1.6 1.6-2.5s.6-2 .6-3.1-.2-2.1-.6-3.1c-.4-1-.9-1.8-1.6-2.5-.7-.7-1.4-1.3-2.3-1.7-.9-.4-1.8-.6-2.8-.6-1 0-1.9.2-2.8.6-.9.4-1.6 1-2.3 1.7-.6.7-1.2 1.6-1.5 2.6-.4.9-.6 1.9-.6 3zm29.8 10.2c-1.4 0-2.8-.3-4-.8-1.2-.5-2.2-1.3-3.1-2.2-.9-.9-1.6-2-2-3.3-.5-1.2-.7-2.5-.7-3.9s.2-2.7.7-4c.5-1.2 1.2-2.3 2.1-3.3s1.9-1.7 3.1-2.2c1.2-.6 2.5-.8 3.9-.8s2.7.3 3.9.8 2.2 1.3 3.1 2.2 1.6 2 2.1 3.3c.5 1.2.7 2.6.7 4s-.2 2.7-.7 3.9c-.5 1.2-1.2 2.3-2.1 3.3-.9.9-1.9 1.7-3.1 2.2-1.2.5-2.5.8-3.9.8zm-7.2-10.2c0 1.1.2 2.1.6 3.1s.9 1.8 1.5 2.5 1.4 1.3 2.3 1.7 1.8.6 2.8.6c1 0 1.9-.2 2.8-.6s1.6-1 2.3-1.7c.7-.7 1.2-1.6 1.6-2.5s.6-2 .6-3.1-.2-2.1-.6-3.1c-.4-1-.9-1.8-1.6-2.5-.7-.7-1.4-1.3-2.3-1.7-.9-.4-1.8-.6-2.8-.6-1 0-1.9.2-2.8.6-.9.4-1.6 1-2.3 1.7-.6.7-1.2 1.6-1.5 2.6-.4.9-.6 1.9-.6 3zm31.1-17.9h2.6v23.3c0 .7.2 1.3.6 1.7s1 .6 1.7.6c.3 0 .6 0 1-.1s.7-.2 1.1-.3l.5 2.1c-.5.2-1.1.4-1.8.5-.7.1-1.3.2-1.8.2-1.2 0-2.1-.3-2.8-1-.7-.7-1-1.6-1-2.8v-24.2zm18.4 28.1c-1.4 0-2.8-.3-4-.8-1.2-.5-2.2-1.3-3.1-2.2-.9-.9-1.6-2-2-3.3-.5-1.2-.7-2.5-.7-3.9s.2-2.7.7-4c.5-1.2 1.2-2.3 2.1-3.3s1.9-1.7 3.1-2.2 2.5-.8 3.9-.8 2.7.3 3.9.8 2.2 1.3 3.1 2.2 1.6 2 2.1 3.3c.5 1.2.7 2.6.7 4s-.2 2.7-.7 3.9-1.2 2.3-2.1 3.3c-.9.9-1.9 1.7-3.1 2.2-1.1.5-2.5.8-3.9.8zm-7.2-10.2c0 1.1.2 2.1.6 3.1.4 1 .9 1.8 1.5 2.5s1.4 1.3 2.3 1.7 1.8.6 2.8.6 1.9-.2 2.8-.6 1.6-1 2.3-1.7c.7-.7 1.2-1.6 1.6-2.5.4-1 .6-2 .6-3.1s-.2-2.1-.6-3.1c-.4-1-.9-1.8-1.6-2.5-.7-.7-1.4-1.3-2.3-1.7s-1.8-.6-2.8-.6c-1 0-1.9.2-2.8.6s-1.6 1-2.3 1.7c-.6.7-1.2 1.6-1.5 2.6-.4.9-.6 1.9-.6 3zm37.9 9.8h-2.6v-11.1c0-2.4-.3-4.1-1-5.1-.7-1.1-1.7-1.6-3.2-1.6-.8 0-1.5.1-2.3.4-.8.3-1.5.7-2.1 1.2-.7.5-1.2 1.1-1.7 1.8s-.9 1.5-1.1 2.3v12.1h-2.6v-19.8h2.4v4.5c.4-.7.9-1.4 1.5-2 .6-.6 1.3-1.1 2-1.5.7-.4 1.5-.8 2.3-1 .8-.2 1.7-.3 2.6-.3 1.1 0 2 .2 2.8.6.7.4 1.3 1 1.8 1.7s.8 1.6 1 2.7c.2 1.1.3 2.2.3 3.5v11.6zm13.4.3c-1.4 0-2.6-.3-3.7-.9s-2.1-1.3-2.9-2.3-1.5-2-1.9-3.2-.7-2.5-.7-3.8c0-1.4.2-2.7.7-3.9.4-1.3 1.1-2.3 1.9-3.3.8-.9 1.8-1.7 2.9-2.2s2.4-.8 3.7-.8c1.7 0 3.2.4 4.4 1.3 1.2.8 2.3 1.9 3.2 3.2v-4.1h2.3v19.9c0 1.4-.3 2.6-.8 3.6-.5 1.1-1.2 1.9-2.1 2.6s-1.9 1.2-3.1 1.6c-1.2.4-2.4.5-3.8.5-2.3 0-4.1-.4-5.5-1.2s-2.5-1.9-3.4-3.3l1.6-1.3c.8 1.3 1.8 2.2 3.1 2.8 1.3.6 2.7.9 4.1.9 1 0 1.9-.1 2.8-.4.9-.3 1.6-.7 2.3-1.2.6-.5 1.2-1.2 1.5-2 .4-.8.6-1.7.6-2.8v-3.9c-.8 1.3-1.8 2.3-3.1 3-1.3.8-2.7 1.2-4.1 1.2zm.7-2.2c.8 0 1.5-.1 2.2-.4.7-.3 1.4-.7 2-1.1.6-.5 1.1-1 1.5-1.6s.7-1.2.8-1.8v-6.1c-.3-.7-.7-1.4-1.2-2-.5-.6-1-1.1-1.7-1.6-.6-.4-1.3-.8-2-1-.7-.3-1.4-.4-2.1-.4-1.1 0-2.1.2-3 .7-.9.5-1.6 1.1-2.2 1.8-.6.8-1.1 1.6-1.4 2.6-.3 1-.5 1.9-.5 2.9 0 1.1.2 2.1.6 3s.9 1.8 1.6 2.5c.7.7 1.4 1.3 2.3 1.7 1.1.6 2.1.8 3.1.8zm15.3-6.7v-18.6h2.6v18.6h-2.6zm0 8.6v-4.3h2.6v4.3h-2.6z"/><path class="st8" d="M563.4 612.8s-5-5.1-.8-6.4c0 0 4.7-.9 1.4 6.4h-.6z"/><path class="st4" d="M563.1 613.6s2.7 1.7.3 21.2c0 0 3.3-11.8.3-21.3l-.6.1z"/><path class="st8" d="M563.8 613.1s2.6-6.7 5.5-3.4c0 0 2.8 3.9-5.3 3.9l-.2-.5zm.3.4s7.1.4 4.9 4.2c0 0-2.9 3.8-5.4-3.8l.5-.4zm-.4 0s.9 7.1-3.2 5.6c0 0-4.3-2.2 2.8-6l.4.4zm-.4-.5s-5.8 4.1-6.5-.2c0 0-.1-4.8 6.6-.3l-.1.5z"/><path class="st4" d="M564.8 623.3s1.3-2.5 3.7-1.7c0 0 .7.3 1.6-.5 0 .1-1.5 4.9-5.3 2.2z"/><circle class="st19" cx="563.6" cy="613.3" r="1.4"/><path class="st4" d="M564.5 623.6s-1.3-2.5-3.7-1.7c0 0-.7.3-1.6-.5 0 0 1.5 4.8 5.3 2.2z"/><path class="st8" d="M368 581.8s-5-5.1-.8-6.4c0 0 4.7-.9 1.4 6.4h-.6z"/><path class="st4" d="M367.6 582.7s2.7 1.7.3 21.2c0 0 3.3-11.8.3-21.3l-.6.1z"/><path class="st8" d="M368.4 582.1s2.6-6.7 5.5-3.4c0 0 2.8 3.9-5.3 3.9l-.2-.5zm.2.4s7.1.4 4.9 4.2c0 0-2.9 3.8-5.4-3.8l.5-.4zm-.3 0s.9 7.1-3.2 5.6c0 0-4.3-2.2 2.8-6l.4.4zm-.4-.5s-5.8 4.1-6.5-.2c0 0-.1-4.8 6.6-.3l-.1.5z"/><path class="st4" d="M369.4 592.4s1.3-2.5 3.7-1.7c0 0 .7.3 1.6-.5-.1.1-1.5 4.9-5.3 2.2z"/><circle class="st19" cx="368.2" cy="582.3" r="1.4"/><path class="st4" d="M369.1 592.6s-1.3-2.5-3.7-1.7c0 0-.7.3-1.6-.5 0 .1 1.5 4.9 5.3 2.2z"/><path class="st8" d="M339.8 577.5s-5-5.1-.8-6.4c0 0 4.7-.9 1.4 6.4h-.6z"/><path class="st4" d="M339.4 578.3s2.7 1.7.3 21.2c0 0 3.3-11.8.3-21.3l-.6.1z"/><path class="st8" d="M340.2 577.8s2.6-6.7 5.5-3.4c0 0 2.8 3.9-5.3 3.9l-.2-.5zm.2.4s7.1.4 4.9 4.2c0 0-2.9 3.8-5.4-3.8l.5-.4zm-.3 0s.9 7.1-3.2 5.6c0 0-4.3-2.2 2.8-6l.4.4zm-.5-.5s-5.8 4.1-6.5-.2c0 0-.1-4.8 6.6-.3l-.1.5z"/><path class="st4" d="M341.1 588.1s1.3-2.5 3.7-1.7c0 0 .7.3 1.6-.5 0 0-1.5 4.8-5.3 2.2z"/><circle class="st19" cx="340" cy="578" r="1.4"/><path class="st4" d="M340.8 588.3s-1.3-2.5-3.7-1.7c0 0-.7.3-1.6-.5.1.1 1.5 4.9 5.3 2.2z"/><path class="st8" d="M359 635.2s-5-5.1-.8-6.4c0 0 4.7-.9 1.4 6.4h-.6z"/><path class="st4" d="M358.6 636s2.7 1.7.3 21.2c0 0 3.3-11.8.3-21.3l-.6.1z"/><path class="st8" d="M359.4 635.4s2.6-6.7 5.5-3.4c0 0 2.8 3.9-5.3 3.9l-.2-.5zm.2.4s7.1.4 4.9 4.2c0 0-2.9 3.8-5.4-3.8l.5-.4zm-.3.1s.9 7.1-3.2 5.6c0 0-4.3-2.2 2.8-6l.4.4zm-.5-.6s-5.8 4.1-6.5-.2c0 0-.1-4.8 6.6-.3l-.1.5z"/><path class="st4" d="M360.3 645.7s1.3-2.5 3.7-1.7c0 0 .7.3 1.6-.5 0 .1-1.5 4.9-5.3 2.2z"/><circle class="st19" cx="359.1" cy="635.7" r="1.4"/><path class="st4" d="M360 646s-1.3-2.5-3.7-1.7c0 0-.7.3-1.6-.5 0 0 1.5 4.8 5.3 2.2z"/><path class="st8" d="M626.3 596.9s-5-5.1-.8-6.4c0 0 4.7-.9 1.4 6.4h-.6z"/><path class="st4" d="M625.9 597.7s2.7 1.7.3 21.2c0 0 3.3-11.8.3-21.3l-.6.1z"/><path class="st8" d="M626.7 597.2s2.6-6.7 5.5-3.4c0 0 2.8 3.9-5.3 3.9l-.2-.5zm.2.4s7.1.4 4.9 4.2c0 0-2.9 3.8-5.4-3.8l.5-.4zm-.3 0s.9 7.1-3.2 5.6c0 0-4.3-2.2 2.8-6l.4.4zm-.4-.5s-5.8 4.1-6.5-.2c0 0-.1-4.8 6.6-.3l-.1.5z"/><path class="st4" d="M627.6 607.4s1.3-2.5 3.7-1.7c0 0 .7.3 1.6-.5 0 .1-1.4 4.9-5.3 2.2z"/><circle class="st19" cx="626.5" cy="597.4" r="1.4"/><path class="st4" d="M627.3 607.7s-1.3-2.5-3.7-1.7c0 0-.7.3-1.6-.5.1 0 1.5 4.8 5.3 2.2z"/><path class="st8" d="M705.2 547.2s-5-5.1-.8-6.4c0 0 4.7-.9 1.4 6.4h-.6z"/><path class="st4" d="M704.8 548s2.7 1.7.3 21.2c0 0 3.3-11.8.3-21.3l-.6.1z"/><path class="st8" d="M705.6 547.5s2.6-6.7 5.5-3.4c0 0 2.8 3.9-5.3 3.9l-.2-.5zm.2.4s7.1.4 4.9 4.2c0 0-2.9 3.8-5.4-3.8l.5-.4zm-.3 0s.9 7.1-3.2 5.6c0 0-4.3-2.2 2.8-6l.4.4zm-.4-.5s-5.8 4.1-6.5-.2c0 0-.1-4.8 6.6-.3l-.1.5z"/><path class="st4" d="M706.5 557.8s1.3-2.5 3.7-1.7c0 0 .7.3 1.6-.5 0 0-1.5 4.8-5.3 2.2z"/><circle class="st19" cx="705.4" cy="547.7" r="1.4"/><path class="st4" d="M706.2 558s-1.3-2.5-3.7-1.7c0 0-.7.3-1.6-.5.1.1 1.5 4.9 5.3 2.2z"/><path class="st8" d="M272.3 585.7s-5-5.1-.8-6.4c0 0 4.7-.9 1.4 6.4h-.6z"/><path class="st4" d="M271.9 586.5s2.7 1.7.3 21.2c0 0 3.3-11.8.3-21.3l-.6.1z"/><path class="st8" d="M272.7 586s2.6-6.7 5.5-3.4c0 0 2.8 3.9-5.3 3.9l-.2-.5zm.2.4s7.1.4 4.9 4.2c0 0-2.9 3.8-5.4-3.8l.5-.4zm-.3 0s.9 7.1-3.2 5.6c0 0-4.3-2.2 2.8-6l.4.4zm-.4-.5s-5.8 4.1-6.5-.2c0 0-.1-4.8 6.6-.3l-.1.5z"/><path class="st4" d="M273.6 596.2s1.3-2.5 3.7-1.7c0 0 .7.3 1.6-.5 0 .1-1.4 4.9-5.3 2.2z"/><circle class="st19" cx="272.5" cy="586.2" r="1.4"/><path class="st4" d="M273.4 596.5s-1.3-2.5-3.7-1.7c0 0-.7.3-1.6-.5 0 0 1.4 4.8 5.3 2.2z"/><path class="st8" d="M610 646.2s-5-5.1-.8-6.4c0 0 4.7-.9 1.4 6.4h-.6z"/><path class="st4" d="M609.6 647s2.7 1.7.3 21.2c0 0 3.3-11.8.3-21.3l-.6.1z"/><path class="st8" d="M610.4 646.5s2.6-6.7 5.5-3.4c0 0 2.8 3.9-5.3 3.9l-.2-.5zm.2.4s7.1.4 4.9 4.2c0 0-2.9 3.8-5.4-3.8l.5-.4zm-.3 0s.9 7.1-3.2 5.6c0 0-4.3-2.2 2.8-6l.4.4zm-.5-.6s-5.8 4.1-6.5-.2c0 0-.1-4.8 6.6-.3l-.1.5z"/><path class="st4" d="M611.3 656.7s1.3-2.5 3.7-1.7c0 0 .7.3 1.6-.5 0 .1-1.5 4.9-5.3 2.2z"/><circle class="st19" cx="610.1" cy="646.7" r="1.4"/><path class="st4" d="M611 657s-1.3-2.5-3.7-1.7c0 0-.7.3-1.6-.5 0 0 1.5 4.8 5.3 2.2z"/><path class="st8" d="M294.9 625.9s-5-5.1-.8-6.4c0 0 4.7-.9 1.4 6.4h-.6z"/><path class="st4" d="M294.5 626.7s2.7 1.7.3 21.2c0 0 3.3-11.8.3-21.3l-.6.1z"/><path class="st8" d="M295.3 626.2s2.6-6.7 5.5-3.4c0 0 2.8 3.9-5.3 3.9l-.2-.5zm.2.4s7.1.4 4.9 4.2c0 0-2.9 3.8-5.4-3.8l.5-.4zm-.3 0s.9 7.1-3.2 5.6c0 0-4.3-2.2 2.8-6l.4.4zm-.4-.5s-5.8 4.1-6.5-.2c0 0-.1-4.8 6.6-.3l-.1.5z"/><path class="st4" d="M296.2 636.5s1.3-2.5 3.7-1.7c0 0 .7.3 1.6-.5 0 0-1.4 4.8-5.3 2.2z"/><circle class="st19" cx="295.1" cy="626.4" r="1.4"/><path class="st4" d="M296 636.7s-1.3-2.5-3.7-1.7c0 0-.7.3-1.6-.5 0 .1 1.4 4.9 5.3 2.2z"/><path class="st8" d="M690.3 627.9s-5-5.1-.8-6.4c0 0 4.7-.9 1.4 6.4h-.6z"/><path class="st4" d="M689.9 628.7s2.7 1.7.3 21.2c0 0 3.3-11.8.3-21.3l-.6.1z"/><path class="st8" d="M690.7 628.2s2.6-6.7 5.5-3.4c0 0 2.8 3.9-5.3 3.9l-.2-.5zm.2.4s7.1.4 4.9 4.2c0 0-2.9 3.8-5.4-3.8l.5-.4zm-.3 0s.9 7.1-3.2 5.6c0 0-4.3-2.2 2.8-6l.4.4zm-.5-.5s-5.8 4.1-6.5-.2c0 0-.1-4.8 6.6-.3l-.1.5z"/><path class="st4" d="M691.6 638.5s1.3-2.5 3.7-1.7c0 0 .7.3 1.6-.5 0 0-1.5 4.8-5.3 2.2z"/><circle class="st19" cx="690.4" cy="628.4" r="1.4"/><path class="st4" d="M691.3 638.7s-1.3-2.5-3.7-1.7c0 0-.7.3-1.6-.5 0 .1 1.5 4.9 5.3 2.2z"/><path class="st10" d="M477.4 639.7l-1-.2-4.5-.9 3.2.7-4.8-1.5 3.6 4.4 1.9 2.9 3.9 3.2-.9 1.8 1.9 4.7 3.3 1.6 3.9 8 7.7 1.4-1.2-6.4-1.9-1.7-.4 1.9-3.4-2.8v-6.6l-4.8-.6"/></svg>