<svg xmlns="http://www.w3.org/2000/svg" xmlns:xlink="http://www.w3.org/1999/xlink" width="46" height="42.7" viewBox="665.3 500.6 46 42.7" enable-background="new 665.3 500.6 46 42.7"><style type="text/css">.st0{opacity:0.9;} .st1{fill:none;stroke:#FFFFFF;stroke-width:2;stroke-miterlimit:10;} .st2{fill:none;} .st3{display:none;fill:none;} .st4{fill:none;stroke:#FFFFFF;stroke-width:1.8033;stroke-miterlimit:10;} .st5{fill:#99999A;} .st6{fill:#30302F;} .st7{clip-path:url(#SVGID_2_);} .st8{fill:#FFFFFF;fill-opacity:0.3;} .st9{fill:#FFFFFF;fill-opacity:0.9;} .st10{clip-path:url(#SVGID_4_);fill:#FFFFFF;fill-opacity:0.3;} .st11{clip-path:url(#SVGID_4_);fill:#FFFFFF;fill-opacity:0.9;} .st12{clip-path:url(#SVGID_6_);fill:#FFFFFF;fill-opacity:0.9;} .st13{clip-path:url(#SVGID_6_);fill:#FFFFFF;fill-opacity:0.3;} .st14{fill:#FFFFFF;} .st15{opacity:0.54;} .st16{fill:none;stroke:#636464;stroke-miterlimit:10;} .st17{opacity:0.9;fill:#97C93C;} .st18{opacity:0.3;fill:#97C93C;} .st19{fill:#323134;} .st20{fill:none;stroke:#1D401D;stroke-linecap:round;stroke-linejoin:round;stroke-miterlimit:10;} .st21{fill:#1D401D;} .st22{fill:#003E59;} .st23{fill:#97C93C;} .st24{fill:#C1DC8A;} .st25{fill:none;stroke:#FFFFFF;stroke-width:7;stroke-linejoin:round;stroke-miterlimit:10;} .st26{fill:#C7C6CB;} .st27{fill:#707171;} .st28{fill:none;stroke:#FFFFFF;stroke-width:7;stroke-miterlimit:10;} .st29{fill:none;stroke:#DEDEDF;stroke-width:2;stroke-miterlimit:10;stroke-dasharray:5;} .st30{fill:#231F20;} .st31{fill:#97C93C;stroke:#6F6E6F;stroke-miterlimit:10;} .st32{fill:#ABCAEA;} .st33{fill:none;stroke:#929497;stroke-width:2;stroke-miterlimit:10;} .st34{fill:#686868;}</style><symbol id="navbar_x5F_icon_x5F_back" viewBox="-1 -24 25 24"><g class="st0"><image width="18" height="20" xlink:href="330127CD4453BFE5.png" transform="matrix(1 0 0 -1 2.787 -3.187)" overflow="visible" opacity=".2"/><path class="st1" d="M18-19c0-.4 0-.5-.3-.3l-12 7c-.3.2-.2.5.1.6l11.9 7c.3.2.3 0 .3-.3v-14z"/></g><path class="st2" d="M24-24h-24v24h24z"/><path class="st3" d="M-1 0h25v-24h-25z"/></symbol><symbol id="navbar_x5F_icon_x5F_home" viewBox="0 -24 24 24"><g class="st0"><image width="19" height="20" xlink:href="330127CD4453BFE7.png" transform="matrix(1 0 0 -1 2.783 -3.183)" overflow="visible" opacity=".2"/><path class="st4" d="M18.9-12c0-3.8-3.1-6.9-6.9-6.9-3.8 0-6.9 3.1-6.9 6.9 0 3.8 3.1 6.9 6.9 6.9 3.8 0 6.9-3.1 6.9-6.9z"/></g><path class="st2" d="M24-24h-24v24h24z"/><path class="st3" d="M0-1h24v-23h-24z"/></symbol><symbol id="navbar_x5F_icon_x5F_recents" viewBox="0 -24 24 24"><g class="st0"><image width="19" height="20" xlink:href="330127CD4453BFE2.png" transform="matrix(1 0 0 -1 2.667 -3.067)" overflow="visible" opacity=".2"/><path class="st1" d="M19-5.7c0 .3-.4.7-.8.7h-12.4c-.4 0-.8-.4-.8-.7v-12.6c0-.3.4-.7.8-.7h12.4c.4 0 .8.4.8.7v12.6z"/></g><path class="st2" d="M24-24h-24v24h24z"/><path class="st3" d="M0-1h24v-23h-24z"/></symbol><g id="CARDS"><circle class="st22" cx="688.4" cy="523" r="15.5"/><path class="st14" d="M687.5 520.6v9.6c0 .1 0 .1.1.1h2.9c.2 0 .2 0 .2-.2v-5.5c0-.2.1-.4.2-.6.2-.3.4-.6.7-.8.4-.3.9-.3 1.4-.2.3.1.6.3.8.6.1.2.2.3.2.5.1.3.1.7.1 1v5.1c0 .1 0 .1.1.1h3c.1 0 .1 0 .1-.1v-6.3c0-.4-.1-.9-.3-1.3-.2-.6-.5-1.1-.9-1.5-.6-.6-1.4-.8-2.2-.9-.3 0-.6 0-1 .1-.6.1-1.1.3-1.5.7l-.6.7-.1.1v-1.3000000000000003c-1.1.1-2.1.1-3.2.1zm-5 0v9.6c0 .1 0 .1.1.1h3c.2 0 .2 0 .2-.2v-9.5h-3.3zm1.6-4.7c-.2 0-.4 0-.6.1-.3.1-.7.3-.9.6-.3.4-.4.9-.3 1.5.1.5.4.9.9 1.1.5.2.9.2 1.4.1.3-.1.6-.3.9-.5.3-.4.5-.9.4-1.4-.1-.6-.4-1-1-1.2-.2-.3-.5-.3-.8-.3zM687.5 520.6h3.2v1.3000000000000003s.1 0 .1-.1c.2-.3.4-.5.6-.7.4-.4.9-.6 1.5-.7.3-.1.6-.1 1-.1.8 0 1.6.3 2.2.9.4.4.7.9.9 1.5.1.4.2.8.3 1.3v6.3c0 .1 0 .1-.1.1h-3c-.1 0-.1 0-.1-.1v-5.1c0-.3 0-.7-.1-1-.1-.2-.1-.4-.2-.5-.2-.3-.4-.5-.8-.6-.5-.1-1-.1-1.4.2-.3.2-.5.5-.7.8-.1.2-.2.4-.2.6v5.5c0 .2 0 .2-.2.2h-2.9c-.1 0-.1 0-.1-.1v-9.7zM682.5 520.6h3.2v9.5c0 .2 0 .2-.2.2h-3c-.1 0-.1 0-.1-.1v-9.5l.1-.1zM684.1 515.9c.3 0 .6 0 .8.2.5.2.9.6 1 1.2.1.5 0 1-.4 1.4-.2.3-.5.4-.9.5-.5.1-1 .1-1.4-.1-.5-.2-.8-.6-.9-1.1-.1-.5 0-1 .3-1.5.2-.3.5-.5.9-.6h.6z"/></g></svg>