<?xml version="1.0" encoding="utf-8"?>
<!-- Generator: Adobe Illustrator 19.1.0, SVG Export Plug-In . SVG Version: 6.00 Build 0)  -->
<!DOCTYPE svg PUBLIC "-//W3C//DTD SVG 1.1//EN" "http://www.w3.org/Graphics/SVG/1.1/DTD/svg11.dtd">
<svg version="1.1" xmlns="http://www.w3.org/2000/svg" xmlns:xlink="http://www.w3.org/1999/xlink" x="0px" y="0px" width="78.4px"
	 height="78.4px" viewBox="0 0 78.4 78.4" style="enable-background:new 0 0 78.4 78.4;" xml:space="preserve">
<style type="text/css">
	.st0{fill:none;}
	.st1{fill:#FFFFFF;}
</style>
<g id="Layer_1">
</g>
<g id="Isolation_Mode">
	<path class="st0" d="M0,0h78.4v78.4H0V0z"/>
	<polygon class="st1" points="25.7,11.1 21.6,6.1 6.5,18.7 10.7,23.6 	"/>
	<polygon class="st1" points="71.9,18.7 56.8,6.1 52.6,11.1 67.6,23.7 	"/>
	<path class="st1" d="M39.2,13.1C23,13.1,9.8,26.2,9.8,42.5s13.1,29.4,29.4,29.4c16.2,0,29.4-13.2,29.4-29.4S55.4,13.1,39.2,13.1z"
		/>
	<polygon class="st1" points="29.4,35.9 41.3,35.9 29.4,49.7 29.4,55.5 49,55.5 49,49 37.1,49 49,35.3 49,29.4 29.4,29.4 	"/>
</g>
</svg>
