<svg xmlns="http://www.w3.org/2000/svg" width="78.4" height="78.4" viewBox="-266 357.6 78.4 78.4" enable-background="new -266 357.6 78.4 78.4"><style type="text/css">.st0{fill:none;} .st1{fill:#FFFFFF;}</style><g id="Isolation_Mode"><path class="st0" d="M-266 357.6h78.4v78.4h-78.4v-78.4z"/><path class="st1" d="M-240.3 368.7l-4.1-5-15.1 12.6 4.2 5zm46.2 7.6l-15.1-12.6-4.2 5 15.1 12.6zm-32.7-5.6c-16.2 0-29.4 13.2-29.4 29.4s13.1 29.4 29.4 29.4c16.2 0 29.4-13.2 29.4-29.4s-13.2-29.4-29.4-29.4z"/><path class="st0" d="M-226.8 422.9c-12.6 0-22.9-10.2-22.9-22.9s10.2-22.9 22.9-22.9 22.9 10.2 22.9 22.9-10.3 22.9-22.9 22.9z"/><path class="st1" d="M-236.6 393.5h11.9l-11.9 13.8v5.8h19.6v-6.5h-11.9l11.9-13.7v-5.9h-19.6z"/></g></svg>