<?xml version="1.0" encoding="utf-8"?>
<!-- Generator: Adobe Illustrator 19.1.0, SVG Export Plug-In . SVG Version: 6.00 Build 0)  -->
<!DOCTYPE svg PUBLIC "-//W3C//DTD SVG 1.1//EN" "http://www.w3.org/Graphics/SVG/1.1/DTD/svg11.dtd">
<svg version="1.1" xmlns="http://www.w3.org/2000/svg" xmlns:xlink="http://www.w3.org/1999/xlink" x="0px" y="0px" width="78.4px"
	 height="78.4px" viewBox="-266 357.6 78.4 78.4" style="enable-background:new -266 357.6 78.4 78.4;" xml:space="preserve">
<style type="text/css">
	.st0{fill:none;}
	.st1{fill:#FFFFFF;}
</style>
<g id="Layer_1">
</g>
<g id="Isolation_Mode">
	<path class="st0" d="M-266,357.6h78.4V436H-266V357.6z"/>
	<polygon class="st1" points="-240.3,368.7 -244.4,363.7 -259.5,376.3 -255.3,381.3 	"/>
	<polygon class="st1" points="-194.1,376.3 -209.2,363.7 -213.4,368.7 -198.3,381.3 	"/>
	<path class="st1" d="M-226.8,370.7c-16.2,0-29.4,13.2-29.4,29.4s13.1,29.4,29.4,29.4c16.2,0,29.4-13.2,29.4-29.4
		S-210.6,370.7-226.8,370.7z"/>
	<path class="st0" d="M-226.8,422.9c-12.6,0-22.9-10.2-22.9-22.9s10.2-22.9,22.9-22.9s22.9,10.2,22.9,22.9S-214.2,422.9-226.8,422.9
		z"/>
	<polygon class="st1" points="-236.6,393.5 -224.7,393.5 -236.6,407.3 -236.6,413.1 -217,413.1 -217,406.6 -228.9,406.6 -217,392.9 
		-217,387 -236.6,387 	"/>
</g>
</svg>
