<svg xmlns="http://www.w3.org/2000/svg" width="649.8" height="649.8" viewBox="-286 72.2 649.8 649.8" enable-background="new -286 72.2 649.8 649.8"><style type="text/css">.st0{fill:#919191;} .st1{fill:#A7A7A7;} .st2{fill:#BDBDBD;} .st3{fill:none;stroke:#919191;stroke-width:10;stroke-miterlimit:10;} .st4{fill:#ABACAC;} .st5{fill:#BBB9B9;} .st6{fill:#B7B7B7;}</style><path class="st0" d="M43.3 546.4h-50.1c-4.2 0-7.7-3.1-8.3-7.3-2.1-16.8-10.2-59-39.5-83.9-9.7-8.3-17.7-18.4-22.7-30.2-5.5-12.8-9.9-30.6-8.6-53.2 1.5-24.6 10.1-48.2 24.5-68.1 17.6-24.3 49.2-54.3 97.8-54.3h-1.4c44.3 0 74.7 25 93.3 47.8 20.6 25.4 31.7 57.3 29.8 90-.9 15.5-4.5 28.1-8.6 37.9-5 11.7-13 21.9-22.7 30.1-29.3 24.9-37.4 67.1-39.5 83.9-.5 4.2-4.1 7.3-8.3 7.3h-51.8"/><path class="st0" d="M81.5 579.3h-87.7c-3.9 0-9.1-3.2-9.1-7.1v-5.3c0-3.9 3.2-7.1 7.1-7.1h89.7c3.9 0 7.1 3.2 7.1 7.1v5.3c0 3.9-3.1 7.1-7.1 7.1z"/><path class="st1" d="M78.9 605.9h-82.9c-3.9 0-7.1-3.2-7.1-7.1v-5.3c0-3.9 3.2-7.1 7.1-7.1h82.9c3.9 0 5.1 3.2 5.1 7.1v5.3c.1 3.9-1.1 7.1-5.1 7.1z"/><path class="st2" d="M59.9 632.7h-43.2c-3.9 0-7.1-3.2-7.1-7.1v-5.3c0-3.9 3.2-7.1 7.1-7.1h43.2c3.9 0 7.1 3.2 7.1 7.1v5.3c0 3.9-3.2 7.1-7.1 7.1z"/><circle class="st3" cx="38.9" cy="398.1" r="317.9"/><path class="st4" d="M-109.5 389l-69.1 6.6c-2 .2-3.7-1.4-3.7-3.3 0-1.7 1.3-3.2 3.1-3.4l69.1-6.6c2-.2 3.7 1.4 3.7 3.3 0 1.8-1.4 3.3-3.1 3.4zm-.2-34.4l-68.1-9.4c-1.9-.3-3.2-2-2.9-3.9.3-1.8 2-3.1 3.8-2.8l68.1 9.4c1.9.3 3.2 2 2.9 3.9-.2 1.8-1.9 3-3.8 2.8zm11.9-36.2l-67.6-28c-1.4-.6-2.2-2-1.9-3.5.3-2 2.5-3.2 4.4-2.4l67.6 28c1.4.6 2.2 2 1.9 3.5-.3 2-2.5 3.2-4.4 2.4zm20.2-34.2l-57.3-45.5c-1.2-.9-1.6-2.6-.9-3.9.9-1.9 3.3-2.4 4.9-1.1l57.3 45.5c1.2.9 1.6 2.6.9 3.9-.9 1.8-3.3 2.4-4.9 1.1z"/><path class="st5" d="M1.6 230l-18-70.9c-.4-1.5.3-3 1.7-3.7 1.8-.9 4.1.1 4.6 2.1l18 70.9c.4 1.5-.3 3-1.7 3.7-1.8.9-4-.1-4.6-2.1zm49.3-7.3l11-72.3c.2-1.5 1.5-2.6 3-2.7 2.1-.1 3.7 1.7 3.4 3.7l-11 72.3c-.2 1.5-1.5 2.6-3 2.7-2.1.1-3.8-1.7-3.4-3.7zm-94.5 29.1l-36.2-63.5c-.7-1.3-.5-3 .6-4 1.5-1.4 4-1 5 .8l36.2 63.5c.7 1.3.5 3-.6 4-1.5 1.4-3.9 1-5-.8z"/><path class="st6" d="M94.9 232.6l30.9-66.3c.6-1.4 2.1-2.1 3.6-1.8 2 .4 3.1 2.6 2.2 4.5l-30.9 66.3c-.6 1.4-2.1 2.1-3.6 1.8-2-.5-3.1-2.7-2.2-4.5zm31 23l51.3-52.1c1.1-1.1 2.7-1.3 4-.5 1.8 1.1 2 3.5.6 5l-51.3 52.2c-1.1 1.1-2.7 1.3-4 .5-1.7-1.1-2-3.6-.6-5.1zm90.6-8.9l-60.4 41.3c-1.2.8-2.9.7-4-.3-1.5-1.4-1.3-3.9.4-5l60.4-41.3c1.2-.8 2.9-.7 4 .3 1.5 1.4 1.3 3.8-.4 5zm24.7 54.1l-71 17.5c-1.5.4-3-.3-3.7-1.7-.9-1.8.1-4.1 2.1-4.6l71-17.5c1.5-.4 3 .3 3.7 1.7.9 1.9-.1 4.1-2.1 4.6zm13.5 49.9l-73 4.1c-1.5.1-2.9-.9-3.3-2.3-.6-2 .9-4 2.9-4.1l73-4.1c1.5-.1 2.9.9 3.3 2.3.6 1.9-.8 4-2.9 4.1zm1 46.6l-69.4-1.8c-2-.1-3.5-1.8-3.3-3.8.2-1.7 1.7-3 3.4-3l69.4 1.8c2 .1 3.5 1.8 3.3 3.8-.2 1.8-1.7 3.1-3.4 3z"/></svg>