<?xml version="1.0" encoding="utf-8"?>
<!-- Generator: Adobe Illustrator 19.1.0, SVG Export Plug-In . SVG Version: 6.00 Build 0)  -->
<!DOCTYPE svg PUBLIC "-//W3C//DTD SVG 1.1//EN" "http://www.w3.org/Graphics/SVG/1.1/DTD/svg11.dtd">
<svg version="1.1" id="Layer_1" xmlns="http://www.w3.org/2000/svg" xmlns:xlink="http://www.w3.org/1999/xlink" x="0px" y="0px"
	 width="27.1px" height="19.3px" viewBox="0 0 27.1 19.3" style="enable-background:new 0 0 27.1 19.3;" xml:space="preserve">
<style type="text/css">
	.st0{fill:#004C72;}
</style>
<g>
	<path class="st0" d="M13.6,11.5L13.6,11.5L13.6,11.5L13.6,11.5z"/>
	<path class="st0" d="M25.3,0H1.8C0.8,0,0,0.8,0,1.8v15.6c0,1,0.8,1.9,1.9,1.9h23.5c1,0,1.8-0.8,1.8-1.9V1.8C27.1,0.8,26.3,0,25.3,0
		z M24.9,1.5l-11.2,9.9l-0.1,0.1l0,0l0,0L2.3,1.5H24.9z M1,17.4V1.8c0,0,0-0.1,0-0.1l8.6,7.7L1,17.6C1,17.5,1,17.5,1,17.4z
		 M25.3,18.3H1.8c0,0,0,0-0.1,0l8.6-8.2l2.5,2.2c0.2,0.2,0.4,0.3,0.7,0.3c0.2,0,0.5-0.1,0.7-0.2l0,0l2.5-2.2L25.3,18.3
		C25.3,18.3,25.3,18.3,25.3,18.3z M26.1,17.4c0,0.1,0,0.1,0,0.2l-8.6-8.2l8.6-7.7c0,0,0,0.1,0,0.1V17.4z"/>
</g>
</svg>
