<svg xmlns="http://www.w3.org/2000/svg" width="68.6" height="68.6" viewBox="0 0 68.6 68.6"><style type="text/css">.st0{fill:#DE8E2F;} .st1{fill:none;} .st2{fill:#FFFFFF;}</style><g id="Isolation_Mode"><path class="st1" d="M0 0h68.6v68.6h-68.6v-68.6z"/><path class="st0" d="M22.5 9.7l-3.6-4.4-13.2 11 3.7 4.4zm40.4 6.6l-13.2-11-3.7 4.4 13.2 11zm-28.6-4.9c-14.2 0-25.7 11.6-25.7 25.8s11.5 25.7 25.7 25.7 25.7-11.5 25.7-25.7-11.5-25.8-25.7-25.8z"/><path class="st2" d="M34.3 57.2c-11.1 0-20-8.9-20-20s8.9-20 20-20 20 8.9 20 20-8.9 20-20 20z"/><path class="st0" d="M25.7 31.4h10.4l-10.4 12v5.2h17.2v-5.7h-10.4l10.4-12v-5.2h-17.2z"/></g></svg>