<svg xmlns="http://www.w3.org/2000/svg" width="73.8" height="68.6" viewBox="0 0 73.8 68.6"><style type="text/css">.st0{fill:#DE8E2F;} .st1{fill:none;} .st2{fill:#FFFFFF;}</style><g id="Layouts"><circle class="st0" cx="37.4" cy="35.4" r="9.2"/><path class="st0" d="M28.8 6.7l-5.3 5.7h-9.1c-3.2 0-5.7 2.6-5.7 5.7v34.4c0 3.2 2.6 5.7 5.7 5.7h45.9c3.2 0 5.7-2.6 5.7-5.7v-34.3c0-3.2-2.6-5.7-5.7-5.7h-9.1l-5.2-5.8h-17.2zm8.6 43c-7.9 0-14.3-6.4-14.3-14.3s6.3-14.4 14.3-14.4 14.3 6.4 14.3 14.3-6.4 14.4-14.3 14.4z"/></g></svg>