<?xml version="1.0" encoding="utf-8"?>
<!-- Generator: Adobe Illustrator 19.1.0, SVG Export Plug-In . SVG Version: 6.00 Build 0)  -->
<!DOCTYPE svg PUBLIC "-//W3C//DTD SVG 1.1//EN" "http://www.w3.org/Graphics/SVG/1.1/DTD/svg11.dtd">
<svg version="1.1" xmlns="http://www.w3.org/2000/svg" xmlns:xlink="http://www.w3.org/1999/xlink" x="0px" y="0px" width="73.8px"
	 height="68.6px" viewBox="0 0 73.8 68.6" style="enable-background:new 0 0 73.8 68.6;" xml:space="preserve">
<style type="text/css">
	.st0{fill:#DE8E2F;}
	.st1{fill:none;}
	.st2{fill:#FFFFFF;}
</style>
<g id="Layer_1">
</g>
<g id="Layouts">
	<circle class="st0" cx="37.4" cy="35.4" r="9.2"/>
	<path class="st0" d="M28.8,6.7l-5.3,5.7h-9.1c-3.2,0-5.7,2.6-5.7,5.7v34.4c0,3.2,2.6,5.7,5.7,5.7h45.9c3.2,0,5.7-2.6,5.7-5.7V18.2
		c0-3.2-2.6-5.7-5.7-5.7h-9.1L46,6.7H28.8z M37.4,49.7c-7.9,0-14.3-6.4-14.3-14.3S29.4,21,37.4,21s14.3,6.4,14.3,14.3
		S45.3,49.7,37.4,49.7z"/>
</g>
<g id="Isolation_Mode">
</g>
</svg>
