<?xml version="1.0" encoding="utf-8"?>
<!-- Generator: Adobe Illustrator 19.1.0, SVG Export Plug-In . SVG Version: 6.00 Build 0)  -->
<!DOCTYPE svg PUBLIC "-//W3C//DTD SVG 1.1//EN" "http://www.w3.org/Graphics/SVG/1.1/DTD/svg11.dtd">
<svg version="1.1" xmlns="http://www.w3.org/2000/svg" xmlns:xlink="http://www.w3.org/1999/xlink" x="0px" y="0px" width="68.6px"
	 height="68.6px" viewBox="0 0 68.6 68.6" style="enable-background:new 0 0 68.6 68.6;" xml:space="preserve">
<style type="text/css">
	.st0{fill:#DE8E2F;}
	.st1{fill:none;}
	.st2{fill:#FFFFFF;}
</style>
<g id="Layer_1">
</g>
<g id="Layouts">
</g>
<g id="Isolation_Mode">
	<g>
		<path class="st1" d="M0,0h68.6v68.6H0V0z"/>
		<polygon class="st0" points="22.5,9.7 18.9,5.3 5.7,16.3 9.4,20.7 		"/>
		<polygon class="st0" points="62.9,16.3 49.7,5.3 46,9.7 59.2,20.7 		"/>
		<path class="st0" d="M34.3,11.4C20.1,11.4,8.6,23,8.6,37.2s11.5,25.7,25.7,25.7C48.5,62.9,60,51.4,60,37.2S48.5,11.4,34.3,11.4z"
			/>
		<path class="st2" d="M34.3,57.2c-11.1,0-20-8.9-20-20s8.9-20,20-20s20,8.9,20,20S45.4,57.2,34.3,57.2z"/>
		<polygon class="st0" points="25.7,31.4 36.1,31.4 25.7,43.4 25.7,48.6 42.9,48.6 42.9,42.9 32.5,42.9 42.9,30.9 42.9,25.7 
			25.7,25.7 		"/>
	</g>
</g>
</svg>
