<svg xmlns="http://www.w3.org/2000/svg" width="486.7" height="486.7" viewBox="-686.1 47.3 486.7 486.7" enable-background="new -686.1 47.3 486.7 486.7"><style type="text/css">.st0{fill:#C1C1C0;} .st1{fill:#FFFFFF;}</style><path class="st0" d="M-686.1 47.3h486.7v486.7h-486.7z"/><path class="st1" d="M-522.5 272.8v42h-5.5v-42h5.5zM-477.7 296.3c-.4-5.8-.7-12.9-.7-18.1h-.2c-1.4 5-3.2 10.1-5.3 16l-7.4 20.4h-4.1l-6.7-20c-1.9-5.8-3.7-11.3-4.8-16.3h-.2c-.2 5.3-.4 12.2-.9 18.6l-1.1 18.1h-5.1l3-42h6.9l7.1 20.4c1.8 5.1 3.2 9.7 4.3 14.2h.2c1.1-4.3 2.5-8.9 4.4-14.2l7.4-20.4h6.9l2.7 42h-5.3l-1.1-18.7zM-456.7 301.7l-4.4 13.3h-5.7l14.4-42h6.6l14.4 42h-5.8l-4.4-13.3h-15.1zm13.8-4.3l-4.1-12.1c-.9-2.7-1.6-5.3-2.1-7.6h-.2c-.7 2.5-1.2 5-2.1 7.6l-4.1 12.2h12.6v-.1zM-394.4 313c-2.5.9-7.3 2.3-12.9 2.3-6.4 0-11.5-1.6-15.8-5.5-3.5-3.5-5.8-9-5.8-15.6 0-12.6 8.7-21.6 22.7-21.6 4.8 0 8.7 1.1 10.5 1.9l-1.2 4.4c-2.3-1.1-5.1-1.8-9.2-1.8-10.3 0-16.8 6.4-16.8 16.8 0 10.6 6.4 17 16.1 17 3.5 0 6-.5 7.3-1.1v-12.6h-8.5v-4.2h13.8l-.2 20zM-364.2 295.1h-16.3v15.2h18.3v4.6h-23.6v-42h22.7v4.6h-17.2v13.3h16.3v4.3h-.2z"/></svg>