<?xml version="1.0" encoding="utf-8"?>
<!-- Generator: Adobe Illustrator 19.1.0, SVG Export Plug-In . SVG Version: 6.00 Build 0)  -->
<!DOCTYPE svg PUBLIC "-//W3C//DTD SVG 1.1//EN" "http://www.w3.org/Graphics/SVG/1.1/DTD/svg11.dtd">
<svg version="1.1" id="Layer_1" xmlns="http://www.w3.org/2000/svg" xmlns:xlink="http://www.w3.org/1999/xlink" x="0px" y="0px"
	 width="274.6px" height="274.6px" viewBox="0 0 274.6 274.6" style="enable-background:new 0 0 274.6 274.6;" xml:space="preserve"
	>
<style type="text/css">
	.st0{fill:#C1C1C0;}
	.st1{fill:#FFFFFF;}
</style>
<rect class="st0" width="274.6" height="274.6"/>
<g>
	<path class="st1" d="M92.3,127.2v23.7h-3.1v-23.7H92.3z"/>
	<path class="st1" d="M117.6,140.5c-0.2-3.3-0.4-7.3-0.4-10.2h-0.1c-0.8,2.8-1.8,5.7-3,9l-4.2,11.5h-2.3l-3.8-11.3
		c-1.1-3.3-2.1-6.4-2.7-9.2H101c-0.1,3-0.2,6.9-0.5,10.5l-0.6,10.2H97l1.7-23.7h3.9l4,11.5c1,2.9,1.8,5.5,2.4,8h0.1
		c0.6-2.4,1.4-5,2.5-8l4.2-11.5h3.9l1.5,23.7h-3L117.6,140.5z"/>
	<path class="st1" d="M129.4,143.5l-2.5,7.5h-3.2l8.1-23.7h3.7l8.1,23.7h-3.3l-2.5-7.5H129.4z M137.2,141.1l-2.3-6.8
		c-0.5-1.5-0.9-3-1.2-4.3h-0.1c-0.4,1.4-0.7,2.8-1.2,4.3l-2.3,6.9H137.2z"/>
	<path class="st1" d="M164.6,149.9c-1.4,0.5-4.1,1.3-7.3,1.3c-3.6,0-6.5-0.9-8.9-3.1c-2-2-3.3-5.1-3.3-8.8c0-7.1,4.9-12.2,12.8-12.2
		c2.7,0,4.9,0.6,5.9,1.1l-0.7,2.5c-1.3-0.6-2.9-1-5.2-1c-5.8,0-9.5,3.6-9.5,9.5c0,6,3.6,9.6,9.1,9.6c2,0,3.4-0.3,4.1-0.6v-7.1h-4.8
		v-2.5h7.8V149.9z"/>
	<path class="st1" d="M181.6,139.8h-9.2v8.6h10.3v2.6h-13.3v-23.7h12.8v2.6h-9.7v7.5h9.2V139.8z"/>
</g>
<g>
</g>
<g>
</g>
<g>
</g>
<g>
</g>
<g>
</g>
<g>
</g>
</svg>
