<svg xmlns="http://www.w3.org/2000/svg" width="380.1" height="380.1" viewBox="-579.5 153.9 380.1 380.1" enable-background="new -579.5 153.9 380.1 380.1"><style type="text/css">.st0{fill:#C1C1C0;} .st1{fill:#FFFFFF;}</style><path class="st0" d="M-579.5 153.9h380.1v380.1h-380.1z"/><path class="st1" d="M-451.7 330v32.8h-4.3v-32.8h4.3zm35 18.4c-.3-4.6-.6-10.1-.6-14.1h-.1c-1.1 3.9-2.5 7.9-4.2 12.5l-5.8 15.9h-3.2l-5.3-15.6c-1.5-4.6-2.9-8.9-3.7-12.7h-.1c-.1 4.2-.3 9.6-.7 14.5l-.8 14.1h-4l2.4-32.8h5.4l5.5 15.9c1.4 4 2.5 7.6 3.3 11.1h.1c.8-3.3 1.9-6.9 3.5-11.1l5.8-15.9h5.4l2.1 32.8h-4.2l-.8-14.6zm16.3 4.1l-3.5 10.4h-4.4l11.2-32.8h5.1l11.2 32.8h-4.6l-3.5-10.4h-11.5zm10.8-3.3l-3.2-9.4c-.7-2.1-1.2-4.2-1.7-6h-.1c-.6 1.9-1 3.9-1.7 6l-3.2 9.6h9.8v-.2zm37.9 12.2c-1.9.7-5.7 1.8-10.1 1.8-5 0-9-1.2-12.3-4.3-2.8-2.8-4.6-7.1-4.6-12.2 0-9.8 6.8-16.9 17.7-16.9 3.7 0 6.8.8 8.2 1.5l-1 3.5c-1.8-.8-4-1.4-7.2-1.4-8 0-13.1 5-13.1 13.1 0 8.3 5 13.3 12.6 13.3 2.8 0 4.7-.4 5.7-.8v-9.8h-6.6v-3.5h10.8v15.7h-.1zm23.6-14h-12.7v11.9h14.3v3.6h-18.5v-32.8h17.7v3.6h-13.4v10.4h12.7v3.3h-.1z"/></svg>