<?xml version="1.0" encoding="utf-8"?>
<!-- Generator: Adobe Illustrator 19.1.0, SVG Export Plug-In . SVG Version: 6.00 Build 0)  -->
<!DOCTYPE svg PUBLIC "-//W3C//DTD SVG 1.1//EN" "http://www.w3.org/Graphics/SVG/1.1/DTD/svg11.dtd">
<svg version="1.1" xmlns="http://www.w3.org/2000/svg" xmlns:xlink="http://www.w3.org/1999/xlink" x="0px" y="0px" width="46px"
	 height="42.7px" viewBox="606.5 500.6 46 42.7" style="enable-background:new 606.5 500.6 46 42.7;" xml:space="preserve">
<style type="text/css">
	.st0{opacity:0.9;}
	.st1{fill:none;stroke:#FFFFFF;stroke-width:2;stroke-miterlimit:10;}
	.st2{fill:none;}
	.st3{display:none;fill:none;}
	.st4{fill:none;stroke:#FFFFFF;stroke-width:1.8033;stroke-miterlimit:10;}
	.st5{fill:#99999A;}
	.st6{fill:#30302F;}
	.st7{clip-path:url(#SVGID_2_);}
	.st8{fill:#FFFFFF;fill-opacity:0.3;}
	.st9{fill:#FFFFFF;fill-opacity:0.9;}
	.st10{clip-path:url(#SVGID_4_);fill:#FFFFFF;fill-opacity:0.3;}
	.st11{clip-path:url(#SVGID_4_);fill:#FFFFFF;fill-opacity:0.9;}
	.st12{clip-path:url(#SVGID_6_);fill:#FFFFFF;fill-opacity:0.9;}
	.st13{clip-path:url(#SVGID_6_);fill:#FFFFFF;fill-opacity:0.3;}
	.st14{fill:#FFFFFF;}
	.st15{opacity:0.54;}
	.st16{fill:none;stroke:#636464;stroke-miterlimit:10;}
	.st17{opacity:0.9;fill:#97C93C;}
	.st18{opacity:0.3;fill:#97C93C;}
	.st19{fill:#323134;}
	.st20{fill:none;stroke:#1D401D;stroke-linecap:round;stroke-linejoin:round;stroke-miterlimit:10;}
	.st21{fill:#1D401D;}
	.st22{fill:#003E59;}
	.st23{fill:#97C93C;}
	.st24{fill:#C1DC8A;}
	.st25{fill:none;stroke:#FFFFFF;stroke-width:7;stroke-linejoin:round;stroke-miterlimit:10;}
	.st26{fill:#C7C6CB;}
	.st27{fill:#707171;}
	.st28{fill:none;stroke:#FFFFFF;stroke-width:7;stroke-miterlimit:10;}
	.st29{fill:none;stroke:#DEDEDF;stroke-width:2;stroke-miterlimit:10;stroke-dasharray:5;}
	.st30{fill:#231F20;}
	.st31{fill:#97C93C;stroke:#6F6E6F;stroke-miterlimit:10;}
	.st32{fill:#ABCAEA;}
	.st33{fill:none;stroke:#929497;stroke-width:2;stroke-miterlimit:10;}
	.st34{fill:#686868;}
</style>
<symbol  id="navbar_x5F_icon_x5F_back" viewBox="-1 -24 25 24">
	<g class="st0">
		
			<image style="overflow:visible;opacity:0.2;" width="18" height="20" xlink:href="32F8BCC08A456B9A.png"  transform="matrix(1 0 0 -1 2.7869 -3.1869)">
		</image>
		<g>
			<g>
				<path class="st1" d="M18-19c0-0.4,0-0.5-0.3-0.3l-12,7c-0.3,0.2-0.2,0.5,0.1,0.6l11.9,7C18-4.5,18-4.7,18-5V-19z"/>
			</g>
		</g>
	</g>
	<polygon class="st2" points="24,-24 0,-24 0,0 24,0 	"/>
	<polygon class="st3" points="-1,0 24,0 24,-24 -1,-24 	"/>
</symbol>
<symbol  id="navbar_x5F_icon_x5F_home" viewBox="0 -24 24 24">
	<g class="st0">
		
			<image style="overflow:visible;opacity:0.2;" width="19" height="20" xlink:href="32F8BCC08A456B9E.png"  transform="matrix(1 0 0 -1 2.7828 -3.1828)">
		</image>
		<g>
			<path class="st4" d="M18.9-12c0-3.8-3.1-6.9-6.9-6.9c-3.8,0-6.9,3.1-6.9,6.9c0,3.8,3.1,6.9,6.9,6.9C15.8-5.1,18.9-8.2,18.9-12z"
				/>
		</g>
	</g>
	<polygon class="st2" points="24,-24 0,-24 0,0 24,0 	"/>
	<polygon class="st3" points="0,-1 24,-1 24,-24 0,-24 	"/>
</symbol>
<symbol  id="navbar_x5F_icon_x5F_recents" viewBox="0 -24 24 24">
	<g class="st0">
		
			<image style="overflow:visible;opacity:0.2;" width="19" height="20" xlink:href="32F8BCC08A456B99.png"  transform="matrix(1 0 0 -1 2.6669 -3.0669)">
		</image>
		<g>
			<g>
				<path class="st1" d="M19-5.7C19-5.4,18.6-5,18.2-5H5.8C5.4-5,5-5.4,5-5.7v-12.6C5-18.6,5.4-19,5.8-19h12.4
					c0.4,0,0.8,0.4,0.8,0.7V-5.7z"/>
			</g>
		</g>
	</g>
	<polygon class="st2" points="24,-24 0,-24 0,0 24,0 	"/>
	<polygon class="st3" points="0,-1 24,-1 24,-24 0,-24 	"/>
</symbol>
<g id="Layer_1">
</g>
<g id="Layouts">
</g>
<g id="_x3C_Layer_x3E_">
</g>
<g id="Isolation_Mode">
</g>
<g id="Mask">
</g>
<g id="CARDS">
	<g id="ic_x5F_plus_1_" class="st15">
	</g>
	<circle class="st22" cx="629.7" cy="523" r="15.5"/>
	<g>
		<path class="st14" d="M619.9,517.2c0,4.2,0,8.4,0,12.6c0.1,0,0.1,0,0.2,0c0.9,0,1.8,0,2.7,0c1.3,0,2.5,0,3.8,0
			c0.3,0,0.6,0,0.9-0.1c0.7-0.1,1.3-0.4,1.8-0.7c0.4-0.3,0.7-0.6,1-1c0.5-0.8,0.6-1.7,0.4-2.7c-0.1-0.6-0.4-1.1-0.8-1.6
			c-0.3-0.3-0.6-0.5-0.9-0.6c-0.1-0.1-0.2-0.1-0.4-0.2c0,0,0,0,0,0c0.1-0.1,0.2-0.2,0.3-0.2c1-0.8,1.4-1.7,1.3-3
			c-0.1-0.7-0.4-1.2-0.9-1.7c-0.7-0.6-1.4-0.8-2.3-0.8c-0.4,0-0.8,0-1.2,0c-1.9,0-3.9,0-5.8,0C620,517.2,620,517.2,619.9,517.2z
			 M640.6,525.9c0-0.1,0-0.1,0-0.2c0-0.5,0-1-0.1-1.5c-0.4-2-2.1-3.5-4.3-3.7c-0.5,0-1.1,0-1.6,0.2c-1.4,0.4-2.4,1.3-3,2.6
			c-0.3,0.7-0.4,1.5-0.4,2.3c0,0.7,0.2,1.3,0.4,1.9c0.4,1,1.1,1.8,2.1,2.2c0.6,0.3,1.2,0.4,1.9,0.4c0.7,0,1.4,0,2.1-0.2
			c0.5-0.1,0.9-0.3,1.3-0.6c0.7-0.5,1.2-1.3,1.4-2.1c0,0,0-0.1,0-0.1c-0.1,0-0.1,0-0.1,0c-0.6,0-1.2,0-1.8,0c-0.2,0-0.4,0.1-0.5,0.2
			c-0.1,0.1-0.2,0.2-0.3,0.3c-0.3,0.3-0.5,0.5-0.9,0.6c-0.2,0.1-0.4,0.1-0.6,0.1c-0.6,0-1.1-0.1-1.6-0.5c-0.4-0.4-0.7-0.9-0.8-1.5
			c0-0.1,0-0.2,0-0.3C636.1,525.9,638.4,525.9,640.6,525.9z M633.1,518.1c0,0.4,0,0.8,0,1.2c1.9,0,3.7,0,5.6,0c0-0.4,0-0.8,0-1.2
			C636.8,518.1,635,518.1,633.1,518.1z"/>
		<path class="st14" d="M619.9,517.2c0.1,0,0.1,0,0.1,0c1.9,0,3.9,0,5.8,0c0.4,0,0.8,0,1.2,0c0.8,0,1.6,0.3,2.3,0.8
			c0.5,0.4,0.8,1,0.9,1.7c0.2,1.2-0.3,2.2-1.3,3c-0.1,0.1-0.2,0.2-0.3,0.2c0,0,0,0,0,0c0.1,0.1,0.2,0.1,0.4,0.2
			c0.3,0.2,0.7,0.4,0.9,0.6c0.4,0.4,0.7,1,0.8,1.6c0.2,0.9,0.1,1.8-0.4,2.7c-0.2,0.4-0.6,0.7-1,1c-0.6,0.4-1.2,0.6-1.8,0.7
			c-0.3,0.1-0.6,0.1-0.9,0.1c-1.3,0-2.5,0-3.8,0c-0.9,0-1.8,0-2.7,0c-0.1,0-0.1,0-0.2,0C619.9,525.6,619.9,521.4,619.9,517.2z
			 M622.8,527.6c0,0,0.1,0,0.1,0c0.5,0,1,0,1.5,0c0.6,0,1.3,0,1.9,0c0.1,0,0.2,0,0.3,0c0.8-0.2,1.3-0.9,1.3-1.6
			c0-0.5-0.2-0.9-0.5-1.2c-0.4-0.4-0.9-0.5-1.4-0.5c-1,0-2,0-3,0c-0.1,0-0.2,0-0.3,0C622.8,525.4,622.8,526.5,622.8,527.6z
			 M622.8,519.4c0,0.1,0,0.1,0,0.1c0,0.8,0,1.6,0,2.5c0,0.1,0,0.2,0,0.3c0,0.1,0,0.1,0.1,0.1c0,0,0.1,0,0.1,0c1,0,1.9,0,2.9,0
			c0.3,0,0.6-0.1,0.9-0.2c0.8-0.5,0.9-1.6,0.3-2.2c-0.3-0.3-0.7-0.4-1.1-0.5c-0.4,0-0.8,0-1.2,0c-0.6,0-1.2,0-1.8,0
			C622.9,519.4,622.8,519.4,622.8,519.4z"/>
		<path class="st14" d="M640.6,525.9c-2.3,0-4.5,0-6.8,0c0,0.1,0,0.2,0,0.3c0.1,0.6,0.3,1.1,0.8,1.5c0.5,0.4,1,0.6,1.6,0.5
			c0.2,0,0.4-0.1,0.6-0.1c0.4-0.1,0.7-0.3,0.9-0.6c0.1-0.1,0.2-0.2,0.3-0.3c0.1-0.2,0.3-0.2,0.5-0.2c0.6,0,1.2,0,1.8,0
			c0,0,0.1,0,0.1,0c0,0,0,0.1,0,0.1c-0.2,0.9-0.7,1.6-1.4,2.1c-0.4,0.3-0.9,0.5-1.3,0.6c-0.7,0.2-1.4,0.3-2.1,0.2
			c-0.6,0-1.3-0.2-1.9-0.4c-1-0.4-1.7-1.2-2.1-2.2c-0.2-0.6-0.4-1.2-0.4-1.9c0-0.8,0.1-1.6,0.4-2.3c0.6-1.3,1.6-2.2,3-2.6
			c0.5-0.2,1.1-0.2,1.6-0.2c2.2,0.2,3.9,1.7,4.3,3.7c0.1,0.5,0.1,1,0.1,1.5C640.7,525.7,640.7,525.8,640.6,525.9z M638.1,524.3
			c0-0.1,0-0.2,0-0.3c-0.1-0.6-0.5-1.1-1-1.5c-0.3-0.2-0.7-0.3-1.1-0.3c-0.5,0-0.9,0.2-1.2,0.5c-0.4,0.3-0.6,0.7-0.7,1.1
			c0,0.1-0.1,0.3,0,0.4C635.3,524.3,636.7,524.3,638.1,524.3z"/>
		<path class="st14" d="M633.1,518.1c1.9,0,3.7,0,5.6,0c0,0.4,0,0.8,0,1.2c-1.9,0-3.7,0-5.6,0C633.1,518.9,633.1,518.5,633.1,518.1z
			"/>
		<path class="st22" d="M622.8,519.4c0.1,0,0.1,0,0.1,0c0.6,0,1.2,0,1.8,0c0.4,0,0.8,0,1.2,0c0.4,0,0.8,0.2,1.1,0.5
			c0.6,0.6,0.6,1.8-0.3,2.2c-0.3,0.2-0.6,0.2-0.9,0.2c-1,0-1.9,0-2.9,0c0,0-0.1,0-0.1,0c0,0-0.1,0-0.1-0.1c0-0.1,0-0.2,0-0.3
			c0-0.8,0-1.6,0-2.5C622.8,519.4,622.8,519.4,622.8,519.4z"/>
		<path class="st22" d="M638.1,524.3c-1.4,0-2.8,0-4.2,0c0-0.1,0-0.3,0-0.4c0.1-0.5,0.4-0.8,0.7-1.1c0.4-0.3,0.8-0.4,1.2-0.5
			c0.4,0,0.8,0.1,1.1,0.3c0.6,0.3,0.9,0.8,1,1.5C638.1,524.1,638.1,524.2,638.1,524.3z"/>
	</g>
	<path class="st22" d="M622.8,524.3c0.1,0,0.1,0,0.1,0c0.7,0,1.3,0,2,0c0.4,0,0.9,0,1.3,0c0.5,0,0.9,0.2,1.2,0.5
		c0.7,0.7,0.6,1.9-0.3,2.5c-0.3,0.2-0.6,0.3-1,0.3c-1.1,0-2.1,0-3.2,0c0,0-0.1,0-0.1,0c-0.1,0-0.1,0-0.1-0.1c0-0.1,0-0.2,0-0.3
		c0-0.9,0-1.8,0-2.7C622.8,524.4,622.8,524.4,622.8,524.3z"/>
</g>
<g id="Template">
</g>
<g id="UIKit">
	<g id="Layer_1_1_">
	</g>
</g>
</svg>
