<?xml version="1.0" encoding="utf-8"?>
<!-- Generator: Adobe Illustrator 19.1.0, SVG Export Plug-In . SVG Version: 6.00 Build 0)  -->
<!DOCTYPE svg PUBLIC "-//W3C//DTD SVG 1.1//EN" "http://www.w3.org/Graphics/SVG/1.1/DTD/svg11.dtd">
<svg version="1.1" id="Layer_1" xmlns="http://www.w3.org/2000/svg" xmlns:xlink="http://www.w3.org/1999/xlink" x="0px" y="0px"
	 width="883.7px" height="202.2px" viewBox="0 0 883.7 202.2" style="enable-background:new 0 0 883.7 202.2;" xml:space="preserve"
	>
<style type="text/css">
	.st0{fill:#004C72;}
	.st1{fill:none;stroke:#004C72;stroke-width:5;stroke-miterlimit:10;}
</style>
<g>
	<g>
		<path class="st0" d="M76.2,84.4c-0.6-0.7-1.3-1.3-2.2-1.9c-0.9-0.6-2-1.2-3.2-1.6c-1.2-0.5-2.4-0.9-3.8-1.2
			c-1.4-0.3-2.8-0.5-4.3-0.5c-3.9,0-6.7,0.7-8.5,2.2c-1.8,1.4-2.7,3.4-2.7,6c0,1.4,0.3,2.5,0.8,3.4c0.5,0.9,1.3,1.6,2.4,2.3
			c1.1,0.6,2.5,1.2,4.1,1.6c1.6,0.5,3.6,1,5.8,1.5c2.6,0.6,4.9,1.2,7,1.9c2.1,0.7,3.9,1.6,5.3,2.7s2.6,2.4,3.4,3.9
			c0.8,1.5,1.2,3.4,1.2,5.7c0,2.4-0.5,4.4-1.4,6.2c-0.9,1.8-2.2,3.2-3.8,4.3s-3.5,2-5.7,2.5c-2.2,0.5-4.6,0.8-7.1,0.8
			c-3.8,0-7.5-0.6-10.9-1.8c-3.4-1.2-6.6-2.9-9.4-5.2l3-5.3c0.7,0.8,1.7,1.6,2.9,2.4c1.2,0.8,2.5,1.5,4.1,2.1
			c1.5,0.6,3.2,1.1,4.9,1.5s3.6,0.6,5.5,0.6c3.5,0,6.3-0.6,8.3-1.9c2-1.3,2.9-3.2,2.9-5.7c0-1.4-0.3-2.6-0.9-3.5
			c-0.6-1-1.6-1.8-2.8-2.5c-1.2-0.7-2.7-1.3-4.5-1.9c-1.8-0.5-3.8-1.1-6.1-1.6c-2.5-0.6-4.7-1.3-6.7-2c-1.9-0.7-3.5-1.5-4.8-2.5
			c-1.3-1-2.3-2.2-2.9-3.6c-0.7-1.4-1-3.1-1-5c0-2.4,0.4-4.5,1.3-6.3c0.9-1.8,2.1-3.4,3.7-4.6c1.6-1.3,3.5-2.2,5.7-2.8
			c2.2-0.6,4.6-0.9,7.1-0.9c3.4,0,6.4,0.5,9.1,1.5c2.7,1,5.1,2.4,7.2,4.1L76.2,84.4z"/>
		<path class="st0" d="M83.3,123.7l20.5-49.7h5.2l20.4,49.7h-6.7l-5.9-14.6H95.8L90,123.7H83.3z M106.3,81.2l-9.2,23h18.2
			L106.3,81.2z"/>
		<path class="st0" d="M178.5,123.7V85.2L162,114.7h-3.6l-16.6-29.5v38.5h-6.3V73.9h6.7l18,32.3l18.1-32.3h6.6v49.7H178.5z"/>
		<path class="st0" d="M191.1,123.7l20.5-49.7h5.2l20.4,49.7h-6.7l-5.9-14.6h-20.9l-5.8,14.6H191.1z M214.2,81.2l-9.2,23h18.2
			L214.2,81.2z"/>
		<path class="st0" d="M249.7,85.7v38h-6.3V73.9h4.9l30.8,38.7V74h6.3v49.7h-5.3L249.7,85.7z"/>
		<path class="st0" d="M332.9,79.5h-17.2v44.1h-6.3V79.5h-17.2v-5.6h40.6V79.5z"/>
		<path class="st0" d="M379.7,73.9v49.7h-6.3V101H346v22.6h-6.3V73.9h6.3v21.5h27.4V73.9H379.7z"/>
		<path class="st0" d="M386,123.7l20.5-49.7h5.2l20.4,49.7h-6.7l-5.9-14.6h-20.9l-5.8,14.6H386z M409,81.2l-9.2,23H418L409,81.2z"/>
		<path class="st0" d="M501.8,123.7v-43l-19.6,33.6h-2.2l-19.6-33.6v43h-3.6V73.9h3.6l20.7,35.6l20.7-35.6h3.6v49.7H501.8z"/>
		<path class="st0" d="M514.8,98.4c0-3,0.5-6,1.6-8.9c1.1-3,2.6-5.6,4.6-8c2-2.3,4.5-4.2,7.4-5.7c2.9-1.5,6.2-2.2,10-2.2
			c4.4,0,8.2,1,11.3,3c3.1,2,5.4,4.6,6.9,7.8l-2.9,1.7c-0.8-1.7-1.9-3.2-3-4.3c-1.2-1.2-2.5-2.1-3.9-2.8c-1.4-0.7-2.8-1.2-4.3-1.6
			s-3-0.5-4.4-0.5c-3.2,0-6,0.6-8.4,1.9c-2.4,1.3-4.5,3-6.2,5c-1.7,2.1-3,4.4-3.8,7c-0.9,2.6-1.3,5.2-1.3,7.8c0,2.9,0.5,5.7,1.5,8.4
			c1,2.7,2.4,5,4.2,7c1.8,2,3.9,3.7,6.3,4.9s5,1.8,7.8,1.8c1.5,0,3-0.2,4.6-0.6c1.6-0.4,3.1-1,4.6-1.8c1.5-0.8,2.8-1.8,4.1-3
			c1.3-1.2,2.3-2.7,3.2-4.4l3,1.5c-0.8,1.9-2,3.5-3.4,5c-1.4,1.4-3,2.7-4.8,3.6c-1.8,1-3.7,1.7-5.6,2.2s-3.9,0.7-5.8,0.7
			c-3.4,0-6.5-0.7-9.4-2.2c-2.8-1.5-5.3-3.4-7.3-5.8c-2.1-2.4-3.7-5.1-4.8-8.2C515.4,104.7,514.8,101.6,514.8,98.4z"/>
		<path class="st0" d="M603.1,116c-4.8,5.4-10.4,8.1-16.7,8.1c-3.4,0-6.5-0.7-9.4-2.2c-2.9-1.4-5.3-3.4-7.4-5.7
			c-2.1-2.4-3.7-5.1-4.8-8.1c-1.2-3-1.8-6.1-1.8-9.2c0-3.3,0.6-6.4,1.7-9.5c1.1-3,2.7-5.7,4.8-8.1c2-2.3,4.4-4.2,7.2-5.6
			c2.8-1.4,5.8-2.1,9.1-2.1c2.5,0,4.8,0.3,6.8,0.8c2,0.5,3.7,1.3,5.3,2.2c1.5,1,2.9,2.1,4,3.4s2.1,2.8,2.9,4.4l-2.9,1.8
			c-1.7-3.3-4-5.6-6.8-7.1c-2.8-1.5-5.9-2.2-9.4-2.2c-2.9,0-5.6,0.6-8,1.9c-2.4,1.3-4.4,2.9-6.1,5c-1.7,2.1-3,4.4-3.9,7
			c-0.9,2.6-1.3,5.3-1.3,8.1c0,2.9,0.5,5.7,1.5,8.4s2.4,5,4.2,7c1.8,2,3.9,3.6,6.3,4.8c2.4,1.2,5,1.8,7.8,1.8c3,0,5.9-0.7,8.6-2.1
			c2.7-1.4,5.3-3.6,7.9-6.6v-9.7h-11.3v-2.9h14.4v24.2h-3.2V116z"/>
		<path class="st0" d="M616.7,123.7V73.9h20.7c2.1,0,4,0.4,5.8,1.3c1.8,0.9,3.3,2.1,4.6,3.5c1.3,1.5,2.3,3.1,3,5
			c0.7,1.8,1.1,3.7,1.1,5.6c0,1.8-0.3,3.6-0.8,5.3c-0.6,1.7-1.4,3.2-2.4,4.6c-1,1.4-2.3,2.5-3.7,3.4c-1.4,0.9-3,1.5-4.8,1.8
			l12.4,19.3h-4.1l-12-18.8h-16.1v18.8H616.7z M620.2,101.6h17.4c1.6,0,3-0.3,4.3-1.1c1.3-0.7,2.4-1.6,3.4-2.8
			c0.9-1.1,1.6-2.5,2.1-3.9c0.5-1.5,0.7-3,0.7-4.5c0-1.6-0.3-3.1-0.9-4.6c-0.6-1.5-1.4-2.8-2.4-3.9c-1-1.1-2.2-2-3.5-2.7
			c-1.3-0.7-2.8-1-4.3-1h-17V101.6z"/>
		<path class="st0" d="M695.3,120.4v3.2h-33.1V73.9h32.5v3.2h-28.9v19.5h25.3v3.1h-25.3v20.7H695.3z"/>
		<path class="st0" d="M741.6,116c-4.8,5.4-10.4,8.1-16.7,8.1c-3.4,0-6.5-0.7-9.4-2.2c-2.9-1.4-5.3-3.4-7.4-5.7
			c-2.1-2.4-3.7-5.1-4.8-8.1c-1.2-3-1.8-6.1-1.8-9.2c0-3.3,0.6-6.4,1.7-9.5c1.1-3,2.7-5.7,4.8-8.1c2-2.3,4.4-4.2,7.2-5.6
			c2.8-1.4,5.8-2.1,9.1-2.1c2.5,0,4.8,0.3,6.8,0.8c2,0.5,3.7,1.3,5.3,2.2c1.5,1,2.9,2.1,4,3.4s2.1,2.8,2.9,4.4l-2.9,1.8
			c-1.7-3.3-4-5.6-6.8-7.1c-2.8-1.5-5.9-2.2-9.4-2.2c-2.9,0-5.6,0.6-8,1.9c-2.4,1.3-4.4,2.9-6.1,5c-1.7,2.1-3,4.4-3.9,7
			c-0.9,2.6-1.3,5.3-1.3,8.1c0,2.9,0.5,5.7,1.5,8.4s2.4,5,4.2,7c1.8,2,3.9,3.6,6.3,4.8c2.4,1.2,5,1.8,7.8,1.8c3,0,5.9-0.7,8.6-2.1
			c2.7-1.4,5.3-3.6,7.9-6.6v-9.7h-11.3v-2.9h14.4v24.2h-3.2V116z"/>
		<path class="st0" d="M775.3,124c-3.5,0-6.6-0.7-9.5-2.2c-2.8-1.4-5.3-3.3-7.4-5.7c-2.1-2.3-3.6-5-4.8-8.1c-1.1-3-1.7-6.1-1.7-9.3
			c0-3.3,0.6-6.5,1.8-9.5c1.2-3,2.8-5.7,4.9-8.1c2.1-2.3,4.5-4.2,7.4-5.6c2.8-1.4,5.9-2.1,9.2-2.1c3.5,0,6.6,0.7,9.5,2.2
			c2.8,1.5,5.3,3.4,7.3,5.8c2,2.4,3.6,5.1,4.7,8.1s1.7,6.1,1.7,9.1c0,3.4-0.6,6.6-1.8,9.6c-1.2,3-2.8,5.7-4.9,8
			c-2.1,2.3-4.5,4.2-7.4,5.5C781.7,123.3,778.6,124,775.3,124z M755.6,98.8c0,2.8,0.5,5.6,1.4,8.2c1,2.6,2.3,5,4.1,7
			c1.8,2,3.8,3.7,6.2,4.9c2.4,1.2,5.1,1.8,8,1.8c3,0,5.7-0.6,8.1-1.9s4.5-2.9,6.2-5c1.7-2.1,3.1-4.4,4-7c0.9-2.6,1.4-5.3,1.4-8
			c0-2.8-0.5-5.6-1.5-8.2c-1-2.6-2.3-5-4.1-7c-1.8-2-3.8-3.7-6.2-4.9c-2.4-1.2-5-1.8-7.9-1.8c-3,0-5.7,0.6-8.1,1.9
			c-2.4,1.3-4.5,2.9-6.2,5c-1.7,2.1-3,4.4-4,7C756.1,93.4,755.6,96.1,755.6,98.8z"/>
		<path class="st0" d="M808.1,123.7V73.9h20.7c2.1,0,4,0.4,5.8,1.3c1.8,0.9,3.3,2.1,4.6,3.5c1.3,1.5,2.3,3.1,3,5
			c0.7,1.8,1.1,3.7,1.1,5.6c0,1.8-0.3,3.6-0.8,5.3c-0.6,1.7-1.4,3.2-2.4,4.6c-1,1.4-2.3,2.5-3.7,3.4c-1.4,0.9-3,1.5-4.8,1.8
			l12.4,19.3h-4.1l-12-18.8h-16.1v18.8H808.1z M811.6,101.6h17.4c1.6,0,3-0.3,4.3-1.1c1.3-0.7,2.4-1.6,3.4-2.8
			c0.9-1.1,1.6-2.5,2.1-3.9c0.5-1.5,0.7-3,0.7-4.5c0-1.6-0.3-3.1-0.9-4.6c-0.6-1.5-1.4-2.8-2.4-3.9c-1-1.1-2.2-2-3.5-2.7
			c-1.3-0.7-2.8-1-4.3-1h-17V101.6z"/>
	</g>
</g>
<rect x="2.5" y="2.5" class="st1" width="878.7" height="197.2"/>
<g>
</g>
<g>
</g>
<g>
</g>
<g>
</g>
<g>
</g>
<g>
</g>
</svg>
