<?xml version="1.0" encoding="utf-8"?>
<!-- Generator: Adobe Illustrator 19.1.0, SVG Export Plug-In . SVG Version: 6.00 Build 0)  -->
<!DOCTYPE svg PUBLIC "-//W3C//DTD SVG 1.1//EN" "http://www.w3.org/Graphics/SVG/1.1/DTD/svg11.dtd">
<svg version="1.1" id="Layer_1" xmlns="http://www.w3.org/2000/svg" xmlns:xlink="http://www.w3.org/1999/xlink" x="0px" y="0px"
	 width="20.6px" height="20.5px" viewBox="0 0 20.6 20.5" style="enable-background:new 0 0 20.6 20.5;" xml:space="preserve">
<style type="text/css">
	.st0{fill:#004C72;}
</style>
<path class="st0" d="M5,0.4l2.6,4.5c0.2,0.4,0.1,1-0.3,1.3l-2,1.4C4.9,7.8,4.8,8.3,5,8.7c1,1.7,3.7,6,6.9,7.3
	c0.6,0.3,1.3,0.1,1.7-0.4l1.4-1.7c0.3-0.3,0.8-0.4,1.2-0.2l3.8,2.2c0.5,0.3,0.7,0.8,0.6,1.3c-0.3,1.1-1,3-2.8,3.1c0,0-4.1,1-9.5-2.8
	c0,0-6.9-4.8-8.2-12.1C-0.1,4.3,0.1,3,0.8,2C1.4,1.3,2.4,0.5,4,0C4.4-0.1,4.8,0.1,5,0.4z"/>
</svg>
