<svg xmlns="http://www.w3.org/2000/svg" width="649.8" height="649.8" viewBox="-286 72.2 649.8 649.8" enable-background="new -286 72.2 649.8 649.8"><style type="text/css">.st0{fill:none;stroke:#858484;stroke-width:10;stroke-miterlimit:10;} .st1{fill:#888686;} .st2{fill:#A3A3A3;} .st3{fill:#BFBFBF;} .st4{fill:#858484;}</style><circle class="st0" cx="39.9" cy="397.1" r="317.9"/><path class="st1" d="M-12.4 184.1s101.6-36.2 186.4 43.1c0 0-44.5-2.8-171.1 114.1 0 0-44.5-68.1-15.3-157.2zm211.4 63.6s81.6 70.4 54.6 183.4c0 0-19.6-40.1-183.8-92.4.1 0 37.4-72.4 129.2-91z"/><path class="st2" d="M250.4 457.1s-18.8 106.2-129.7 140.7c0 0 24.5-37.3-14.5-205.2 0 0 81.3-4.9 144.2 64.5z"/><path class="st3" d="M88.1 611.7s-101.8 35.4-186.1-44.6c0 0 44.5 3.1 172-112.8 0 .1 44 68.6 14.1 157.4zm-206.7-62.1s-80.5-71.7-51.7-184.2c0 0 18.9 40.4 182.3 95.3 0-.1-38.4 71.7-130.6 88.9z"/><path class="st4" d="M-168.8 331.8s22.1-105.5 134-136.6c0 0-25.6 36.5 8.1 205.5.1 0-81.3 2.5-142.1-68.9z"/></svg>