<svg xmlns="http://www.w3.org/2000/svg" width="660.4" height="374.6" viewBox="0 0 660.4 374.6"><style type="text/css">.st0{fill:#89D0C2;} .st1{fill:#FFFFFF;} .st2{fill:none;stroke:#000000;stroke-width:3;stroke-miterlimit:10;} .st3{fill:none;stroke:#FFFFFF;stroke-width:5;stroke-miterlimit:10;} .st4{fill:#212120;} .st5{font-family:&apos;Roboto-Regular&apos;;} .st6{font-size:13px;} .st7{fill:#FFFFFF;stroke:#89D0C2;stroke-width:2;stroke-linecap:round;stroke-linejoin:round;stroke-miterlimit:10;} .st8{fill:#303030;} .st9{font-family:&apos;Roboto-Medium&apos;;} .st10{font-size:15.1422px;} .st11{fill:#F57F20;} .st12{font-size:29.4063px;}</style><g id="Isolation_Mode"><g id="wvWh3C.tif_2_"><path class="st0" d="M504.4 259.6v-9.8h-4.1c-.7 0-1.2-.1-1.2-.9 0-.9.5-1 1.2-1h4.2c-.1-7-3.8-11.7-9.6-15 7-12.8 14-25.6 21.1-38.4 7 12.8 14 25.5 21.1 38.4-3.9 2.1-6.8 5-8.5 9-.8 1.9-1.2 3.8-1 6h4.3c.9 0 1.2.5 1 1.2-.1.3-.7.7-1 .7-1.4.1-2.8 0-4.3 0v3.6l.1 6.2h-15.1v-9.7h-6v9.7h-2.2zm10.7-59.1c-.1 0-.2 0-.3-.1l-2.9 5.2c-4.7 8.5-9.4 17.1-14.2 25.6-.5.9-.4 1.3.4 1.9 3.8 2.6 6.4 6.2 7.5 10.8.3 1.2.4 2.5.6 3.8h19.5c.1-1 .2-1.9.3-2.8.8-4.8 3.4-8.5 7.2-11.4 1.6-1.2 1.6-1.2.6-2.9l-14.4-26.2-2.3-4.1c-.2.4-.3.7-.3 1v27.9c0 .7.2 1 .7 1.5 1.3 1.1 1.4 2.8.3 4-1.1 1.1-2.8 1.1-3.9 0-1.2-1.2-1.1-2.9.3-4 .6-.5.7-1 .7-1.7v-27.5c.2-.2.2-.6.2-1z"/><path class="st1" d="M506.5 259.6v-9.7h6v9.7h-6zM515.1 200.5v28.6c0 .7-.1 1.2-.7 1.7-1.4 1.1-1.4 2.8-.3 4 1.1 1.1 2.8 1.1 3.9 0 1.2-1.2 1.1-2.9-.3-4-.5-.4-.7-.8-.7-1.5v-27.9c0-.3 0-.6.3-1l2.3 4.1 14.4 26.2c.9 1.7.9 1.7-.6 2.9-3.8 2.9-6.3 6.6-7.2 11.4-.2.9-.2 1.8-.3 2.8h-19.5c-.2-1.3-.3-2.5-.6-3.8-1.1-4.6-3.7-8.1-7.5-10.8-.8-.6-.9-1-.4-1.9 4.7-8.5 9.4-17.1 14.2-25.6l2.9-5.2h.1z"/></g><path class="st2" d="M151 185.8v75.2h-55v-51.9l24.3-23.3zM96 209.1h24v-23.3"/><path class="st0" d="M105.7 224.7h17.8v4h-17.8zM105.7 235.7h22.7v4h-22.7zM105.7 245.7h37.6v4h-37.6z"/><circle class="st3" cx="137.2" cy="224.5" r="15.3"/><circle class="st0" cx="137" cy="224.7" r="13.8"/><path class="st0" d="M148.987 231.092l1.444-3.298 8.337 3.649-1.444 3.298zM153.77 234.612l2.493-5.894 18.604 7.87-2.493 5.894z"/><text transform="translate(61.862 298.43)"><tspan x="0" y="0" class="st4 st5 st6">Competitive Analysis</tspan><tspan x="11.2" y="18.7" class="st4 st5 st6">Persona Creation</tspan></text><path class="st2" d="M330.7 255.7h-19.3c-5.3 0-9.5-4.3-9.5-9.5v-52.6c0-5.3 4.3-9.5 9.5-9.5h19.3c5.3 0 9.5 4.3 9.5 9.5v52.6c0 5.2-4.3 9.5-9.5 9.5z"/><path d="M327.7 189.9h-16.2c-.7 0-1.2-.5-1.2-1.2s.5-1.2 1.2-1.2h16.2c.7 0 1.2.5 1.2 1.2 0 .6-.5 1.2-1.2 1.2zM331.9 189.9h-.3c-.7 0-1.2-.5-1.2-1.2s.5-1.2 1.2-1.2h.3c.7 0 1.2.5 1.2 1.2 0 .6-.5 1.2-1.2 1.2z"/><circle cx="322" cy="248.6" r="3.5"/><path class="st7" d="M345.4 263.9s-11.4-4.3-5.7-19.7M345 255.9s-16.7-31.5-10.5-35.9c0 0 5.6-4.9 12.4 17.6 0 0 .2-5 5.5-2.9 0 0 .4-5.6 6.1-2.9 0 0 2.8-8.5 8.2 1.1"/><path class="st0" d="M331.8 217.6c-.2.3-.7.3-1 .1l-6.1-5.2c-.3-.2-.3-.7-.1-1 .2-.3.7-.3 1-.1l6.1 5.2c.3.3.4.7.1 1zM330.4 223.8c-.1.4-.4.6-.8.6l-7.9-1.3c-.4-.1-.6-.4-.6-.8.1-.4.4-.6.8-.6l7.9 1.3c.4.1.7.4.6.8zM335.8 216c-.4 0-.7-.3-.7-.7v-8c0-.4.3-.7.7-.7.4 0 .7.3.7.7v8c0 .4-.4.7-.7.7z"/><text transform="translate(88.192 148.51)" class="st8 st9 st10">RESEARCH</text><text transform="translate(321.004 133.367)"><tspan x="-69.6" y="15.9" class="st8 st9 st10">USABILITY TESTING</tspan></text><text transform="translate(266.796 289.16)"><tspan x="0" y="0" class="st4 st5 st6">Paper Prototypes</tspan><tspan x="-14.1" y="18.7" class="st4 st5 st6">Interactive Prototypes</tspan><tspan x="1.7" y="37.4" class="st4 st5 st6">Usability Testing</tspan></text><text transform="translate(463.635 148.51)" class="st8 st9 st10">VISUAL DESIGN</text><text transform="translate(468.888 298.43)"><tspan x="0" y="0" class="st4 st5 st6">Graphic Design</tspan><tspan x="-.1" y="18.7" class="st4 st5 st6">Implementation</tspan></text><circle class="st2" cx="516.3" cy="226.2" r="34.6"/><path d="M511.7 186.9h8.4v8.4h-8.4zM485.6 189.8h60.8v1.6h-60.8z"/><circle cx="486" cy="190.6" r="2.4"/><text transform="translate(261.861 79.087)" class="st11 st9 st12">PROCESS</text></g></svg>