<?xml version="1.0" encoding="utf-8"?>
<!-- Generator: Adobe Illustrator 19.1.0, SVG Export Plug-In . SVG Version: 6.00 Build 0)  -->
<!DOCTYPE svg PUBLIC "-//W3C//DTD SVG 1.1//EN" "http://www.w3.org/Graphics/SVG/1.1/DTD/svg11.dtd">
<svg version="1.1" xmlns="http://www.w3.org/2000/svg" xmlns:xlink="http://www.w3.org/1999/xlink" x="0px" y="0px" width="660.4px"
	 height="374.6px" viewBox="0 0 660.4 374.6" style="enable-background:new 0 0 660.4 374.6;" xml:space="preserve">
<style type="text/css">
	.st0{fill:#89D0C2;}
	.st1{fill:#FFFFFF;}
	.st2{fill:none;stroke:#000000;stroke-width:3;stroke-miterlimit:10;}
	.st3{fill:none;stroke:#FFFFFF;stroke-width:5;stroke-miterlimit:10;}
	.st4{fill:#212120;}
	.st5{font-family:'Roboto-Regular';}
	.st6{font-size:13px;}
	.st7{fill:#FFFFFF;stroke:#89D0C2;stroke-width:2;stroke-linecap:round;stroke-linejoin:round;stroke-miterlimit:10;}
	.st8{fill:#303030;}
	.st9{font-family:'Roboto-Medium';}
	.st10{font-size:15.1422px;}
	.st11{fill:#F57F20;}
	.st12{font-size:29.4063px;}
</style>
<g id="Layer_1">
</g>
<g id="Isolation_Mode">
	<g id="wvWh3C.tif_2_">
		<g>
			<g>
				<path class="st0" d="M504.4,259.6c0-3.2,0-6.5,0-9.8c-1.4,0-2.7,0-4.1,0c-0.7,0-1.2-0.1-1.2-0.9c0-0.9,0.5-1,1.2-1
					c1.3,0,2.7,0,4.2,0c-0.1-7-3.8-11.7-9.6-15c7-12.8,14-25.6,21.1-38.4c7,12.8,14,25.5,21.1,38.4c-3.9,2.1-6.8,5-8.5,9
					c-0.8,1.9-1.2,3.8-1,6c1.5,0,2.9,0,4.3,0c0.9,0,1.2,0.5,1,1.2c-0.1,0.3-0.7,0.7-1,0.7c-1.4,0.1-2.8,0-4.3,0c0,1.3,0,2.5,0,3.6
					c0,2.1,0.1,4.1,0.1,6.2c-5,0-10.1,0-15.1,0c0-3.2,0-6.5,0-9.7c-2.1,0-4,0-6,0c0,3.3,0,6.5,0,9.7
					C505.8,259.6,505.1,259.6,504.4,259.6z M515.1,200.5c-0.1,0-0.2,0-0.3-0.1c-1,1.7-1.9,3.5-2.9,5.2c-4.7,8.5-9.4,17.1-14.2,25.6
					c-0.5,0.9-0.4,1.3,0.4,1.9c3.8,2.6,6.4,6.2,7.5,10.8c0.3,1.2,0.4,2.5,0.6,3.8c6.5,0,13,0,19.5,0c0.1-1,0.2-1.9,0.3-2.8
					c0.8-4.8,3.4-8.5,7.2-11.4c1.6-1.2,1.6-1.2,0.6-2.9c-4.8-8.7-9.6-17.5-14.4-26.2c-0.8-1.4-1.5-2.7-2.3-4.1
					c-0.2,0.4-0.3,0.7-0.3,1c0,9.3,0,18.6,0,27.9c0,0.7,0.2,1,0.7,1.5c1.3,1.1,1.4,2.8,0.3,4c-1.1,1.1-2.8,1.1-3.9,0
					c-1.2-1.2-1.1-2.9,0.3-4c0.6-0.5,0.7-1,0.7-1.7c0-9.2,0-18.3,0-27.5C515.1,201.3,515.1,200.9,515.1,200.5z"/>
				<path class="st1" d="M506.5,259.6c0-3.2,0-6.4,0-9.7c2,0,4,0,6,0c0,3.3,0,6.5,0,9.7C510.5,259.6,508.5,259.6,506.5,259.6z"/>
				<path class="st1" d="M515.1,200.5c0,0.4,0,0.7,0,1.1c0,9.2,0,18.3,0,27.5c0,0.7-0.1,1.2-0.7,1.7c-1.4,1.1-1.4,2.8-0.3,4
					c1.1,1.1,2.8,1.1,3.9,0c1.2-1.2,1.1-2.9-0.3-4c-0.5-0.4-0.7-0.8-0.7-1.5c0-9.3,0-18.6,0-27.9c0-0.3,0-0.6,0.3-1
					c0.8,1.4,1.5,2.7,2.3,4.1c4.8,8.7,9.6,17.5,14.4,26.2c0.9,1.7,0.9,1.7-0.6,2.9c-3.8,2.9-6.3,6.6-7.2,11.4
					c-0.2,0.9-0.2,1.8-0.3,2.8c-6.5,0-13,0-19.5,0c-0.2-1.3-0.3-2.5-0.6-3.8c-1.1-4.6-3.7-8.1-7.5-10.8c-0.8-0.6-0.9-1-0.4-1.9
					c4.7-8.5,9.4-17.1,14.2-25.6c1-1.7,1.9-3.5,2.9-5.2C514.8,200.5,514.9,200.5,515.1,200.5z"/>
			</g>
		</g>
	</g>
	<polygon class="st2" points="151,185.8 151,261 96,261 96,209.1 120.3,185.8 	"/>
	<polyline class="st2" points="96,209.1 120,209.1 120,185.8 	"/>
	<rect x="105.7" y="224.7" class="st0" width="17.8" height="4"/>
	<rect x="105.7" y="235.7" class="st0" width="22.7" height="4"/>
	<rect x="105.7" y="245.7" class="st0" width="37.6" height="4"/>
	<circle class="st3" cx="137.2" cy="224.5" r="15.3"/>
	<circle class="st0" cx="137" cy="224.7" r="13.8"/>
	
		<rect x="152.1" y="226.7" transform="matrix(0.401 -0.9161 0.9161 0.401 -119.6851 279.5246)" class="st0" width="3.6" height="9.1"/>
	
		<rect x="161.1" y="225.6" transform="matrix(0.3896 -0.921 0.921 0.3896 -116.7718 295.0916)" class="st0" width="6.4" height="20.2"/>
	<g>
		<text transform="matrix(1 0 0 1 61.8616 298.4305)"><tspan x="0" y="0" class="st4 st5 st6">Competitive Analysis</tspan><tspan x="11.2" y="18.7" class="st4 st5 st6">Persona Creation</tspan></text>
	</g>
	<path class="st2" d="M330.7,255.7h-19.3c-5.3,0-9.5-4.3-9.5-9.5v-52.6c0-5.3,4.3-9.5,9.5-9.5h19.3c5.3,0,9.5,4.3,9.5,9.5v52.6
		C340.2,251.4,335.9,255.7,330.7,255.7z"/>
	<path d="M327.7,189.9h-16.2c-0.7,0-1.2-0.5-1.2-1.2l0,0c0-0.7,0.5-1.2,1.2-1.2h16.2c0.7,0,1.2,0.5,1.2,1.2l0,0
		C328.9,189.3,328.4,189.9,327.7,189.9z"/>
	<path d="M331.9,189.9h-0.3c-0.7,0-1.2-0.5-1.2-1.2l0,0c0-0.7,0.5-1.2,1.2-1.2h0.3c0.7,0,1.2,0.5,1.2,1.2l0,0
		C333.1,189.3,332.6,189.9,331.9,189.9z"/>
	<circle cx="322" cy="248.6" r="3.5"/>
	<path class="st7" d="M345.4,263.9c0,0-11.4-4.3-5.7-19.7"/>
	<path class="st7" d="M345,255.9c0,0-16.7-31.5-10.5-35.9c0,0,5.6-4.9,12.4,17.6c0,0,0.2-5,5.5-2.9c0,0,0.4-5.6,6.1-2.9
		c0,0,2.8-8.5,8.2,1.1"/>
	<path class="st0" d="M331.8,217.6L331.8,217.6c-0.2,0.3-0.7,0.3-1,0.1l-6.1-5.2c-0.3-0.2-0.3-0.7-0.1-1l0,0c0.2-0.3,0.7-0.3,1-0.1
		l6.1,5.2C332,216.9,332.1,217.3,331.8,217.6z"/>
	<path class="st0" d="M330.4,223.8L330.4,223.8c-0.1,0.4-0.4,0.6-0.8,0.6l-7.9-1.3c-0.4-0.1-0.6-0.4-0.6-0.8l0,0
		c0.1-0.4,0.4-0.6,0.8-0.6l7.9,1.3C330.2,223.1,330.5,223.4,330.4,223.8z"/>
	<path class="st0" d="M335.8,216L335.8,216c-0.4,0-0.7-0.3-0.7-0.7v-8c0-0.4,0.3-0.7,0.7-0.7l0,0c0.4,0,0.7,0.3,0.7,0.7v8
		C336.5,215.7,336.1,216,335.8,216z"/>
	<text transform="matrix(1 0 0 1 88.1917 148.5097)" class="st8 st9 st10">RESEARCH</text>
	<text transform="matrix(1 0 0 1 321.0043 133.3674)"><tspan x="0" y="0" class="st8 st9 st10"> </tspan><tspan x="-69.6" y="15.9" class="st8 st9 st10">USABILITY TESTING</tspan></text>
	<g>
		<text transform="matrix(1 0 0 1 266.7956 289.1598)"><tspan x="0" y="0" class="st4 st5 st6">Paper Prototypes</tspan><tspan x="-14.1" y="18.7" class="st4 st5 st6">Interactive Prototypes</tspan><tspan x="1.7" y="37.4" class="st4 st5 st6">Usability Testing</tspan></text>
	</g>
	<text transform="matrix(1 0 0 1 463.6346 148.5096)" class="st8 st9 st10">VISUAL DESIGN </text>
	<g>
		<text transform="matrix(1 0 0 1 468.8882 298.4305)"><tspan x="0" y="0" class="st4 st5 st6">Graphic Design </tspan><tspan x="-0.1" y="18.7" class="st4 st5 st6">Implementation</tspan></text>
	</g>
	<circle class="st2" cx="516.3" cy="226.2" r="34.6"/>
	<rect x="511.7" y="186.9" width="8.4" height="8.4"/>
	<rect x="485.6" y="189.8" width="60.8" height="1.6"/>
	<circle cx="486" cy="190.6" r="2.4"/>
	<text transform="matrix(1 0 0 1 261.8613 79.087)" class="st11 st9 st12">PROCESS</text>
</g>
</svg>
