<svg xmlns="http://www.w3.org/2000/svg" width="96.7" height="48.8" viewBox="0 0 96.7 48.8"><path d="M26.2 12.7l-2-1.1c4.1-2.2 6.1-4.1 6.1-5.8 0-1.1-1.3-1.6-3.9-1.6-2.4 0-4.7.6-7.1 1.8-2.8 1.5-4.3 3.3-4.3 5.4 0 1.1.9 2.4 2.7 3.8 1.7 1.3 3.4 2.6 5 3.9 1.8 1.7 2.7 3.5 2.7 5.3 0 2.7-1.5 4.7-4.6 5.8-2.1.8-4.8 1.2-8.1 1.2-2.7 0-6.1-.7-10.2-2l1.4-1.6c3.8 1.7 7.3 2.6 10.7 2.6 2.3 0 4.2-.4 5.9-1.2 2.2-1 3.2-2.5 3.2-4.5 0-1.4-.9-2.8-2.8-4.3l-5.1-3.9c-1.9-1.6-2.8-3.2-2.8-4.8 0-3 1.8-5.2 5.4-6.8 2.7-1.2 5.8-1.8 9.3-1.8 1 0 1.8.2 2.6.7.9.5 1.4 1.3 1.4 2.2 0 1.3-.7 2.5-2 3.8-.2.4-1.4 1.4-3.5 2.9zM31.7 29.4c-.9 0-1.4-.5-1.4-1.4 0-.5.1-1 .3-1.7-1.6 2.1-2.9 3.1-4 3.1-1.2 0-1.8-.6-1.8-1.9 0-1.4.7-2.8 2-4.1 1.3-1.3 2.7-2 4.1-2 .3 0 .8.1 1.5.3l-.7 1c-.4-.2-.9-.3-1.3-.3-1 0-1.9.6-2.7 1.8-.8 1.2-1.2 2.3-1.2 3.3 0 .5.3.7.9.7.7 0 1.7-.9 3-2.8 0 0 .9-1.3 2.4-3.8h1.2l-1.1 3c-.5 1.4-.8 2.3-.8 2.9 0 .2 0 .4.1.7h.4l2-1.6h.6c-.1.7-.6 1.3-1.3 1.9-.8.6-1.6.9-2.2.9zM45 29.5l-.7-.2-.4-.7c0-.8.5-2.8 1.4-6l-.2-.2c-1.3.6-3 2.9-5 6.8h-1.8c1.4-3.7 2.2-5.8 2.2-6.4l-.3-.4c-.6.1-1.6 1.1-2.8 3l-2.3 3.9h-1.4l1.7-7c.1-.5.6-.8 1.6-.7h.3c-.2 1.3-.6 2.7-1 4.3 1.8-2.9 3.2-4.4 4.4-4.4.8 0 1.2.5 1.2 1.5 0 .1-.2 1-.6 2.5 1.6-2.6 2.9-4 4-4 .3 0 .7.1 1.1.4.4.3.6.6.6.9 0 .5-.2 1.3-.6 2.3-.4 1-.6 1.7-.6 2.2 0 .2 0 .5.1 1 .4 0 .9-.3 1.5-.8.4-.4.8-.8 1.2-1.3l.5.6c-.6.6-1.2 1.1-1.9 1.7-.8.7-1.6 1-2.2 1zM55.3 29.4c-.9 0-1.4-.5-1.4-1.4 0-.5.1-1 .3-1.7-1.6 2.1-2.9 3.1-4 3.1-1.2 0-1.8-.6-1.8-1.9 0-1.4.7-2.8 2-4.1 1.3-1.3 2.7-2 4.1-2 .3 0 .8.1 1.5.3l-.7 1c-.4-.2-.9-.3-1.3-.3-1 0-1.9.6-2.7 1.8-.8 1.2-1.2 2.3-1.2 3.3 0 .5.3.7.9.7.7 0 1.7-.9 3-2.8 0 0 .9-1.3 2.4-3.8h1.2l-1.1 3c-.5 1.4-.8 2.3-.8 2.9 0 .2 0 .4.1.7h.4l2-1.6h.6c-.1.7-.6 1.3-1.3 1.9-.8.6-1.5.9-2.2.9zM64.1 29.5c-1 0-1.4-.5-1.4-1.5 0-.6.3-1.5.9-2.7.6-1.1.9-2 .9-2.6 0-.2-.1-.4-.3-.5-1 .4-2 1.4-3.2 3.2-.8 1.3-1.5 2.6-2.3 3.8l-1.3-.1 2.1-7.5 1.8-.4-1.3 4.6 1.8-2.7c.9-1.2 1.8-1.7 2.6-1.7.3 0 .6.2 1 .5.3.3.5.6.5.9 0 .7-.3 1.6-.8 2.8-.6 1.3-.9 2.2-1 2.7h.5c.4 0 1.3-.7 2.5-2.2l.1.8c-.9 1.7-2 2.6-3.1 2.6zM72.9 20.5h-2.4l-2.1 7.3.1.4c.1 0 .3.1.3.1.4 0 .9-.3 1.4-.8l1.2-1.3.3.7c-1.3 1.8-2.5 2.6-3.7 2.6-.4 0-.7-.2-1-.5-.3-.3-.4-.6-.4-1 0-.1.7-2.6 2.1-7.5h-.9l.2-1h1l1.5-5.4 1.7-.4-1.6 5.8h2.4l-.1 1zM77 29.5c-.1 0-.4 0-.8-.1-.3-.2-.4-.6-.5-1 .4-1.3 1-3.1 1.8-5.7l-.3-.5c-.8 0-1.8 1-3.1 3-1 1.5-1.7 2.9-2.2 4.1h-1.4c1.7-7.4 3.8-14.8 6.3-22.2l1.9-.4-5.4 18.2c1.6-2.4 3-3.7 4.1-3.7.9 0 1.4.7 1.4 2 0 .7-.2 1.5-.6 2.5l-1 2.4.2.2c.8 0 1.5-.7 2.2-1.9l1-.4c-.2.8-.6 1.6-1.3 2.3-.7.8-1.5 1.2-2.3 1.2zM86.4 29.4c-.9 0-1.4-.5-1.4-1.4 0-.5.1-1 .3-1.7-1.6 2.1-2.9 3.1-4 3.1-1.2 0-1.8-.6-1.8-1.9 0-1.4.7-2.8 2-4.1 1.3-1.3 2.7-2 4.1-2 .3 0 .8.1 1.5.3l-.7 1c-.4-.2-.9-.3-1.3-.3-1 0-1.9.6-2.7 1.8-.8 1.2-1.2 2.3-1.2 3.3 0 .5.3.7.9.7.7 0 1.7-.9 3-2.8 0 0 .9-1.3 2.4-3.8h1.2l-1.1 3c-.5 1.4-.8 2.3-.8 2.9 0 .2 0 .4.1.7h.4l2-1.6h.6c-.1.7-.6 1.3-1.3 1.9-.8.6-1.6.9-2.2.9zM34.6 30v11.3h-.6v-10.6l-4.3 5.7-4.3-5.7v10.6h-.6v-11.3h.9l4 5.3 4-5.3h.9zM42.1 39.6l.7.2-.4.5c-.7.8-1.7 1.1-2.7 1.1-1.1 0-2-.4-2.7-1.1-.8-.8-1.1-1.7-1.1-2.7 0-1.1.4-2 1.1-2.7.8-.8 1.7-1.1 2.7-1.1 1.1 0 2 .4 2.7 1.1.2.2.3.3.4.5l-.7.2-.2-.3c-.6-.6-1.4-.9-2.2-.9-.9 0-1.6.3-2.2.9-.6.6-.9 1.4-.9 2.3 0 .9.3 1.6.9 2.3.6.6 1.4.9 2.2.9.9 0 1.6-.3 2.2-.9 0-.1.1-.2.2-.3zM53.2 39.9c-1.1 1-2.3 1.5-3.8 1.5-1.6 0-2.9-.6-4-1.7s-1.7-2.5-1.7-4.1c0-1.6.6-2.9 1.7-4.1 1.1-1.1 2.5-1.7 4-1.7s2.8.5 3.8 1.5l-.5.4c-1-.9-2.1-1.3-3.4-1.3-1.4 0-2.6.5-3.6 1.5s-1.5 2.2-1.5 3.6.5 2.6 1.5 3.6 2.2 1.5 3.6 1.5c1.2 0 2.3-.4 3.2-1.1v-3.4h.6v3.8zM57.1 35c-.4.1-.9.4-1.3.9s-.6 1-.6 1.5v4h-.6v-6.9h.6v1.5c.3-.7.8-1.2 1.6-1.6l.3.6zM58.2 37.3v.4c0 .9.3 1.6.9 2.3.6.6 1.4.9 2.2.9.9 0 1.6-.3 2.2-.9l.3-.3.7.2c-.1.1-.2.3-.5.6-.7.8-1.7 1.1-2.7 1.1-1.1 0-2-.4-2.7-1.1-.8-.8-1.1-1.7-1.1-2.7 0-1.1.4-2 1.1-2.7.8-.8 1.7-1.1 2.7-1.1 1.1 0 2 .4 2.7 1.1.7.7 1 1.5 1 2.4h-6.8zm.1-.7h6c-.1-.5-.4-.9-.8-1.3-.6-.6-1.4-.9-2.2-.9-.9 0-1.6.3-2.2.9-.4.5-.7.9-.8 1.3zM72.7 39.9c-.1.1-.2.3-.4.4-.7.8-1.7 1.1-2.7 1.1-1.1 0-2-.4-2.7-1.1-.8-.8-1.1-1.7-1.1-2.7 0-1.1.4-2 1.1-2.7.8-.8 1.7-1.1 2.7-1.1 1.1 0 2 .4 2.7 1.1.1.1.3.3.4.5v-1h.6v5.4c0 1-.4 1.9-1.1 2.7-.7.8-1.7 1.1-2.7 1.1-1.1 0-2-.4-2.7-1.1-.2-.2-.3-.3-.4-.5l.7-.2c.1.1.1.2.2.2.6.6 1.4.9 2.2.9.9 0 1.6-.3 2.2-.9.6-.6.9-1.3 1-2.1zm0-2.9c-.1-.6-.4-1.1-.9-1.6-.6-.6-1.4-.9-2.2-.9s-1.6.3-2.2.9c-.6.6-.9 1.4-.9 2.3 0 .9.3 1.6.9 2.3.6.6 1.4.9 2.2.9s1.6-.3 2.2-.9c.4-.5.7-1 .9-1.6v-1.4zM78.3 33.8c1.1 0 2 .4 2.7 1.1.7.8 1.1 1.7 1.1 2.7 0 1.1-.4 2-1.1 2.7-.7.8-1.6 1.1-2.7 1.1s-2-.4-2.7-1.1c-.8-.8-1.1-1.7-1.1-2.7 0-1.1.4-2 1.1-2.7.7-.7 1.6-1.1 2.7-1.1zm-2.3 1.6c-.6.6-.9 1.4-.9 2.3 0 .9.3 1.6.9 2.3.6.6 1.4.9 2.2.9.9 0 1.6-.3 2.2-.9.6-.6.9-1.4.9-2.3 0-.9-.3-1.6-.9-2.3-.6-.6-1.4-.9-2.2-.9-.8-.1-1.6.3-2.2.9zM85.9 35c-.4.1-.9.4-1.3.9s-.6 1-.6 1.5v4h-.6v-6.9h.6v1.5c.3-.7.8-1.2 1.6-1.6l.3.6z"/></svg>